<?xml version="1.0" encoding="UTF-8" standalone="no"?>
<svg
   xmlns:dc="http://purl.org/dc/elements/1.1/"
   xmlns:cc="http://creativecommons.org/ns#"
   xmlns:rdf="http://www.w3.org/1999/02/22-rdf-syntax-ns#"
   xmlns:svg="http://www.w3.org/2000/svg"
   xmlns="http://www.w3.org/2000/svg"
   id="svg4"
   xml:space="preserve"
   viewBox="0 0 1024 768"
   y="0px"
   x="0px"
   version="1.1"><metadata
     id="metadata10"><rdf:RDF><cc:Work
         rdf:about=""><dc:format>image/svg+xml</dc:format><dc:type
           rdf:resource="http://purl.org/dc/dcmitype/StillImage" /></cc:Work></rdf:RDF></metadata><defs
     id="defs8" /><path
     id="path2"
     d="m243.96 287.25c-0.84 0.01-1.97 0.03-2.49 0.05-0.52 0.03-1.3 0.08-1.72 0.12-0.43 0.03-1.13 0.1-1.58 0.15-0.44 0.05-1.09 0.13-1.45 0.18s-1.05 0.16-1.54 0.24-1.34 0.24-1.88 0.35c-0.53 0.11-1.27 0.27-1.63 0.36-0.36 0.08-1.05 0.26-1.54 0.39s-1.32 0.37-1.84 0.53c-0.53 0.16-1.38 0.45-1.9 0.63-0.53 0.18-1.47 0.54-2.11 0.79s-1.56 0.64-2.05 0.86-1.45 0.68-2.14 1.03c-0.68 0.34-1.6 0.82-2.03 1.06s-1.13 0.64-1.54 0.89c-0.42 0.25-1.38 0.86-2.13 1.36-0.75 0.49-1.82 1.24-2.37 1.66-0.56 0.42-1.34 1.03-1.75 1.36-0.4 0.32-1.1 0.91-1.54 1.3-0.45 0.39-1.26 1.13-1.81 1.66-0.55 0.52-1.38 1.36-1.85 1.85-0.46 0.5-1.15 1.25-1.52 1.67-0.36 0.43-1.02 1.21-1.45 1.75s-1.12 1.44-1.52 1.99c-0.4 0.56-1.06 1.5-1.45 2.11-0.4 0.6-0.98 1.52-1.29 2.05-0.31 0.52-0.72 1.24-0.92 1.6s-0.63 1.19-0.96 1.85-0.78 1.6-0.99 2.08c-0.22 0.48-0.59 1.35-0.82 1.92s-0.57 1.47-0.75 1.99c-0.19 0.52-0.48 1.39-0.65 1.93-0.16 0.55-0.43 1.47-0.59 2.06-0.16 0.58-0.4 1.54-0.54 2.13-0.13 0.59-0.33 1.57-0.44 2.19-0.12 0.63-0.26 1.52-0.33 1.99-0.07 0.48-0.16 1.23-0.21 1.67s-0.14 1.26-0.19 1.84l-0.1 1.04-0.02 16.32-0.02 16.32-16.3-0.02c-8.97-0.01-16.31 0-16.32 0.03s-0.5 0.09-1.08 0.13c-0.59 0.05-1.53 0.14-2.08 0.21-0.56 0.06-1.45 0.18-1.99 0.27-0.54 0.08-1.58 0.27-2.32 0.42-0.73 0.14-1.89 0.41-2.58 0.58-0.69 0.18-1.63 0.43-2.08 0.57-0.46 0.13-1.27 0.39-1.8 0.57s-1.29 0.44-1.69 0.59-1.17 0.45-1.72 0.68c-0.54 0.22-1.29 0.55-1.66 0.71-0.37 0.17-1.23 0.59-1.91 0.93s-1.6 0.82-2.05 1.07c-0.44 0.25-1.14 0.65-1.55 0.9-0.41 0.24-1.24 0.77-1.84 1.17-0.61 0.39-1.55 1.05-2.1 1.45s-1.45 1.08-1.99 1.51c-0.54 0.44-1.33 1.1-1.76 1.47-0.42 0.37-1.17 1.05-1.67 1.51-0.49 0.47-1.33 1.3-1.85 1.85-0.53 0.55-1.27 1.36-1.66 1.81-0.39 0.44-0.97 1.14-1.3 1.54-0.33 0.41-0.92 1.17-1.32 1.7-0.4 0.52-1.08 1.49-1.51 2.13-0.44 0.65-1.07 1.62-1.39 2.16-0.33 0.54-0.8 1.34-1.04 1.78-0.25 0.45-0.73 1.37-1.08 2.05-0.34 0.69-0.75 1.53-0.9 1.87-0.15 0.35-0.42 0.96-0.59 1.37-0.18 0.41-0.45 1.09-0.62 1.51-0.16 0.43-0.44 1.2-0.62 1.72-0.18 0.53-0.45 1.34-0.59 1.82-0.15 0.47-0.38 1.26-0.51 1.75s-0.31 1.18-0.39 1.54c-0.09 0.36-0.25 1.1-0.36 1.63-0.11 0.54-0.27 1.39-0.35 1.88s-0.2 1.29-0.27 1.78c-0.06 0.49-0.16 1.3-0.21 1.81s-0.12 1.31-0.15 1.78-0.08 1.66-0.1 2.64c-0.02 1.09-0.01 2.34 0.03 3.21 0.04 0.78 0.11 1.88 0.16 2.43 0.05 0.56 0.15 1.46 0.21 1.99 0.07 0.54 0.2 1.46 0.3 2.04 0.09 0.57 0.26 1.52 0.38 2.1s0.36 1.62 0.53 2.31c0.18 0.68 0.42 1.58 0.54 1.99s0.4 1.3 0.63 1.99c0.23 0.68 0.62 1.75 0.86 2.37s0.6 1.5 0.8 1.96 0.68 1.47 1.07 2.26c0.38 0.78 0.94 1.86 1.24 2.4 0.31 0.54 0.81 1.4 1.12 1.9 0.31 0.51 0.89 1.42 1.3 2.02 0.41 0.61 1.05 1.52 1.43 2.02 0.37 0.51 0.9 1.19 1.16 1.52 0.26 0.32 0.69 0.84 0.95 1.15s0.83 0.95 1.25 1.43c0.43 0.47 1.25 1.32 1.82 1.9 0.57 0.57 1.43 1.39 1.9 1.82 0.47 0.42 1.21 1.06 1.64 1.42 0.42 0.36 1.12 0.92 1.54 1.25 0.42 0.32 1.1 0.83 1.51 1.13 0.41 0.29 1.18 0.83 1.72 1.19s1.37 0.89 1.83 1.17c0.47 0.28 1.19 0.71 1.6 0.93 0.41 0.23 1.22 0.67 1.82 0.98 0.59 0.31 1.46 0.73 1.94 0.95 0.47 0.22 1.27 0.57 1.78 0.78 0.5 0.21 1.4 0.57 1.99 0.79s1.52 0.55 2.08 0.73c0.55 0.18 1.43 0.45 1.96 0.6 0.52 0.15 1.33 0.37 1.81 0.48 0.47 0.12 1.36 0.33 1.98 0.46 0.62 0.12 1.6 0.31 2.17 0.4 0.57 0.1 1.49 0.23 2.02 0.29 0.54 0.07 1.42 0.17 1.96 0.22 0.54 0.04 1.57 0.12 2.29 0.15 0.82 0.05 2.09 0.06 3.38 0.04 1.15-0.02 2.6-0.08 3.24-0.13 0.63-0.05 1.6-0.14 2.15-0.21 0.55-0.06 1.43-0.18 1.96-0.26 0.53-0.09 1.25-0.2 1.59-0.27 0.35-0.06 1.08-0.21 1.64-0.33 0.55-0.12 1.42-0.33 1.92-0.46 0.51-0.13 1.42-0.38 2.02-0.56s1.56-0.49 2.14-0.68c0.57-0.2 1.62-0.59 2.32-0.87s1.74-0.72 2.31-0.98c0.58-0.26 1.41-0.66 1.86-0.88 0.45-0.23 1.24-0.64 1.76-0.93 0.51-0.28 1.36-0.76 1.88-1.08 0.52-0.31 1.51-0.94 2.2-1.4 0.68-0.46 1.71-1.18 2.29-1.61 0.57-0.43 1.44-1.11 1.93-1.51 0.48-0.4 1.2-1.01 1.6-1.36 0.39-0.34 1.41-1.32 2.26-2.17s1.81-1.83 2.12-2.19c0.32-0.35 0.89-1.02 1.27-1.48 0.39-0.47 0.97-1.18 1.28-1.59 0.32-0.4 0.86-1.13 1.19-1.6 0.34-0.47 0.83-1.18 1.09-1.57 0.26-0.4 0.73-1.13 1.04-1.64 0.31-0.5 0.83-1.4 1.16-1.99s0.82-1.51 1.09-2.04c0.26-0.54 0.71-1.49 0.99-2.11s0.7-1.63 0.94-2.23 0.54-1.42 0.68-1.81c0.13-0.39 0.37-1.09 0.51-1.55 0.15-0.45 0.39-1.25 0.53-1.76 0.15-0.52 0.37-1.37 0.5-1.9s0.31-1.36 0.41-1.83 0.26-1.34 0.36-1.93 0.24-1.48 0.3-1.99c0.07-0.51 0.16-1.36 0.2-1.9 0.05-0.54 0.11-1.19 0.13-1.44s0.07-0.46 0.1-0.46c0.04 0 0.04-5.48 0.01-16.31l-0.04-16.31 16.31 0.03c9.75 0.02 16.32 0.01 16.35-0.02s0.55-0.1 1.15-0.14c0.6-0.05 1.63-0.16 2.29-0.24 0.65-0.08 1.74-0.24 2.4-0.35 0.67-0.11 1.67-0.3 2.23-0.42 0.55-0.12 1.38-0.31 1.83-0.42 0.46-0.12 1.33-0.35 1.93-0.53 0.61-0.18 1.57-0.48 2.15-0.68 0.57-0.19 1.3-0.45 1.63-0.57 0.32-0.11 1.01-0.39 1.53-0.6s1.36-0.57 1.87-0.8c0.51-0.24 1.35-0.63 1.85-0.88 0.51-0.26 1.31-0.68 1.79-0.94 0.47-0.26 1.29-0.73 1.82-1.04 0.53-0.32 1.53-0.96 2.22-1.42s1.75-1.21 2.35-1.66 1.54-1.19 2.08-1.63c0.53-0.45 1.42-1.22 1.97-1.71 0.54-0.5 1.54-1.47 2.21-2.15s1.55-1.63 1.96-2.1c0.42-0.48 1.03-1.2 1.36-1.61 0.34-0.41 0.95-1.19 1.37-1.75 0.41-0.55 1.06-1.46 1.43-2.02 0.38-0.55 0.89-1.33 1.14-1.73s0.7-1.15 1-1.67c0.3-0.51 0.83-1.49 1.18-2.18s0.86-1.73 1.13-2.32c0.27-0.58 0.7-1.61 0.97-2.28s0.67-1.74 0.89-2.38 0.53-1.6 0.7-2.14c0.16-0.54 0.45-1.6 0.64-2.37s0.43-1.8 0.53-2.29 0.25-1.29 0.33-1.78 0.2-1.28 0.27-1.75c0.06-0.48 0.16-1.26 0.21-1.75 0.04-0.49 0.11-1.25 0.15-1.7 0.03-0.44 0.08-1.77 0.1-2.96 0.02-1.37 0.01-2.64-0.04-3.45-0.04-0.7-0.11-1.72-0.15-2.26-0.05-0.53-0.15-1.4-0.21-1.93-0.07-0.52-0.19-1.35-0.27-1.84s-0.21-1.18-0.27-1.54c-0.07-0.36-0.24-1.18-0.39-1.81-0.14-0.64-0.4-1.66-0.56-2.26s-0.55-1.85-0.85-2.76c-0.31-0.91-0.78-2.21-1.04-2.87-0.27-0.67-0.69-1.65-0.93-2.2-0.25-0.54-0.73-1.54-1.07-2.21s-0.9-1.72-1.26-2.34-0.93-1.58-1.29-2.14c-0.35-0.56-0.81-1.26-1.03-1.57-0.21-0.31-0.6-0.86-0.86-1.22s-0.74-1-1.07-1.43c-0.33-0.42-0.88-1.1-1.22-1.51s-0.97-1.13-1.4-1.6c-0.42-0.48-1.29-1.39-1.93-2.02-0.64-0.64-1.54-1.5-2-1.91s-1.14-1-1.51-1.31c-0.38-0.31-0.99-0.81-1.36-1.1-0.38-0.29-1.05-0.8-1.49-1.12s-1.26-0.9-1.84-1.28c-0.57-0.38-1.42-0.92-1.9-1.21-0.47-0.29-1.26-0.75-1.75-1.02-0.49-0.28-1.49-0.8-2.23-1.17-0.73-0.37-1.72-0.84-2.19-1.04-0.48-0.21-1.28-0.55-1.78-0.75-0.51-0.2-1.46-0.56-2.11-0.79-0.66-0.23-1.64-0.55-2.2-0.72s-1.62-0.47-2.38-0.66c-0.75-0.19-1.96-0.47-2.7-0.61-0.73-0.15-1.79-0.34-2.34-0.42-0.56-0.09-1.47-0.21-2.02-0.27-0.56-0.06-1.36-0.14-1.78-0.18-0.43-0.03-1.28-0.09-1.9-0.12s-1.83-0.05-2.68-0.05zm0.72 6.38c1.01 0.01 2.23 0.05 2.7 0.08 0.47 0.04 1.34 0.12 1.93 0.18 0.59 0.07 1.51 0.19 2.05 0.27 0.54 0.09 1.46 0.25 2.05 0.36 0.59 0.12 1.6 0.35 2.24 0.51 0.65 0.16 1.66 0.44 2.24 0.61 0.59 0.18 1.48 0.48 2 0.66 0.51 0.18 1.33 0.49 1.81 0.68 0.49 0.2 1.27 0.53 1.74 0.74s1.34 0.63 1.94 0.93 1.33 0.68 1.63 0.84c0.29 0.16 0.92 0.53 1.39 0.81 0.48 0.28 1.39 0.86 2.03 1.28 0.64 0.43 1.62 1.13 2.19 1.56s1.38 1.06 1.79 1.4c0.41 0.35 1.16 1 1.66 1.46 0.5 0.45 1.41 1.33 2.01 1.95 0.61 0.61 1.5 1.58 1.99 2.16 0.49 0.57 1.16 1.38 1.49 1.81 0.33 0.42 0.82 1.06 1.08 1.42s0.68 0.98 0.95 1.37c0.26 0.39 0.67 1.03 0.92 1.42 0.24 0.39 0.67 1.12 0.96 1.62s0.8 1.47 1.14 2.15 0.78 1.6 0.97 2.04c0.2 0.44 0.53 1.24 0.74 1.78s0.55 1.45 0.75 2.04c0.2 0.58 0.53 1.65 0.74 2.37s0.5 1.85 0.65 2.52 0.34 1.61 0.42 2.08 0.21 1.32 0.29 1.9c0.08 0.57 0.19 1.49 0.24 2.05 0.05 0.55 0.12 1.52 0.15 2.14s0.06 1.65 0.06 2.28c0 0.64-0.02 1.67-0.06 2.29-0.03 0.62-0.08 1.45-0.12 1.84-0.03 0.39-0.11 1.16-0.18 1.69-0.07 0.54-0.17 1.32-0.24 1.72-0.06 0.41-0.21 1.21-0.32 1.77s-0.3 1.41-0.42 1.9c-0.11 0.48-0.36 1.37-0.53 1.98-0.17 0.6-0.48 1.58-0.68 2.17-0.2 0.58-0.54 1.49-0.75 2.01-0.2 0.53-0.54 1.34-0.75 1.82-0.21 0.47-0.63 1.35-0.94 1.95-0.3 0.61-0.75 1.46-0.99 1.9-0.25 0.45-0.7 1.22-1.01 1.73-0.31 0.5-0.82 1.29-1.13 1.75s-0.9 1.29-1.32 1.84c-0.41 0.56-1.03 1.34-1.37 1.75-0.33 0.41-0.92 1.09-1.3 1.52-0.37 0.42-1.16 1.25-1.75 1.84s-1.39 1.36-1.77 1.71c-0.38 0.34-1.04 0.91-1.45 1.26-0.42 0.35-1.28 1.02-1.92 1.5s-1.48 1.09-1.87 1.35c-0.39 0.27-1.07 0.71-1.52 0.99-0.44 0.27-1.21 0.74-1.72 1.03-0.5 0.29-1.47 0.8-2.14 1.13s-1.59 0.77-2.05 0.98c-0.45 0.2-1.32 0.56-1.93 0.8-0.6 0.24-1.58 0.59-2.18 0.79s-1.54 0.5-2.11 0.66c-0.56 0.16-1.54 0.41-2.18 0.56-0.63 0.15-1.53 0.34-1.99 0.42-0.46 0.09-1.26 0.22-1.78 0.3s-1.48 0.2-2.12 0.26c-0.65 0.07-1.29 0.12-1.44 0.12h-0.27v-11.62l0.49-0.04c0.27-0.02 0.95-0.11 1.51-0.19s1.37-0.21 1.78-0.29c0.42-0.09 1.19-0.26 1.71-0.39 0.53-0.13 1.35-0.36 1.84-0.51s1.3-0.42 1.79-0.6 1.24-0.48 1.66-0.65c0.42-0.18 1.23-0.55 1.78-0.82 0.56-0.28 1.42-0.74 1.93-1.03 0.51-0.28 1.22-0.71 1.59-0.94 0.36-0.24 1.03-0.68 1.47-1 0.44-0.31 1.14-0.84 1.54-1.16 0.41-0.33 1.07-0.88 1.47-1.23s1.13-1.04 1.62-1.53 1.16-1.2 1.49-1.57c0.33-0.38 0.9-1.05 1.26-1.5s0.92-1.2 1.24-1.66c0.32-0.47 0.75-1.1 0.95-1.41 0.2-0.32 0.57-0.93 0.82-1.37 0.26-0.44 0.7-1.27 0.99-1.85s0.69-1.43 0.89-1.9 0.48-1.16 0.62-1.54c0.14-0.37 0.39-1.11 0.56-1.63s0.42-1.4 0.56-1.96c0.14-0.55 0.34-1.41 0.44-1.9s0.23-1.26 0.3-1.72 0.16-1.23 0.21-1.71 0.12-1.48 0.15-2.22c0.04-0.86 0.04-1.85 0-2.73-0.03-0.76-0.1-1.78-0.15-2.26s-0.14-1.25-0.21-1.69c-0.06-0.45-0.2-1.22-0.3-1.72s-0.29-1.37-0.44-1.93c-0.14-0.55-0.43-1.54-0.64-2.2-0.22-0.66-0.56-1.62-0.77-2.14-0.21-0.51-0.56-1.33-0.78-1.8s-0.61-1.26-0.88-1.75c-0.26-0.49-0.68-1.23-0.92-1.64-0.25-0.4-0.69-1.1-0.99-1.54s-0.74-1.07-0.99-1.4c-0.24-0.32-0.7-0.91-1.02-1.3s-0.89-1.04-1.26-1.45-1.01-1.08-1.43-1.49-1.09-1.03-1.48-1.37-1.07-0.91-1.51-1.25c-0.45-0.35-1.21-0.91-1.71-1.25-0.49-0.35-1.24-0.84-1.66-1.09-0.42-0.26-1.1-0.65-1.5-0.87-0.41-0.23-1.08-0.58-1.49-0.77-0.41-0.2-0.98-0.47-1.28-0.6-0.29-0.13-0.86-0.37-1.27-0.53-0.41-0.17-1.13-0.43-1.6-0.59-0.46-0.16-1.27-0.41-1.78-0.56-0.51-0.14-1.36-0.36-1.88-0.48s-1.4-0.29-1.96-0.38c-0.55-0.09-1.38-0.21-1.84-0.26-0.46-0.06-1.19-0.12-1.63-0.16-0.44-0.03-1.55-0.06-2.47-0.06-0.91 0-2.03 0.03-2.49 0.06-0.46 0.04-1.19 0.1-1.63 0.16-0.45 0.05-1.22 0.15-1.73 0.24-0.5 0.08-1.39 0.25-1.97 0.38s-1.43 0.34-1.9 0.47c-0.47 0.14-1.25 0.38-1.74 0.54-0.49 0.17-1.29 0.46-1.77 0.66-0.49 0.19-1.31 0.55-1.84 0.79-0.52 0.24-1.35 0.66-1.84 0.92-0.49 0.27-1.16 0.64-1.49 0.84s-1 0.63-1.49 0.96c-0.49 0.32-1.25 0.87-1.69 1.2-0.44 0.34-1.15 0.9-1.58 1.26-0.42 0.35-1.25 1.11-1.83 1.68-0.59 0.57-1.35 1.36-1.7 1.75s-0.82 0.94-1.05 1.22c-0.23 0.27-0.66 0.83-0.96 1.23s-0.8 1.1-1.12 1.57c-0.31 0.47-0.78 1.21-1.04 1.65-0.27 0.44-0.78 1.39-1.15 2.11-0.36 0.72-0.83 1.71-1.03 2.19-0.21 0.49-0.5 1.24-0.66 1.67s-0.41 1.17-0.56 1.66c-0.15 0.48-0.36 1.23-0.48 1.67-0.11 0.44-0.3 1.25-0.41 1.81-0.12 0.56-0.28 1.47-0.36 2.03s-0.16 1.23-0.18 1.49l-0.04 0.46h-11.64l0.04-0.55c0.02-0.3 0.09-1.03 0.16-1.62 0.06-0.59 0.21-1.65 0.32-2.35 0.12-0.7 0.3-1.7 0.42-2.21 0.11-0.52 0.28-1.27 0.38-1.67 0.1-0.39 0.33-1.22 0.51-1.84s0.5-1.61 0.7-2.2c0.21-0.59 0.56-1.51 0.77-2.04 0.22-0.53 0.58-1.38 0.81-1.89s0.57-1.22 0.75-1.58c0.18-0.37 0.52-1.02 0.75-1.44 0.23-0.43 0.66-1.18 0.95-1.67s0.86-1.38 1.26-1.99c0.4-0.6 1.02-1.48 1.37-1.96 0.35-0.47 0.92-1.2 1.27-1.63 0.34-0.42 0.89-1.08 1.22-1.45 0.33-0.38 0.98-1.09 1.46-1.58 0.47-0.49 1.17-1.18 1.54-1.54 0.38-0.36 0.99-0.92 1.37-1.25 0.37-0.33 0.99-0.86 1.38-1.17 0.38-0.32 1.1-0.88 1.6-1.25s1.24-0.9 1.65-1.18 1.05-0.7 1.43-0.94c0.37-0.24 1.18-0.73 1.81-1.08 0.62-0.36 1.71-0.94 2.43-1.29 0.72-0.36 1.63-0.79 2.02-0.96s1.11-0.46 1.59-0.66c0.48-0.19 1.42-0.53 2.1-0.76 0.67-0.23 1.73-0.56 2.36-0.74 0.62-0.18 1.54-0.42 2.03-0.53 0.49-0.12 1.22-0.28 1.63-0.36s1.06-0.2 1.45-0.27c0.4-0.06 1.12-0.17 1.61-0.23 0.49-0.07 1.36-0.16 1.93-0.22 0.57-0.05 1.48-0.12 2.02-0.15 0.54-0.02 1.81-0.04 2.82-0.02zm116.1 0.51c-12.47 0-19.6 4.6-23.48 8.47-4.47 4.6-6.89 10.53-6.89 16.82 0.12 16.57 16.82 21.53 27.95 25.53 12.34 4.47 18.03 7.74 18.03 12.82 0 4.24-2.55 7.26-5.93 8.84-4.36 2.05-8.83 0.6-12.95 0.36-3.99-0.24-7.38 2.54-7.38 7.62 0 6.17 8.47 8.59 14.76 8.59 19.24 0 27.59-12.46 27.59-24.44 0-14.88-13.67-21.42-29.16-27.34-12.58-4.84-16.82-8.11-16.82-11.98 0-5.93 5.69-10.17 13.79-10.17 9.32 0 14.4 5.09 16.58 7.02 3.03 2.66 7.38 3.03 10.28-0.6 2.18-2.79 2.55-6.66 0.37-9.56-3.15-4.48-12.59-11.98-26.74-11.98zm438.93 0c-24.56 0-44.52 19.84-44.52 44.53 0 24.56 19.96 44.52 44.52 44.52 10.53 0 22.63-3.75 30.62-9.44 1.57-1.09 2.78-2.18 3.51-3.63 0.84-1.81 0.84-3.5 0.84-5.68v-19c0-4.35-3.51-7.98-7.98-7.98-4.48 0-7.99 3.63-7.99 7.98v16.7c-5.32 3.02-12.7 4.96-19 4.96-15.72 0-28.43-12.7-28.43-28.43s12.71-28.44 28.43-28.44c7.63 0 13.56 2.54 18.64 5.08 3.87 2.06 8.71 2.54 11.13-0.84 2.54-3.63 2.3-8.47-1.09-11.26-9.19-7.5-20.57-9.07-28.68-9.07zm-299.64 2.17c-1.35-0.02-2.62 0.34-3.75 0.98-3.87 2.05-4.24 5.68-4.24 8.71v67.03c0 4.35 3.63 7.98 7.99 7.98 4.48 0 8.11-3.63 8.11-7.98v-47.92l41.98 51.43c1.33 1.57 2.3 2.66 4.12 3.63 3.38 1.69 6.41 0.6 8.34-0.85 2.42-2.06 3.03-4.48 3.03-7.26v-43.8c0-4.36-3.63-7.99-8.11-7.99-4.35 0-7.98 3.63-7.98 8.11v23.96l-42.47-52.15c-2.35-2.72-4.79-3.84-7.02-3.88zm-36.59 0.01c-4.48 0-7.99 3.63-7.99 7.98 0 4.48 3.51 8.11 7.99 8.11s7.98-3.63 7.98-8.11c0-4.35-3.5-7.98-7.98-7.98zm94.18 0c-4.47 0-8.1 3.51-8.1 7.98 0 4.48 3.63 7.99 8.1 7.99 4.36 0 7.99-3.51 7.99-7.99 0-4.47-3.63-7.98-7.99-7.98zm42.01 0c-4.36 0-7.99 3.63-7.99 7.98v68.73c0 4.35 3.63 7.98 7.99 7.98h41.14c4.47 0 7.98-3.63 7.98-7.98 0-4.48-3.51-8.11-7.98-8.11h-33.03v-18.63h28.07c4.47 0 7.98-3.27 7.98-7.62 0-4.48-3.51-7.75-7.98-7.75h-28.07v-18.51h8.59c4.35 0 7.98-3.63 7.98-8.11 0-4.35-3.63-7.98-7.98-7.98h-16.7zm40.77 0c-4.47 0-8.1 3.63-8.1 7.98 0 4.48 3.63 8.11 8.1 8.11 4.36 0 7.99-3.63 7.99-8.11 0-4.35-3.63-7.98-7.99-7.98zm39.92 0c-4.35 0-7.98 3.63-7.98 7.98v68.73c0 4.35 3.63 7.98 7.98 7.98 4.48 0 8.11-3.63 8.11-7.98v-21.78h17.54l3.63 5.81c2.3 3.75 7.26 4.84 11.01 2.42 7.38-4.72 1.46-12.47 1.46-12.47 8.34-4.72 12.82-13.31 12.82-23.71 0-16.46-11.25-26.98-28.55-26.98h-26.02zm228.65 0c-4.47 0-7.98 3.63-7.98 7.98 0 4.48 3.51 8.11 7.98 8.11 4.48 0 7.99-3.63 7.99-8.11 0-4.35-3.51-7.98-7.99-7.98zm-496.78 0.01c-1.54-0.05-3.12 0.34-4.53 1.2-3.75 2.42-4.84 7.38-2.54 11.13l24.68 38.72-0.12 25.65c0 4.35 3.63 7.98 8.11 7.98 4.36 0 7.98-3.63 7.98-7.98v-25.9l11.5-18.02c2.42-3.75 1.33-8.72-2.42-11.14-3.75-2.29-8.71-1.21-11.13 2.55l-6.05 9.55-19-30c-1.43-2.35-3.91-3.65-6.48-3.74zm445.53 0c-1.54-0.05-3.12 0.34-4.52 1.2-3.75 2.42-4.84 7.38-2.54 11.13l24.68 38.72-0.12 25.65c0 4.35 3.63 7.98 8.1 7.98 4.36 0 7.99-3.63 7.99-7.98v-25.9l11.49-18.02c2.42-3.75 1.33-8.72-2.42-11.14-3.75-2.29-8.71-1.21-11.13 2.55l-6.05 9.55-18.99-30c-1.44-2.35-3.92-3.65-6.49-3.74zm-613.32 15.29c1.15 0.01 2.11 0.05 2.7 0.11 0.51 0.06 1.39 0.18 1.96 0.28s1.53 0.3 2.13 0.44c0.6 0.15 1.52 0.41 2.05 0.59 0.53 0.17 1.29 0.45 1.7 0.61 0.41 0.17 1.12 0.48 1.59 0.69 0.46 0.21 1.23 0.6 1.71 0.87 0.48 0.26 1.19 0.68 1.58 0.93 0.4 0.25 1.01 0.67 1.38 0.93 0.36 0.26 0.91 0.67 1.22 0.92s0.85 0.7 1.19 1c0.35 0.3 1.05 0.98 1.58 1.51 0.52 0.54 1.2 1.28 1.51 1.66 0.32 0.38 0.77 0.95 1.02 1.28 0.24 0.32 0.66 0.91 0.92 1.3s0.65 1.01 0.86 1.37 0.55 0.96 0.75 1.34c0.2 0.37 0.51 1.01 0.7 1.42 0.18 0.41 0.44 1.01 0.57 1.34 0.13 0.32 0.35 0.92 0.49 1.33 0.14 0.42 0.36 1.09 0.47 1.5 0.12 0.41 0.29 1.09 0.39 1.51s0.24 1.16 0.32 1.65c0.09 0.49 0.2 1.3 0.26 1.79 0.08 0.7 0.11 1.35 0.11 3.11 0 1.77-0.03 2.41-0.11 3.12-0.06 0.49-0.18 1.29-0.26 1.78s-0.22 1.24-0.32 1.66-0.27 1.1-0.39 1.51-0.34 1.14-0.51 1.6c-0.16 0.47-0.44 1.21-0.62 1.64s-0.52 1.18-0.76 1.67-0.63 1.22-0.87 1.63c-0.23 0.41-0.67 1.12-0.97 1.58-0.3 0.45-0.77 1.12-1.04 1.48s-0.75 0.96-1.06 1.34c-0.32 0.37-1.08 1.19-1.7 1.81s-1.46 1.41-1.87 1.75c-0.41 0.33-1.03 0.83-1.4 1.1-0.36 0.27-1 0.72-1.42 0.99-0.43 0.28-1.13 0.72-1.57 0.96-0.43 0.25-1.05 0.59-1.36 0.74-0.32 0.16-0.93 0.45-1.35 0.64-0.43 0.18-1.15 0.48-1.61 0.65s-1.19 0.42-1.63 0.55c-0.44 0.14-1.24 0.35-1.78 0.48s-1.36 0.31-1.84 0.39c-0.47 0.08-1.22 0.19-1.66 0.24s-1.32 0.12-1.96 0.15c-0.84 0.05-5.24 0.06-16 0.03-8.17-0.02-14.85-0.04-14.86-0.05s-0.02-6.98-0.02-15.48c-0.01-10.79 0.01-15.71 0.05-16.24 0.04-0.43 0.1-1 0.13-1.28 0.04-0.28 0.14-0.96 0.24-1.53 0.09-0.56 0.3-1.51 0.45-2.11 0.15-0.59 0.42-1.55 0.61-2.12s0.52-1.46 0.74-1.97c0.21-0.51 0.59-1.34 0.84-1.84s0.62-1.19 0.81-1.53c0.2-0.35 0.61-1.01 0.91-1.47 0.31-0.47 0.75-1.11 0.99-1.42 0.23-0.32 0.62-0.82 0.86-1.12 0.25-0.29 0.76-0.89 1.15-1.32s1.01-1.06 1.38-1.4 0.91-0.82 1.2-1.08c0.29-0.25 0.9-0.74 1.35-1.08 0.44-0.33 1.15-0.83 1.57-1.11s1.12-0.71 1.56-0.97c0.44-0.25 1.26-0.68 1.81-0.95 0.56-0.26 1.41-0.64 1.9-0.84s1.27-0.48 1.73-0.63c0.45-0.14 1.07-0.33 1.36-0.41 0.3-0.08 0.9-0.23 1.34-0.33 0.45-0.1 1.19-0.25 1.66-0.33 0.48-0.08 1.29-0.19 1.81-0.24 0.53-0.05 1.09-0.1 1.25-0.12 0.16-0.01 1.1-0.01 2.08 0zm444.03 0.31h17.91c8.35 0 12.46 4.96 12.46 12.34 0 6.77-3.27 13.06-12.83 13.06h-17.54v-25.4zm114.27 25.53c-4.48 0-8.11 3.63-8.11 7.98 0 4.48 3.63 8.11 8.11 8.11 4.36 0 7.98-3.63 7.98-8.11 0-4.35-3.62-7.98-7.98-7.98zm-465.8 18.51c-4.35 0-7.98 3.51-7.98 7.98 0 4.48 3.63 7.99 7.98 7.99 4.48 0 8.11-3.51 8.11-7.99 0-4.47-3.63-7.98-8.11-7.98zm392.55 8.83c-4.36 0-7.99 3.63-7.99 8.11 0 4.35 3.63 7.98 7.99 7.98 4.47 0 7.98-3.63 7.98-7.98 0-4.48-3.51-8.11-7.98-8.11zm-571.84 12.23v11.62l-0.46 0.05c-0.26 0.02-0.92 0.1-1.47 0.18-0.56 0.08-1.43 0.23-1.93 0.33-0.51 0.1-1.32 0.29-1.82 0.41-0.49 0.13-1.29 0.36-1.78 0.51s-1.34 0.44-1.9 0.65-1.44 0.57-1.96 0.8-1.41 0.66-1.97 0.95c-0.57 0.3-1.44 0.78-1.93 1.08-0.5 0.3-1.24 0.77-1.65 1.04-0.41 0.28-1.05 0.74-1.42 1.02-0.38 0.28-1.09 0.84-1.58 1.25s-1.5 1.36-2.26 2.11c-0.75 0.75-1.67 1.73-2.04 2.17s-0.99 1.23-1.38 1.74c-0.39 0.52-0.93 1.28-1.2 1.69-0.27 0.42-0.66 1.03-0.86 1.36-0.19 0.33-0.57 1-0.84 1.49-0.26 0.49-0.67 1.32-0.91 1.83-0.24 0.52-0.62 1.39-0.83 1.93-0.22 0.54-0.52 1.39-0.69 1.88-0.16 0.5-0.4 1.3-0.54 1.78-0.13 0.49-0.33 1.31-0.44 1.83-0.12 0.53-0.27 1.37-0.36 1.87-0.08 0.51-0.18 1.27-0.23 1.69-0.05 0.43-0.12 1.23-0.16 1.79-0.04 0.64-0.06 1.72-0.04 2.96 0.02 1.14 0.07 2.33 0.13 2.83 0.05 0.47 0.15 1.23 0.22 1.69 0.06 0.46 0.2 1.24 0.3 1.75 0.09 0.51 0.25 1.24 0.35 1.63 0.1 0.4 0.3 1.13 0.45 1.64 0.15 0.5 0.44 1.39 0.65 1.97s0.56 1.46 0.77 1.96c0.22 0.5 0.66 1.43 0.98 2.06 0.32 0.64 0.82 1.55 1.1 2.02 0.28 0.48 0.75 1.22 1.05 1.67 0.29 0.44 0.79 1.15 1.11 1.57s0.86 1.11 1.2 1.52c0.34 0.4 0.96 1.11 1.39 1.56 0.42 0.45 1.15 1.18 1.62 1.62s1.15 1.05 1.52 1.36 1.06 0.85 1.53 1.2c0.47 0.36 1.24 0.9 1.71 1.21 0.47 0.32 1.23 0.79 1.69 1.06s1.46 0.8 2.23 1.18 1.88 0.89 2.46 1.12c0.59 0.24 1.39 0.54 1.78 0.67 0.4 0.14 1.13 0.36 1.63 0.51 0.5 0.14 1.37 0.37 1.94 0.5 0.57 0.14 1.5 0.32 2.06 0.42 0.57 0.09 1.4 0.21 1.86 0.26 0.45 0.05 1.19 0.12 1.63 0.15 0.44 0.04 1.58 0.07 2.52 0.07 1.03 0 2.18-0.04 2.85-0.1 0.62-0.05 1.6-0.16 2.17-0.24s1.56-0.25 2.2-0.38 1.55-0.34 2.03-0.48c0.48-0.13 1.3-0.37 1.81-0.54 0.52-0.16 1.37-0.47 1.89-0.67 0.52-0.21 1.2-0.49 1.51-0.62 0.31-0.14 1.04-0.49 1.61-0.77 0.57-0.29 1.44-0.76 1.93-1.05 0.49-0.28 1.29-0.79 1.78-1.11 0.49-0.33 1.24-0.86 1.66-1.17 0.43-0.32 1.07-0.83 1.43-1.13s1.05-0.91 1.53-1.35 1.26-1.22 1.73-1.73 1.1-1.23 1.4-1.59c0.3-0.35 0.81-0.99 1.13-1.42 0.32-0.42 0.81-1.11 1.08-1.53 0.28-0.41 0.73-1.11 0.99-1.54 0.25-0.44 0.65-1.12 0.87-1.53s0.55-1.05 0.73-1.43c0.17-0.37 0.47-1.04 0.66-1.49 0.19-0.44 0.53-1.29 0.74-1.88 0.22-0.59 0.54-1.58 0.71-2.19 0.18-0.62 0.42-1.55 0.53-2.07 0.12-0.52 0.28-1.36 0.37-1.87 0.08-0.51 0.2-1.33 0.26-1.84l0.1-0.92 5.82-0.02 5.82-0.01-0.02 0.25c-0.01 0.14-0.06 0.68-0.11 1.2-0.05 0.53-0.16 1.44-0.24 2.02-0.08 0.59-0.24 1.57-0.35 2.17-0.12 0.6-0.34 1.64-0.5 2.29-0.16 0.66-0.4 1.58-0.54 2.05-0.13 0.47-0.4 1.33-0.59 1.91-0.2 0.57-0.55 1.55-0.79 2.16-0.25 0.62-0.61 1.49-0.8 1.93-0.2 0.44-0.64 1.37-0.99 2.06-0.34 0.69-0.88 1.7-1.19 2.25-0.32 0.55-0.87 1.45-1.22 2.01-0.35 0.55-0.92 1.4-1.26 1.87-0.33 0.48-0.88 1.21-1.2 1.63-0.33 0.43-0.91 1.15-1.3 1.6-0.39 0.46-1.14 1.3-1.67 1.88-0.53 0.57-1.35 1.4-1.82 1.84s-1.12 1.05-1.45 1.34-1 0.85-1.49 1.25c-0.49 0.39-1.24 0.98-1.69 1.31-0.44 0.32-1.13 0.82-1.54 1.1-0.41 0.27-1.13 0.74-1.6 1.04-0.48 0.29-1.31 0.78-1.84 1.09-0.54 0.3-1.6 0.85-2.35 1.22s-1.75 0.83-2.23 1.03c-0.47 0.21-1.34 0.55-1.93 0.77s-1.44 0.53-1.9 0.68-1.21 0.38-1.67 0.51-1.26 0.34-1.78 0.47-1.34 0.31-1.83 0.41-1.31 0.25-1.81 0.33c-0.51 0.08-1.25 0.19-1.64 0.24s-1.13 0.13-1.63 0.18c-0.51 0.05-1.7 0.12-2.66 0.16-1.35 0.06-2.11 0.06-3.44 0-0.94-0.03-2.14-0.11-2.66-0.16s-1.36-0.14-1.87-0.21-1.3-0.18-1.75-0.26c-0.46-0.08-1.29-0.24-1.84-0.36-0.56-0.11-1.48-0.33-2.05-0.48s-1.44-0.39-1.93-0.54-1.34-0.42-1.89-0.62c-0.55-0.19-1.48-0.55-2.08-0.79-0.59-0.24-1.47-0.61-1.94-0.83s-1.37-0.66-1.99-0.98-1.49-0.79-1.93-1.04c-0.44-0.26-1.16-0.69-1.6-0.97-0.45-0.28-1.19-0.77-1.67-1.1-0.47-0.33-1.18-0.84-1.57-1.13s-1.03-0.8-1.43-1.12c-0.39-0.31-0.99-0.82-1.33-1.12-0.35-0.3-1.06-0.96-1.59-1.47-0.54-0.5-1.33-1.3-1.78-1.78-0.44-0.47-1.12-1.24-1.52-1.7-0.4-0.47-0.99-1.19-1.32-1.62-0.33-0.42-0.92-1.21-1.3-1.74-0.38-0.54-0.99-1.44-1.34-1.99-0.35-0.56-0.88-1.44-1.18-1.96s-0.86-1.58-1.25-2.35c-0.38-0.76-0.9-1.87-1.15-2.46s-0.59-1.42-0.75-1.85c-0.17-0.43-0.45-1.22-0.63-1.75-0.18-0.54-0.47-1.48-0.64-2.1-0.18-0.62-0.44-1.61-0.57-2.2-0.14-0.58-0.34-1.56-0.46-2.18-0.11-0.61-0.27-1.62-0.35-2.23s-0.19-1.54-0.24-2.06c-0.04-0.52-0.12-1.71-0.16-2.63-0.05-1.28-0.05-2.07 0-3.33 0.04-0.9 0.11-2.09 0.16-2.62 0.05-0.54 0.15-1.4 0.21-1.9 0.07-0.51 0.2-1.39 0.3-1.96 0.1-0.58 0.29-1.52 0.42-2.11s0.37-1.55 0.53-2.15c0.16-0.59 0.39-1.37 0.5-1.74 0.12-0.37 0.35-1.06 0.52-1.54 0.16-0.48 0.49-1.35 0.73-1.94 0.24-0.58 0.59-1.41 0.78-1.84 0.19-0.42 0.61-1.3 0.94-1.96 0.33-0.65 0.83-1.57 1.1-2.05 0.27-0.47 0.7-1.18 0.94-1.57s0.7-1.09 1.01-1.54c0.31-0.46 0.83-1.19 1.16-1.64 0.32-0.44 0.81-1.07 1.07-1.39 0.26-0.33 0.78-0.94 1.14-1.37 0.37-0.42 1.05-1.18 1.52-1.68 0.47-0.49 1.23-1.25 1.68-1.68 0.46-0.43 1.13-1.04 1.49-1.36 0.36-0.31 1-0.85 1.42-1.2 0.43-0.34 1.16-0.91 1.64-1.26 0.47-0.35 1.28-0.92 1.81-1.28 0.52-0.35 1.42-0.92 1.99-1.26s1.38-0.81 1.81-1.04c0.42-0.23 1.07-0.57 1.44-0.75 0.36-0.18 1.11-0.54 1.66-0.79s1.38-0.6 1.86-0.79c0.47-0.19 1.31-0.51 1.87-0.7 0.55-0.2 1.41-0.48 1.9-0.63s1.35-0.39 1.91-0.54 1.45-0.36 1.99-0.47c0.53-0.12 1.45-0.29 2.04-0.39 0.58-0.1 1.39-0.22 1.78-0.27s1.07-0.13 1.51-0.18c0.44-0.04 0.94-0.08 1.12-0.08l0.31-0.01zm17.7 17.87c8.21 0.01 14.94 0.03 14.95 0.04s0.04 6.68 0.06 14.83c0.02 10.8 0.01 15.13-0.04 16.03-0.04 0.68-0.12 1.66-0.19 2.17-0.06 0.51-0.17 1.24-0.24 1.62-0.07 0.37-0.19 0.97-0.27 1.33s-0.27 1.07-0.41 1.58-0.41 1.33-0.59 1.83-0.49 1.29-0.69 1.75-0.51 1.13-0.68 1.47c-0.18 0.35-0.52 0.99-0.77 1.43s-0.69 1.14-0.96 1.56c-0.28 0.43-0.73 1.07-1 1.43s-0.76 0.99-1.1 1.39c-0.33 0.4-0.99 1.12-1.45 1.6-0.46 0.47-1.17 1.15-1.58 1.51s-1.02 0.87-1.36 1.14c-0.35 0.27-0.97 0.73-1.4 1.03-0.42 0.3-1.17 0.78-1.66 1.07-0.49 0.3-1.31 0.75-1.81 1-0.51 0.26-1.35 0.65-1.87 0.87-0.51 0.22-1.45 0.57-2.07 0.78-0.63 0.21-1.57 0.49-2.09 0.62s-1.3 0.31-1.72 0.39c-0.43 0.08-1.18 0.2-1.67 0.26-0.49 0.07-1.32 0.15-1.86 0.19-0.61 0.05-1.59 0.06-2.64 0.04-1.12-0.02-2.01-0.07-2.68-0.15-0.56-0.07-1.33-0.18-1.72-0.25-0.4-0.07-1.13-0.22-1.64-0.34-0.5-0.11-1.3-0.32-1.78-0.46-0.47-0.15-1.22-0.39-1.66-0.55-0.44-0.17-1.1-0.42-1.46-0.58-0.35-0.15-0.97-0.43-1.36-0.63-0.39-0.19-1.03-0.52-1.42-0.74-0.39-0.21-1.04-0.61-1.45-0.87-0.42-0.26-1.04-0.68-1.38-0.92-0.34-0.25-0.87-0.66-1.18-0.9s-0.87-0.71-1.25-1.05c-0.38-0.33-1.05-0.98-1.49-1.43s-1.03-1.09-1.31-1.42c-0.28-0.32-0.7-0.83-0.92-1.12-0.23-0.3-0.64-0.85-0.91-1.24-0.27-0.38-0.74-1.11-1.05-1.62-0.3-0.5-0.78-1.37-1.05-1.91-0.28-0.55-0.67-1.38-0.87-1.86-0.21-0.47-0.56-1.4-0.78-2.07s-0.49-1.54-0.59-1.92c-0.1-0.39-0.26-1.09-0.35-1.56-0.1-0.48-0.25-1.36-0.33-1.98-0.08-0.61-0.18-1.52-0.21-2.02s-0.06-1.36-0.06-1.91 0.03-1.41 0.06-1.91 0.12-1.32 0.18-1.82 0.19-1.27 0.27-1.72 0.25-1.23 0.38-1.73c0.13-0.51 0.36-1.31 0.51-1.79 0.15-0.47 0.45-1.3 0.66-1.84 0.21-0.53 0.65-1.51 0.97-2.16 0.32-0.66 0.81-1.58 1.1-2.05 0.28-0.48 0.67-1.09 0.86-1.37s0.58-0.82 0.87-1.22c0.29-0.39 0.74-0.96 1-1.27s0.78-0.9 1.16-1.31 1.05-1.07 1.49-1.46c0.44-0.4 1.04-0.92 1.33-1.17 0.3-0.24 0.8-0.63 1.12-0.86 0.32-0.24 0.95-0.68 1.42-0.99 0.46-0.3 1.14-0.72 1.49-0.93 0.36-0.2 1.19-0.63 1.84-0.95 0.66-0.31 1.51-0.7 1.89-0.85s1.13-0.42 1.67-0.59c0.53-0.18 1.27-0.41 1.64-0.51 0.38-0.1 1.02-0.25 1.43-0.33 0.41-0.09 1.05-0.21 1.42-0.27 0.38-0.06 1.07-0.16 1.54-0.21 0.48-0.05 1.3-0.11 1.82-0.14 0.52-0.02 7.67-0.03 15.89-0.01zm276.3 1.15c-4.36 0-7.99 3.64-7.99 7.99v68.73c0 4.35 3.63 7.98 7.99 7.98 4.48 0 8.11-3.63 8.11-7.98v-25.78h34.84v25.78c0 4.35 3.63 7.98 8.11 7.98 4.35 0 7.98-3.63 7.98-7.98v-44.65c0-4.36-3.63-7.99-7.98-7.99-4.48 0-8.11 3.63-8.11 7.99v3.75h-34.84v-27.83c0-4.35-3.63-7.99-8.11-7.99zm51.06 0c-4.48 0-8.11 3.64-8.11 7.99 0 4.48 3.63 8.11 8.11 8.11 4.35 0 7.98-3.63 7.98-8.11 0-4.35-3.63-7.99-7.98-7.99zm42.16 0c-4.36 0-7.99 3.64-7.99 7.99v68.73c0 4.35 3.63 7.98 7.99 7.98h41.14c4.47 0 7.98-3.63 7.98-7.98 0-4.48-3.51-8.11-7.98-8.11h-33.04v-18.63h28.07c4.48 0 7.99-3.27 7.99-7.63 0-4.47-3.51-7.74-7.99-7.74h-28.07v-18.51h8.59c4.36 0 7.99-3.63 7.99-8.11 0-4.35-3.63-7.99-7.99-7.99h-16.69zm40.77 0c-4.47 0-8.1 3.64-8.1 7.99 0 4.48 3.63 8.11 8.1 8.11 4.36 0 7.99-3.63 7.99-8.11 0-4.35-3.63-7.99-7.99-7.99zm64.9 0c-3.14 0-5.93 1.82-7.26 4.6l-32.66 68.61c-1.82 3.99-0.13 8.83 3.87 10.77 3.99 1.81 8.71 0.12 10.64-3.88l7.63-15.97h40.65c2.78 0 5.2-1.45 6.66-3.63 2.78-4.11 0.6-7.62-0.73-10.4l-21.54-45.5c-1.33-2.78-4.23-4.6-7.26-4.6zm68 0c-4.35 0-7.98 3.64-7.98 7.99v68.73c0 4.35 3.63 7.98 7.98 7.98h17.06c4.48 0 7.99-3.63 7.99-7.98 0-4.48-3.51-8.11-7.99-8.11h-8.95v-60.62c0-4.35-3.63-7.99-8.11-7.99zm54.74 0c-4.35 0-7.99 3.64-7.99 7.99 0 4.48 3.64 8.11 7.99 8.11h17.55v60.62c0 4.35 3.5 7.98 7.98 7.98s7.99-3.63 7.99-7.98v-68.73c0-4.35-3.15-7.99-7.99-7.99h-25.53zm51.06 0c-4.48 0-8.11 3.64-8.11 7.99 0 4.48 3.63 8.11 8.11 8.11 4.36 0 7.99-3.63 7.99-8.11 0-4.35-3.63-7.99-7.99-7.99zm33.62 0c-4.36 0-7.99 3.64-7.99 7.99v68.73c0 4.35 3.63 7.98 7.99 7.98 4.47 0 8.1-3.63 8.1-7.98v-25.78h34.85v25.78c0 4.35 3.63 7.98 8.1 7.98 4.36 0 7.99-3.63 7.99-7.98v-44.65c0-4.36-3.63-7.99-7.99-7.99-4.47 0-8.1 3.63-8.1 7.99v3.75h-34.85v-27.83c0-4.35-3.63-7.99-8.1-7.99zm51.05 0c-4.47 0-8.1 3.64-8.1 7.99 0 4.48 3.63 8.11 8.1 8.11 4.36 0 7.99-3.63 7.99-8.11 0-4.35-3.63-7.99-7.99-7.99zm-258.47 26.62l11.38 23.72h-22.63l11.25-23.72zm32.55 41.99c-4.36 0-7.98 3.63-7.98 8.11 0 4.35 3.62 7.98 7.98 7.98 4.48 0 8.11-3.63 8.11-7.98 0-4.48-3.63-8.11-8.11-8.11zm76.59 0c-4.48 0-7.98 3.63-7.98 8.11 0 4.35 3.5 7.98 7.98 7.98s7.99-3.63 7.99-7.98c0-4.48-3.51-8.11-7.99-8.11z"
     fill="#000000" /></svg>