<svg width="183" height="184" viewBox="0 0 183 184" fill="none" xmlns="http://www.w3.org/2000/svg">
<path d="M130.975 0.807617C130.164 0.811617 129.093 0.835422 128.593 0.859222C128.094 0.883622 127.354 0.93183 126.949 0.96698C126.543 1.00218 125.867 1.06793 125.446 1.11386C125.025 1.15986 124.4 1.23694 124.057 1.28458C123.713 1.33278 123.05 1.43598 122.582 1.51425C122.114 1.59255 121.31 1.74224 120.796 1.84772C120.281 1.95264 119.579 2.10575 119.236 2.18741C118.893 2.26851 118.229 2.43865 117.762 2.56512C117.294 2.69102 116.503 2.92016 116.003 3.07385C115.504 3.22754 114.688 3.49635 114.189 3.67102C113.69 3.84626 112.784 4.18708 112.175 4.42868C111.567 4.67028 110.687 5.03947 110.219 5.2493C109.751 5.45914 108.832 5.89925 108.177 6.2276C107.522 6.5554 106.649 7.01307 106.236 7.2439C105.824 7.47416 105.16 7.85751 104.761 8.09457C104.363 8.33163 103.45 8.91519 102.733 9.39047C102.015 9.86628 100.995 10.5815 100.464 10.9802C99.934 11.3789 99.1849 11.9607 98.7993 12.2738C98.4136 12.5868 97.7501 13.1466 97.3248 13.5181C96.8994 13.889 96.1225 14.6025 95.5984 15.1027C95.0744 15.6029 94.2816 16.3997 93.8364 16.8738C93.3912 17.3473 92.7385 18.0648 92.3852 18.4686C92.0324 18.8718 91.4058 19.6227 90.9935 20.1376C90.5806 20.6519 89.9284 21.5066 89.544 22.0368C89.1595 22.5665 88.5345 23.4721 88.1557 24.0501C87.7768 24.6274 87.2244 25.5082 86.9284 26.0073C86.6318 26.5063 86.2353 27.1954 86.0465 27.5385C85.8576 27.8816 85.4459 28.6772 85.1312 29.3068C84.8164 29.9363 84.39 30.8283 84.1835 31.29C83.9765 31.7516 83.6277 32.5762 83.4082 33.1229C83.1888 33.6696 82.8638 34.5254 82.6857 35.0245C82.5077 35.5235 82.2303 36.355 82.0704 36.8721C81.9099 37.3893 81.653 38.2712 81.4999 38.832C81.3468 39.3929 81.1177 40.3094 80.9912 40.8692C80.8647 41.4289 80.6725 42.3714 80.5647 42.9642C80.4564 43.5568 80.3163 44.4115 80.2528 44.864C80.1893 45.316 80.0974 46.0306 80.0492 46.4519C80.001 46.8733 79.9188 47.6639 79.8666 48.21L79.7719 49.2024L79.7538 64.7894L79.7357 80.3754L64.1687 80.3573C55.6063 80.3471 48.5947 80.3593 48.5847 80.3851C48.5767 80.4112 48.1106 80.469 47.5503 80.5139C46.9894 80.5593 46.0968 80.6466 45.5665 80.709C45.0363 80.7714 44.1815 80.887 43.6667 80.9659C43.1523 81.0447 42.157 81.2245 41.4549 81.3651C40.7534 81.5063 39.6419 81.7581 38.9857 81.9254C38.3296 82.0921 37.4363 82.3349 37.0008 82.4648C36.5653 82.5941 35.7923 82.8402 35.283 83.0109C34.7743 83.1816 34.0467 83.4368 33.6667 83.5774C33.2873 83.7186 32.5506 84.0102 32.03 84.2251C31.5094 84.44 30.7948 84.7474 30.4421 84.9085C30.0894 85.0695 29.2676 85.4677 28.616 85.7932C27.9644 86.1187 27.0842 86.5792 26.6594 86.8158C26.2352 87.0522 25.5688 87.4379 25.1787 87.6721C24.7891 87.9069 23.9974 88.4083 23.42 88.7871C22.8421 89.166 21.9393 89.7886 21.413 90.1708C20.8867 90.553 20.032 91.2058 19.5138 91.6209C18.996 92.0361 18.2418 92.6644 17.8386 93.0172C17.4348 93.37 16.7174 94.0221 16.2438 94.4673C15.7697 94.9125 14.9729 95.7054 14.4727 96.2293C13.9725 96.7533 13.2591 97.5303 12.8881 97.9557C12.5166 98.3811 11.9569 99.0445 11.6444 99.4302C11.3314 99.8158 10.7659 100.543 10.387 101.048C10.0082 101.552 9.35651 102.471 8.93971 103.09C8.52231 103.708 7.9263 104.635 7.6154 105.15C7.30461 105.665 6.8566 106.431 6.62068 106.854C6.38476 107.276 5.92314 108.157 5.59589 108.81C5.26809 109.464 4.8796 110.267 4.73215 110.595C4.58527 110.922 4.33008 111.509 4.16561 111.899C4.00115 112.289 3.73913 112.94 3.5826 113.345C3.42664 113.751 3.15726 114.491 2.98486 114.99C2.81189 115.489 2.5567 116.267 2.41718 116.72C2.27767 117.172 2.06047 117.925 1.93456 118.393C1.80866 118.86 1.6385 119.524 1.5574 119.867C1.4757 120.21 1.32263 120.912 1.21771 121.427C1.11222 121.941 0.961944 122.745 0.883684 123.213C0.805384 123.681 0.689731 124.446 0.627351 124.914C0.564951 125.382 0.474806 126.16 0.427156 126.644C0.379556 127.128 0.314309 127.894 0.281969 128.346C0.249669 128.798 0.207656 129.933 0.188356 130.869C0.166856 131.903 0.17836 133.105 0.21956 133.932C0.25586 134.68 0.323918 135.727 0.370988 136.257C0.417488 136.787 0.508228 137.642 0.571748 138.157C0.635848 138.671 0.762289 139.544 0.853029 140.096C0.943729 140.648 1.10937 141.554 1.22109 142.109C1.33338 142.665 1.56135 143.655 1.72865 144.31C1.89538 144.965 2.12452 145.82 2.23795 146.21C2.3508 146.599 2.62357 147.455 2.84361 148.11C3.06366 148.765 3.43287 149.784 3.66483 150.375C3.89621 150.965 4.24102 151.807 4.43044 152.246C4.61985 152.685 5.07637 153.656 5.44443 154.405C5.81306 155.153 6.34956 156.186 6.63713 156.701C6.92522 157.216 7.40274 158.032 7.69933 158.516C7.99594 158.999 8.55682 159.868 8.94643 160.444C9.33547 161.021 9.94852 161.889 10.3081 162.373C10.6682 162.856 11.1673 163.507 11.418 163.819C11.6681 164.131 12.0782 164.628 12.3283 164.925C12.5784 165.221 13.116 165.831 13.5226 166.282C13.9292 166.732 14.7102 167.549 15.258 168.097C15.8058 168.644 16.6225 169.426 17.0728 169.834C17.5231 170.242 18.2252 170.854 18.633 171.195C19.0413 171.536 19.7048 172.072 20.1075 172.385C20.5107 172.698 21.1595 173.185 21.5492 173.467C21.9393 173.748 22.679 174.26 23.1938 174.603C23.7087 174.946 24.4959 175.45 24.9434 175.722C25.3908 175.994 26.0759 176.395 26.4662 176.613C26.8558 176.832 27.6379 177.25 28.2044 177.543C28.7704 177.836 29.604 178.246 30.056 178.454C30.5085 178.661 31.2742 178.997 31.7574 179.199C32.2411 179.402 33.0958 179.74 33.6572 179.952C34.2186 180.162 35.1118 180.477 35.6421 180.651C36.1723 180.825 37.0145 181.082 37.5136 181.222C38.0126 181.363 38.7914 181.571 39.2433 181.684C39.6958 181.797 40.5487 181.991 41.1391 182.115C41.7295 182.238 42.6607 182.413 43.2092 182.502C43.757 182.593 44.627 182.719 45.1414 182.784C45.6563 182.848 46.4985 182.939 47.0129 182.984C47.5278 183.031 48.5101 183.098 49.1963 183.135C49.9755 183.176 51.1891 183.189 52.4288 183.167C53.5205 183.148 54.9107 183.094 55.5175 183.046C56.1243 182.997 57.0493 182.908 57.5722 182.846C58.095 182.784 58.9383 182.67 59.4458 182.593C59.9534 182.515 60.6362 182.402 60.9641 182.341C61.2919 182.28 61.9934 182.137 62.5237 182.023C63.0539 181.909 63.883 181.714 64.3667 181.589C64.8505 181.465 65.7154 181.223 66.2899 181.051C66.8638 180.878 67.7826 180.584 68.3315 180.397C68.8799 180.21 69.878 179.839 70.5484 179.572C71.2193 179.305 72.2145 178.883 72.7601 178.634C73.3063 178.385 74.1049 178.005 74.5353 177.79C74.9663 177.574 75.7189 177.178 76.2083 176.909C76.6983 176.641 77.507 176.177 78.0061 175.878C78.5051 175.58 79.4493 174.977 80.1044 174.539C80.7595 174.101 81.7441 173.407 82.293 172.997C82.8414 172.587 83.6705 171.938 84.1361 171.555C84.6011 171.172 85.2879 170.59 85.6622 170.262C86.0365 169.934 87.0091 169 87.823 168.188C88.6373 167.375 89.5493 166.435 89.8497 166.098C90.1503 165.761 90.6976 165.123 91.0668 164.68C91.4355 164.237 91.9856 163.556 92.2885 163.166C92.5919 162.776 93.1028 162.087 93.4245 161.635C93.746 161.182 94.2128 160.506 94.4623 160.132C94.7118 159.758 95.1587 159.056 95.4553 158.572C95.7524 158.089 96.2515 157.234 96.564 156.673C96.8765 156.111 97.3427 155.232 97.5995 154.718C97.8564 154.204 98.284 153.298 98.5494 152.705C98.8148 152.111 99.218 151.153 99.4454 150.576C99.6729 149.999 99.9649 149.221 100.094 148.846C100.224 148.472 100.445 147.809 100.585 147.372C100.726 146.935 100.955 146.176 101.094 145.684C101.232 145.192 101.446 144.376 101.569 143.869C101.691 143.363 101.867 142.578 101.96 142.126C102.054 141.673 102.208 140.844 102.303 140.283C102.398 139.721 102.527 138.866 102.588 138.381C102.65 137.896 102.738 137.08 102.784 136.566C102.831 136.053 102.884 135.435 102.904 135.193C102.924 134.951 102.966 134.754 102.997 134.754C103.035 134.754 103.04 129.516 103.012 119.178L102.971 103.602L118.542 103.632C127.856 103.649 134.135 103.641 134.165 103.61C134.193 103.581 134.687 103.521 135.26 103.475C135.835 103.428 136.818 103.328 137.444 103.251C138.07 103.173 139.104 103.023 139.741 102.915C140.378 102.808 141.333 102.627 141.863 102.513C142.393 102.4 143.182 102.218 143.616 102.109C144.05 102 144.879 101.774 145.459 101.605C146.039 101.437 146.96 101.148 147.506 100.962C148.052 100.777 148.752 100.531 149.062 100.417C149.373 100.303 150.032 100.045 150.527 99.8427C151.022 99.6409 151.827 99.2949 152.316 99.0732C152.805 98.852 153.601 98.4731 154.084 98.231C154.568 97.9888 155.334 97.5873 155.786 97.3389C156.238 97.0905 157.021 96.6408 157.527 96.3396C158.031 96.0385 158.986 95.4305 159.647 94.9898C160.308 94.5486 161.32 93.834 161.894 93.403C162.469 92.9715 163.36 92.2705 163.875 91.8452C164.389 91.4199 165.236 90.6837 165.757 90.2085C166.277 89.7333 167.226 88.8112 167.865 88.159C168.505 87.5073 169.351 86.6033 169.746 86.1513C170.141 85.6988 170.725 85.0097 171.045 84.6201C171.364 84.23 171.95 83.4774 172.346 82.9471C172.742 82.4169 173.361 81.5493 173.72 81.019C174.079 80.4887 174.566 79.7429 174.804 79.3612C175.042 78.9796 175.47 78.265 175.755 77.7733C176.04 77.2817 176.548 76.3431 176.886 75.688C177.224 75.033 177.709 74.0376 177.963 73.4762C178.218 72.9148 178.638 71.9319 178.895 71.2928C179.152 70.6531 179.534 69.6323 179.742 69.0244C179.951 68.4158 180.249 67.4971 180.406 66.9827C180.562 66.4683 180.84 65.4475 181.023 64.7142C181.205 63.9809 181.432 62.9987 181.527 62.5308C181.622 62.0629 181.763 61.2973 181.841 60.8294C181.92 60.3616 182.035 59.6084 182.098 59.1564C182.16 58.7039 182.249 57.9513 182.296 57.4834C182.343 57.0156 182.408 56.2885 182.442 55.8671C182.475 55.4458 182.517 54.1697 182.535 53.0315C182.557 51.7254 182.544 50.5112 182.502 49.7422C182.465 49.0719 182.398 48.1015 182.353 47.5872C182.307 47.0729 182.216 46.2431 182.152 45.7441C182.088 45.2451 181.973 44.4539 181.895 43.986C181.818 43.5182 181.702 42.8546 181.638 42.5115C181.574 42.1684 181.408 41.3897 181.27 40.7818C181.132 40.1733 180.891 39.2036 180.734 38.6267C180.577 38.0494 180.21 36.8629 179.918 35.9896C179.626 35.1163 179.18 33.8833 178.926 33.2493C178.672 32.6153 178.272 31.6711 178.036 31.151C177.801 30.631 177.344 29.6816 177.02 29.0424C176.697 28.4027 176.154 27.3949 175.815 26.8023C175.476 26.2097 174.923 25.291 174.586 24.7607C174.249 24.2305 173.805 23.5538 173.601 23.2578C173.397 22.9612 173.026 22.4384 172.777 22.0952C172.529 21.7521 172.069 21.1396 171.755 20.7341C171.442 20.3286 170.919 19.6776 170.592 19.2879C170.266 18.8978 169.666 18.2086 169.259 17.7567C168.852 17.3042 168.021 16.4365 167.412 15.8286C166.802 15.22 165.942 14.401 165.502 14.0086C165.061 13.6156 164.41 13.0519 164.056 12.7558C163.702 12.4598 163.119 11.9874 162.759 11.706C162.4 11.4247 161.762 10.9433 161.342 10.6358C160.921 10.3285 160.131 9.78006 159.585 9.41714C159.04 9.05419 158.223 8.53245 157.77 8.25745C157.318 7.98297 156.565 7.54342 156.097 7.28085C155.63 7.01827 154.673 6.51696 153.971 6.16647C153.269 5.81655 152.325 5.36739 151.872 5.16946C151.42 4.97096 150.655 4.64998 150.171 4.4566C149.688 4.26265 148.782 3.92464 148.158 3.70459C147.534 3.48512 146.59 3.17375 146.059 3.0127C145.529 2.85164 144.508 2.56978 143.791 2.38547C143.073 2.20173 141.912 1.93745 141.21 1.79794C140.509 1.65842 139.501 1.47863 138.97 1.39923C138.44 1.31923 137.572 1.20414 137.042 1.14346C136.512 1.08276 135.746 1.00564 135.341 0.972748C134.935 0.939248 134.118 0.887166 133.526 0.856506C132.933 0.825306 131.785 0.804299 130.974 0.808899L130.975 0.807617ZM131.656 6.89844C132.623 6.91144 133.784 6.94893 134.236 6.98233C134.689 7.01583 135.517 7.09291 136.078 7.15359C136.639 7.21479 137.519 7.32939 138.035 7.40936C138.55 7.48876 139.431 7.64417 139.993 7.75363C140.554 7.86364 141.519 8.08029 142.137 8.23511C142.756 8.38993 143.717 8.65533 144.275 8.82489C144.833 8.99446 145.692 9.27632 146.183 9.45099C146.674 9.62566 147.453 9.91944 147.916 10.1038C148.378 10.2886 149.123 10.604 149.572 10.8047C150.02 11.006 150.856 11.4047 151.428 11.6911C152 11.9775 152.698 12.3399 152.979 12.497C153.26 12.6535 153.86 13.0006 154.312 13.2683C154.765 13.5354 155.635 14.0884 156.246 14.4967C156.857 14.905 157.801 15.5736 158.344 15.982C158.887 16.3903 159.654 16.9943 160.049 17.3238C160.444 17.6533 161.159 18.2771 161.637 18.7099C162.115 19.1426 162.98 19.9802 163.557 20.5706C164.134 21.161 164.99 22.0899 165.458 22.6349C165.926 23.1793 166.567 23.9568 166.882 24.3624C167.197 24.7679 167.657 25.3804 167.906 25.7235C168.154 26.0666 168.562 26.6536 168.812 27.0279C169.062 27.4022 169.458 28.0147 169.691 28.389C169.925 28.7633 170.339 29.4603 170.612 29.9373C170.885 30.4148 171.374 31.3381 171.698 31.9891C172.022 32.6396 172.44 33.517 172.626 33.9383C172.813 34.3597 173.132 35.1235 173.335 35.6357C173.538 36.1478 173.86 37.0234 174.05 37.5821C174.24 38.1401 174.557 39.1587 174.755 39.8449C174.952 40.5311 175.23 41.6154 175.374 42.2552C175.516 42.8943 175.697 43.7864 175.776 44.2368C175.854 44.6871 175.981 45.5037 176.059 46.0516C176.135 46.5994 176.237 47.4813 176.285 48.0115C176.334 48.5418 176.399 49.4605 176.43 50.0531C176.461 50.6457 176.486 51.628 176.486 52.2365C176.486 52.8445 176.461 53.8273 176.429 54.4199C176.398 55.0125 176.347 55.8036 176.314 56.178C176.283 56.5523 176.205 57.2799 176.141 57.7943C176.078 58.3087 175.975 59.0488 175.912 59.4389C175.85 59.8285 175.712 60.5862 175.606 61.1227C175.499 61.6586 175.32 62.4753 175.207 62.9375C175.094 63.3991 174.866 64.2492 174.699 64.8265C174.532 65.4038 174.239 66.3351 174.046 66.8965C173.854 67.4579 173.535 68.3256 173.338 68.8247C173.141 69.3238 172.815 70.1018 172.614 70.5544C172.413 71.0064 172.012 71.8486 171.723 72.4259C171.434 73.0032 171.006 73.8193 170.771 74.2407C170.537 74.6621 170.102 75.4016 169.806 75.8853C169.51 76.3685 169.025 77.1216 168.729 77.5583C168.433 77.995 167.868 78.7861 167.472 79.3164C167.077 79.8467 166.489 80.5992 166.166 80.9894C165.843 81.379 165.284 82.0301 164.924 82.4356C164.564 82.8411 163.809 83.6339 163.247 84.1976C162.684 84.7613 161.924 85.4935 161.559 85.8241C161.193 86.1553 160.567 86.6981 160.169 87.0315C159.771 87.3644 158.948 88.0109 158.339 88.4675C157.731 88.924 156.927 89.5047 156.553 89.7577C156.178 90.0112 155.528 90.4337 155.106 90.6974C154.686 90.9606 153.946 91.4029 153.462 91.6802C152.979 91.957 152.06 92.4447 151.42 92.7635C150.781 93.0816 149.9 93.5007 149.464 93.6946C149.027 93.888 148.198 94.2328 147.621 94.4602C147.044 94.6882 146.105 95.0297 145.536 95.2196C144.966 95.4096 144.06 95.6898 143.522 95.8418C142.985 95.9943 142.047 96.2359 141.439 96.3788C140.831 96.5217 139.976 96.7044 139.539 96.7843C139.102 96.8643 138.337 96.9918 137.837 97.0678C137.338 97.1438 136.426 97.2578 135.811 97.3208C135.196 97.3843 134.577 97.4359 134.436 97.4359H134.18V86.3359L134.648 86.2979C134.905 86.2769 135.555 86.1964 136.092 86.1193C136.628 86.0416 137.394 85.9134 137.793 85.8335C138.192 85.7535 138.926 85.5868 139.426 85.4631C139.925 85.3395 140.716 85.1206 141.184 84.9777C141.651 84.8342 142.417 84.5761 142.885 84.4043C143.353 84.2325 144.068 83.9529 144.473 83.7827C144.878 83.6126 145.644 83.2599 146.174 82.999C146.705 82.7381 147.534 82.2992 148.017 82.0235C148.501 81.7485 149.183 81.3407 149.533 81.1179C149.883 80.895 150.515 80.4673 150.937 80.1679C151.358 79.8685 152.023 79.3688 152.413 79.058C152.803 78.7467 153.434 78.2181 153.817 77.883C154.198 77.5484 154.894 76.8911 155.361 76.4233C155.829 75.9554 156.47 75.2789 156.786 74.9204C157.101 74.5614 157.641 73.9172 157.984 73.4884C158.327 73.0597 158.861 72.3451 159.17 71.9005C159.48 71.4559 159.889 70.8496 160.078 70.5536C160.268 70.257 160.622 69.6706 160.864 69.2492C161.105 68.8278 161.529 68.0328 161.805 67.4814C162.08 66.9302 162.463 66.1135 162.654 65.6666C162.845 65.2197 163.111 64.5601 163.244 64.2018C163.377 63.8434 163.619 63.1413 163.781 62.6422C163.942 62.1431 164.185 61.301 164.321 60.7707C164.457 60.2405 164.644 59.4238 164.738 58.9559C164.832 58.4881 164.961 57.7479 165.025 57.3113C165.089 56.8746 165.18 56.1414 165.228 55.6826C165.275 55.2232 165.339 54.2676 165.369 53.5593C165.404 52.7381 165.404 51.7928 165.37 50.9534C165.34 50.2286 165.277 49.2571 165.228 48.795C165.18 48.3322 165.091 47.6052 165.029 47.1787C164.967 46.7522 164.838 46.0121 164.742 45.5341C164.647 45.056 164.458 44.2303 164.322 43.6994C164.187 43.1692 163.908 42.222 163.703 41.596C163.498 40.9693 163.167 40.0512 162.968 39.555C162.768 39.0594 162.435 38.283 162.227 37.831C162.018 37.3785 161.641 36.6259 161.39 36.158C161.137 35.6901 160.74 34.9881 160.507 34.5984C160.273 34.2082 159.848 33.5441 159.562 33.1222C159.275 32.6997 158.851 32.1003 158.619 31.7901C158.387 31.4794 157.947 30.9196 157.641 30.5458C157.335 30.1726 156.796 29.5471 156.443 29.1558C156.089 28.7651 155.472 28.1259 155.071 27.7358C154.669 27.3451 154.035 26.7581 153.66 26.4308C153.286 26.103 152.635 25.5648 152.214 25.2341C151.793 24.9035 151.062 24.3653 150.589 24.0381C150.116 23.7109 149.402 23.243 149.001 22.9986C148.6 22.7542 147.954 22.3793 147.564 22.1655C147.174 21.9517 146.536 21.6217 146.146 21.4317C145.756 21.2417 145.207 20.9853 144.926 20.8611C144.646 20.7375 144.097 20.5084 143.707 20.353C143.318 20.197 142.632 19.9447 142.185 19.7921C141.738 19.6396 140.972 19.4008 140.484 19.2613C139.995 19.1218 139.187 18.9153 138.688 18.8025C138.189 18.6891 137.347 18.524 136.817 18.435C136.286 18.346 135.495 18.2331 135.058 18.1843C134.622 18.1355 133.92 18.0703 133.499 18.0392C133.077 18.0074 132.019 17.9825 131.145 17.9825C130.272 17.9825 129.2 18.008 128.763 18.0392C128.327 18.071 127.625 18.1361 127.204 18.1843C126.782 18.2325 126.043 18.3369 125.559 18.4157C125.076 18.4945 124.228 18.6596 123.675 18.7827C123.123 18.9057 122.306 19.1088 121.86 19.2346C121.415 19.3605 120.668 19.5919 120.2 19.7496C119.732 19.9072 118.97 20.1874 118.506 20.3723C118.042 20.5577 117.254 20.898 116.755 21.1288C116.256 21.3602 115.464 21.7561 114.997 22.0084C114.529 22.2614 113.888 22.6232 113.572 22.8132C113.256 23.0026 112.615 23.4126 112.148 23.724C111.682 24.0359 110.954 24.5531 110.532 24.8735C110.11 25.1945 109.433 25.7332 109.028 26.0718C108.623 26.4103 107.835 27.1334 107.277 27.6796C106.719 28.2251 105.99 28.9783 105.657 29.3526C105.324 29.7269 104.873 30.2497 104.654 30.5152C104.435 30.78 104.021 31.3086 103.734 31.6897C103.447 32.0702 102.967 32.7462 102.669 33.1915C102.37 33.6367 101.919 34.3461 101.668 34.7675C101.416 35.1894 100.925 36.0957 100.577 36.7819C100.229 37.4681 99.7841 38.4106 99.5885 38.8763C99.3934 39.3425 99.1098 40.0582 98.9595 40.4676C98.8087 40.877 98.5688 41.5888 98.4259 42.0487C98.283 42.5092 98.0771 43.2283 97.9694 43.6463C97.8611 44.0648 97.683 44.8424 97.5735 45.3743C97.4635 45.9068 97.3109 46.7813 97.2338 47.3184C97.1572 47.8549 97.0767 48.4923 97.0557 48.734L97.0171 49.1735H85.9072L85.9458 48.6489C85.9668 48.3602 86.0348 47.6649 86.0966 47.1035C86.1584 46.542 86.2991 45.5337 86.4097 44.8634C86.5197 44.1931 86.6977 43.2403 86.8049 42.7475C86.9121 42.2541 87.0777 41.5395 87.173 41.1596C87.2683 40.7791 87.486 39.9862 87.6579 39.3976C87.8291 38.8089 88.132 37.8646 88.3305 37.2993C88.529 36.7339 88.8596 35.8554 89.0649 35.3467C89.2702 34.838 89.6173 34.027 89.8356 33.5439C90.0545 33.0613 90.3766 32.3796 90.5519 32.0302C90.7271 31.6803 91.0504 31.0627 91.2699 30.6572C91.4899 30.2517 91.8977 29.5371 92.1761 29.0693C92.4552 28.6014 92.9962 27.7463 93.3784 27.1694C93.7612 26.5921 94.3493 25.7499 94.685 25.2979C95.0213 24.8453 95.5658 24.1438 95.8947 23.7383C96.2237 23.3328 96.7494 22.7078 97.063 22.3495C97.3767 21.9911 98.0033 21.3156 98.4553 20.8484C98.9079 20.3805 99.5714 19.717 99.9298 19.3733C100.289 19.0291 100.876 18.4903 101.234 18.1755C101.593 17.8608 102.185 17.3583 102.55 17.0594C102.915 16.7599 103.604 16.2246 104.081 15.8696C104.559 15.514 105.268 15.0053 105.658 14.7382C106.048 14.4711 106.66 14.0673 107.019 13.841C107.377 13.6142 108.156 13.1503 108.749 12.8094C109.341 12.468 110.387 11.9128 111.074 11.5753C111.76 11.2373 112.628 10.8284 113.002 10.6662C113.376 10.504 114.058 10.2216 114.517 10.0378C114.976 9.85466 115.878 9.52516 116.522 9.30624C117.167 9.08733 118.182 8.76864 118.779 8.59851C119.376 8.42837 120.247 8.19982 120.715 8.09036C121.183 7.98148 121.885 7.8289 122.274 7.75177C122.665 7.67467 123.29 7.55953 123.664 7.496C124.038 7.4325 124.727 7.33042 125.195 7.26917C125.663 7.20737 126.493 7.11605 127.038 7.06558C127.584 7.01568 128.452 6.95214 128.966 6.92435C129.481 6.89715 130.693 6.88525 131.66 6.89825L131.656 6.89844ZM131.429 24.0794C132.527 24.0896 133.442 24.1287 134.009 24.19C134.493 24.2422 135.335 24.3607 135.881 24.4526C136.427 24.5445 137.341 24.7356 137.914 24.8762C138.486 25.0174 139.366 25.2693 139.87 25.4366C140.374 25.6039 141.106 25.8681 141.496 26.0241C141.886 26.18 142.567 26.4738 143.009 26.6774C143.452 26.881 144.188 27.2547 144.646 27.5077C145.103 27.7606 145.784 28.1616 146.158 28.3986C146.532 28.6362 147.123 29.0332 147.471 29.2816C147.818 29.53 148.345 29.927 148.641 30.1635C148.938 30.4 149.448 30.8282 149.775 31.1151C150.103 31.4021 150.78 32.0548 151.279 32.5652C151.779 33.0756 152.431 33.7862 152.728 34.1452C153.026 34.5036 153.462 35.0526 153.697 35.3645C153.931 35.6765 154.327 36.2379 154.577 36.6122C154.826 36.9865 155.197 37.5735 155.4 37.9166C155.602 38.2597 155.924 38.8337 156.114 39.1926C156.305 39.551 156.605 40.1635 156.781 40.5537C156.957 40.9433 157.204 41.5173 157.328 41.8286C157.453 42.14 157.665 42.7162 157.799 43.1091C157.934 43.5021 158.135 44.1435 158.248 44.5342C158.36 44.9255 158.526 45.5743 158.617 45.9764C158.708 46.3779 158.847 47.0896 158.926 47.5575C159.005 48.0254 159.115 48.791 159.171 49.2589C159.252 49.9344 159.272 50.548 159.272 52.2363C159.272 53.9246 159.251 54.5382 159.171 55.2137C159.115 55.6816 159.005 56.4472 158.926 56.9151C158.847 57.383 158.708 58.0947 158.617 58.4962C158.526 58.8983 158.359 59.5494 158.247 59.9424C158.134 60.336 157.916 61.0239 157.762 61.4708C157.607 61.9177 157.34 62.6192 157.167 63.0304C156.995 63.441 156.666 64.1602 156.436 64.628C156.207 65.0959 155.836 65.7974 155.613 66.1876C155.391 66.5772 154.971 67.2538 154.682 67.6905C154.394 68.1272 153.946 68.7652 153.689 69.1083C153.431 69.4514 152.975 70.0259 152.676 70.3843C152.377 70.7427 151.646 71.5225 151.053 72.1163C150.459 72.7101 149.656 73.461 149.268 73.7842C148.879 74.1075 148.279 74.5816 147.935 74.8374C147.59 75.0932 146.977 75.5208 146.571 75.7868C146.166 76.0533 145.494 76.4656 145.078 76.7038C144.662 76.942 144.075 77.2601 143.774 77.4116C143.472 77.5624 142.893 77.8329 142.488 78.0127C142.083 78.1925 141.391 78.4738 140.952 78.6377C140.513 78.8016 139.811 79.0398 139.392 79.1674C138.974 79.2944 138.21 79.5003 137.696 79.6245C137.181 79.7493 136.39 79.9143 135.938 79.9914C135.486 80.0685 134.771 80.1712 134.35 80.2194C133.928 80.2676 133.087 80.3362 132.478 80.3714C131.677 80.4179 127.471 80.4247 117.195 80.3969C109.397 80.3753 103.013 80.3527 103.006 80.3464C102.999 80.3404 102.991 73.6872 102.986 65.5624C102.981 55.2614 102.998 50.5674 103.041 50.0534C103.075 49.6479 103.13 49.0995 103.163 48.8341C103.195 48.5687 103.297 47.9131 103.388 47.376C103.48 46.8395 103.673 45.9338 103.816 45.3627C103.958 44.7922 104.224 43.8785 104.406 43.333C104.588 42.7868 104.903 41.9413 105.107 41.453C105.31 40.9653 105.672 40.1741 105.912 39.6949C106.151 39.2162 106.501 38.5562 106.689 38.2289C106.877 37.9011 107.268 37.271 107.557 36.8281C107.847 36.3851 108.27 35.7749 108.497 35.4715C108.723 35.1686 109.097 34.6888 109.327 34.4053C109.557 34.1223 110.05 33.554 110.424 33.1435C110.797 32.7329 111.388 32.1318 111.738 31.8079C112.088 31.4835 112.603 31.019 112.884 30.7751C113.165 30.5312 113.742 30.0696 114.168 29.7492C114.593 29.4287 115.27 28.9501 115.671 28.6858C116.072 28.4215 116.744 28.0058 117.165 27.7625C117.585 27.5186 118.363 27.1097 118.894 26.854C119.425 26.5976 120.242 26.2352 120.71 26.0481C121.178 25.8609 121.918 25.5921 122.355 25.4503C122.791 25.3091 123.378 25.1299 123.659 25.0522C123.94 24.9745 124.515 24.8328 124.938 24.7375C125.361 24.6417 126.075 24.501 126.526 24.425C126.977 24.3484 127.754 24.2464 128.253 24.197C128.752 24.1477 129.288 24.0978 129.444 24.0858C129.6 24.0739 130.493 24.0711 131.429 24.0798L131.429 24.0794ZM48.2471 86.5534L48.5448 86.5475V97.6474L48.1053 97.6859C47.8637 97.7069 47.2319 97.7863 46.7017 97.8623C46.1714 97.9383 45.3423 98.0801 44.8586 98.177C44.3754 98.2734 43.5968 98.451 43.1283 98.5712C42.6604 98.6914 41.8948 98.9081 41.4269 99.0527C40.9596 99.1979 40.1401 99.4792 39.607 99.6788C39.0733 99.8784 38.2311 100.222 37.7355 100.443C37.2393 100.664 36.3931 101.072 35.8538 101.351C35.315 101.63 34.4854 102.092 34.0107 102.377C33.536 102.662 32.8288 103.112 32.4387 103.377C32.0491 103.642 31.4366 104.078 31.0776 104.347C30.7192 104.615 30.0426 105.153 29.5747 105.542C29.1068 105.931 28.1348 106.837 27.4152 107.557C26.6949 108.276 25.8164 109.208 25.462 109.629C25.1081 110.05 24.5166 110.799 24.1474 111.292C23.7782 111.786 23.2638 112.513 23.0041 112.908C22.7444 113.304 22.3757 113.886 22.1857 114.202C21.9952 114.518 21.6328 115.159 21.3799 115.627C21.1275 116.095 20.7333 116.882 20.5042 117.377C20.2751 117.872 19.9207 118.7 19.7159 119.217C19.5112 119.733 19.2157 120.542 19.0592 121.014C18.9032 121.487 18.6719 122.251 18.5454 122.712C18.4189 123.173 18.2272 123.96 18.1195 124.46C18.0117 124.961 17.8597 125.765 17.7815 126.248C17.7032 126.731 17.6011 127.457 17.5552 127.862C17.5093 128.268 17.4418 129.034 17.4049 129.564C17.3629 130.176 17.3499 131.211 17.3703 132.4C17.3884 133.486 17.4389 134.616 17.4911 135.093C17.5404 135.545 17.6329 136.273 17.6975 136.71C17.7616 137.146 17.8909 137.899 17.9845 138.383C18.0781 138.866 18.2312 139.568 18.3242 139.942C18.4172 140.316 18.6094 141.018 18.7507 141.502C18.8924 141.985 19.1721 142.833 19.3722 143.387C19.5724 143.94 19.9048 144.782 20.1106 145.258C20.3159 145.734 20.7362 146.621 21.0435 147.23C21.3515 147.838 21.8245 148.705 22.0944 149.158C22.3649 149.61 22.8153 150.325 23.0954 150.746C23.3756 151.167 23.8543 151.843 24.1594 152.249C24.464 152.654 24.9795 153.305 25.3044 153.695C25.6288 154.085 26.2237 154.758 26.6258 155.19C27.0274 155.623 27.7244 156.318 28.1742 156.736C28.6239 157.154 29.2806 157.738 29.6333 158.033C29.9861 158.329 30.6416 158.847 31.0908 159.185C31.54 159.522 32.2755 160.042 32.7258 160.341C33.1761 160.638 33.902 161.093 34.3387 161.349C34.7754 161.605 35.7326 162.113 36.4654 162.478C37.1987 162.843 38.2575 163.324 38.819 163.547C39.3805 163.771 40.146 164.058 40.5204 164.187C40.8947 164.315 41.5922 164.534 42.0698 164.673C42.5479 164.811 43.385 165.028 43.9294 165.154C44.4739 165.28 45.3585 165.457 45.8956 165.547C46.4327 165.636 47.2296 165.75 47.6662 165.799C48.1028 165.847 48.8049 165.914 49.2258 165.947C49.6471 165.98 50.7314 166.007 51.636 166.006C52.6121 166.006 53.7184 165.969 54.3582 165.917C54.9509 165.869 55.8826 165.765 56.4282 165.687C56.9744 165.609 57.9186 165.444 58.5266 165.321C59.1346 165.198 60.0084 164.994 60.4679 164.868C60.9279 164.742 61.7059 164.509 62.1976 164.35C62.6899 164.191 63.5002 163.901 63.9993 163.705C64.4984 163.509 65.1495 163.242 65.4455 163.111C65.7422 162.98 66.4312 162.649 66.9767 162.375C67.5229 162.102 68.352 161.654 68.8198 161.38C69.2877 161.106 70.0533 160.627 70.5212 160.316C70.9891 160.004 71.7037 159.5 72.1091 159.195C72.5146 158.89 73.1271 158.407 73.4702 158.121C73.8133 157.835 74.4701 157.255 74.9299 156.832C75.3899 156.41 76.1351 155.664 76.586 155.177C77.0368 154.69 77.6397 154.01 77.9256 153.666C78.2114 153.323 78.6946 152.711 78.9991 152.305C79.3042 151.9 79.7715 151.244 80.0381 150.847C80.3041 150.45 80.7249 149.786 80.9733 149.372C81.2211 148.958 81.5977 148.3 81.8092 147.91C82.0213 147.52 82.3333 146.907 82.5023 146.549C82.6718 146.19 82.9588 145.55 83.1403 145.127C83.3223 144.704 83.6388 143.894 83.8441 143.329C84.0494 142.763 84.3551 141.82 84.5229 141.234C84.6902 140.648 84.9188 139.761 85.0299 139.261C85.1411 138.762 85.2987 137.958 85.3804 137.475C85.4621 136.991 85.5732 136.2 85.6277 135.717L85.7258 134.838L91.2825 134.824L96.8385 134.809L96.8209 135.051C96.8119 135.183 96.7648 135.7 96.7171 136.199C96.6695 136.698 96.5668 137.566 96.4885 138.127C96.4108 138.689 96.2577 139.62 96.1488 140.197C96.04 140.774 95.8267 141.758 95.6747 142.384C95.5227 143.009 95.2919 143.89 95.1621 144.341C95.0322 144.791 94.7759 145.61 94.5927 146.16C94.4089 146.709 94.0698 147.641 93.8384 148.23C93.607 148.818 93.2639 149.646 93.0756 150.07C92.8873 150.494 92.4643 151.379 92.1359 152.035C91.807 152.692 91.292 153.659 90.9915 154.183C90.6904 154.708 90.1686 155.572 89.8311 156.103C89.4937 156.634 88.9532 157.44 88.6299 157.893C88.3072 158.347 87.7889 159.049 87.4786 159.452C87.1684 159.855 86.6115 160.543 86.2411 160.98C85.8708 161.418 85.1534 162.222 84.6463 162.769C84.1398 163.314 83.3572 164.107 82.9075 164.53C82.4583 164.953 81.8339 165.527 81.5209 165.806C81.2073 166.085 80.5693 166.621 80.1031 166.999C79.6364 167.376 78.9104 167.938 78.4891 168.25C78.0683 168.56 77.4047 169.033 77.0146 169.299C76.625 169.565 75.936 170.014 75.4834 170.296C75.0314 170.578 74.2402 171.045 73.7253 171.335C73.2109 171.625 72.2025 172.149 71.4852 172.5C70.7678 172.852 69.8111 173.297 69.3585 173.49C68.9065 173.683 68.0768 174.013 67.5154 174.223C66.9539 174.434 66.1344 174.724 65.6944 174.867C65.2549 175.011 64.5386 175.23 64.1031 175.355C63.6676 175.48 62.9042 175.682 62.4068 175.805C61.9095 175.927 61.1195 176.105 60.6521 176.2C60.1848 176.294 59.4073 176.435 58.9235 176.515C58.4398 176.594 57.7383 176.698 57.3639 176.745C56.9896 176.793 56.2881 176.87 55.8043 176.916C55.3206 176.963 54.1789 177.033 53.2664 177.071C51.9751 177.124 51.2463 177.124 49.9771 177.072C49.0805 177.035 47.9383 176.966 47.4392 176.918C46.9401 176.87 46.1366 176.779 45.6528 176.715C45.1696 176.652 44.4165 176.539 43.9798 176.464C43.5431 176.389 42.752 176.237 42.2217 176.126C41.6914 176.014 40.8112 175.807 40.2651 175.666C39.7195 175.524 38.8898 175.293 38.422 175.151C37.9541 175.009 37.1431 174.742 36.6197 174.557C36.0963 174.372 35.203 174.033 34.6348 173.804C34.0666 173.574 33.2318 173.216 32.7792 173.008C32.3272 172.8 31.472 172.38 30.8794 172.074C30.2868 171.769 29.4576 171.32 29.0363 171.077C28.6155 170.833 27.9264 170.418 27.5051 170.155C27.0843 169.891 26.3697 169.418 25.9172 169.105C25.4652 168.792 24.7887 168.305 24.4143 168.024C24.04 167.742 23.4275 167.263 23.0532 166.959C22.6789 166.655 22.105 166.173 21.7772 165.887C21.45 165.601 20.7655 164.971 20.2573 164.486C19.7486 164.001 18.9875 163.235 18.5656 162.784C18.1442 162.332 17.4881 161.6 17.1086 161.155C16.7286 160.711 16.1604 160.018 15.8456 159.614C15.5303 159.21 14.9734 158.459 14.607 157.946C14.2407 157.432 13.6656 156.578 13.3292 156.048C12.9929 155.518 12.4831 154.676 12.1967 154.176C11.9103 153.677 11.3767 152.669 11.0102 151.936C10.6438 151.203 10.1487 150.144 9.90999 149.583C9.67123 149.021 9.34799 148.225 9.1909 147.814C9.03381 147.403 8.76555 146.65 8.59429 146.141C8.42358 145.632 8.14512 144.731 7.97612 144.138C7.80711 143.546 7.5627 142.603 7.43282 142.043C7.30296 141.484 7.10899 140.546 7.00124 139.959C6.89349 139.371 6.74207 138.413 6.6638 137.828C6.5861 137.244 6.48404 136.357 6.43697 135.858C6.39047 135.359 6.32182 134.23 6.28496 133.348C6.23396 132.123 6.23398 131.376 6.28441 130.172C6.32131 129.307 6.38932 128.178 6.43639 127.663C6.48349 127.148 6.57363 126.332 6.63658 125.849C6.69958 125.365 6.82828 124.523 6.92299 123.977C7.01719 123.431 7.19633 122.525 7.31996 121.964C7.44416 121.402 7.67215 120.481 7.8264 119.916C7.98066 119.352 8.1973 118.602 8.30788 118.25C8.4179 117.898 8.63853 117.237 8.79732 116.781C8.95669 116.326 9.27143 115.493 9.4977 114.931C9.72342 114.37 10.0569 113.579 10.2384 113.173C10.4198 112.768 10.827 111.926 11.1435 111.302C11.4599 110.678 11.9312 109.797 12.1915 109.345C12.4518 108.893 12.855 108.217 13.0881 107.842C13.3212 107.468 13.7551 106.805 14.0517 106.368C14.3483 105.931 14.8468 105.229 15.1593 104.808C15.4717 104.387 15.9328 103.788 16.1835 103.476C16.4341 103.164 16.9252 102.577 17.2746 102.171C17.6239 101.766 18.2755 101.045 18.7229 100.57C19.1704 100.095 19.8941 99.3702 20.3308 98.9596C20.7674 98.5485 21.4055 97.966 21.7486 97.6643C22.0917 97.3626 22.7042 96.8471 23.1097 96.5187C23.5152 96.1903 24.2172 95.647 24.6692 95.3118C25.1218 94.9766 25.8998 94.4282 26.3989 94.0925C26.898 93.7573 27.7533 93.2152 28.2988 92.8885C28.8449 92.5613 29.6231 92.1144 30.0285 91.8949C30.4339 91.6749 31.051 91.3522 31.4003 91.1775C31.7491 91.0028 32.4637 90.6654 32.9882 90.4272C33.5122 90.1896 34.3118 89.8471 34.7638 89.6667C35.2164 89.4858 36.0199 89.1846 36.5502 88.9975C37.0805 88.8103 37.8971 88.541 38.365 88.398C38.8329 88.2557 39.6535 88.0249 40.1889 87.8848C40.7237 87.7447 41.579 87.5411 42.0888 87.4317C42.598 87.3222 43.4748 87.156 44.0362 87.0625C44.5977 86.9689 45.3633 86.8515 45.7377 86.8016C46.112 86.7517 46.763 86.6774 47.1839 86.6354C47.6052 86.594 48.0833 86.5572 48.2472 86.5533L48.2471 86.5534ZM65.4451 103.606C73.29 103.621 79.7171 103.64 79.7291 103.65C79.7404 103.659 79.7625 110.03 79.779 117.806C79.8 128.123 79.7903 132.262 79.7421 133.122C79.7064 133.77 79.6269 134.701 79.5657 135.192C79.505 135.683 79.4024 136.377 79.3377 136.736C79.2731 137.095 79.1562 137.669 79.078 138.012C78.9997 138.356 78.8239 139.034 78.6872 139.519C78.55 140.005 78.297 140.792 78.1241 141.268C77.9511 141.744 77.6534 142.495 77.4617 142.937C77.2706 143.379 76.9779 144.013 76.8112 144.345C76.6445 144.677 76.3132 145.29 76.0751 145.706C75.8363 146.122 75.424 146.794 75.1575 147.2C74.8915 147.605 74.4639 148.219 74.2081 148.564C73.9523 148.908 73.4794 149.504 73.1578 149.888C72.8363 150.272 72.213 150.958 71.7734 151.411C71.3339 151.865 70.6556 152.516 70.2654 152.859C69.8758 153.201 69.2888 153.691 68.961 153.947C68.6338 154.203 68.0338 154.645 67.6283 154.929C67.2234 155.213 66.5089 155.675 66.0404 155.956C65.5726 156.237 64.7939 156.667 64.3101 156.912C63.8264 157.157 63.0261 157.529 62.5321 157.739C62.0382 157.949 61.1449 158.284 60.5478 158.485C59.9506 158.686 59.0534 158.951 58.5544 159.076C58.0553 159.2 57.3152 159.366 56.9098 159.444C56.5043 159.522 55.7897 159.636 55.3219 159.698C54.854 159.761 54.0532 159.842 53.5428 159.879C52.9592 159.922 52.0206 159.935 51.0191 159.916C49.954 159.895 49.1033 159.847 48.4591 159.77C47.9283 159.706 47.1882 159.601 46.8145 159.536C46.4402 159.471 45.7392 159.326 45.2555 159.214C44.7723 159.103 44.0067 158.901 43.5541 158.767C43.1021 158.632 42.3875 158.395 41.9662 158.24C41.5454 158.085 40.9199 157.838 40.5768 157.692C40.2337 157.545 39.6467 157.276 39.2724 157.093C38.8981 156.911 38.2896 156.593 37.9198 156.386C37.5501 156.179 36.9245 155.805 36.5304 155.555C36.1357 155.305 35.5453 154.906 35.2176 154.669C34.8904 154.432 34.3811 154.047 34.0873 153.814C33.793 153.582 33.2571 153.13 32.8963 152.811C32.5351 152.492 31.8948 151.877 31.4723 151.445C31.0498 151.013 30.4867 150.404 30.2201 150.092C29.9536 149.78 29.5572 149.295 29.3382 149.015C29.1199 148.734 28.7303 148.204 28.4728 147.836C28.2148 147.469 27.7656 146.772 27.4736 146.289C27.1815 145.806 26.7272 144.984 26.4635 144.462C26.2004 143.94 25.8267 143.144 25.6333 142.692C25.4399 142.239 25.107 141.346 24.8932 140.707C24.6788 140.067 24.4265 139.242 24.3317 138.873C24.2376 138.505 24.0834 137.834 23.9898 137.384C23.8956 136.933 23.7561 136.087 23.6784 135.502C23.6013 134.918 23.5117 134.048 23.4799 133.57C23.4476 133.092 23.4216 132.271 23.4216 131.746C23.4216 131.221 23.4476 130.4 23.4799 129.921C23.5122 129.443 23.5894 128.662 23.6512 128.185C23.713 127.709 23.8287 126.969 23.9075 126.54C23.9863 126.113 24.1508 125.367 24.2722 124.884C24.3936 124.4 24.6119 123.634 24.7565 123.182C24.9017 122.73 25.1853 121.939 25.3877 121.424C25.5896 120.909 26.0053 119.978 26.3116 119.354C26.6178 118.73 27.0919 117.85 27.3648 117.398C27.6381 116.945 28.0073 116.358 28.1854 116.093C28.364 115.828 28.7383 115.305 29.0174 114.931C29.2969 114.556 29.7279 114.008 29.9752 113.714C30.223 113.418 30.7215 112.857 31.0833 112.466C31.4451 112.074 32.0831 111.444 32.5011 111.064C32.9191 110.684 33.493 110.186 33.776 109.956C34.0596 109.726 34.5394 109.352 34.8422 109.125C35.1456 108.899 35.7558 108.476 36.1988 108.185C36.6417 107.895 37.2837 107.497 37.6251 107.3C37.9671 107.104 38.7582 106.696 39.3832 106.392C40.0088 106.089 40.8197 105.723 41.186 105.579C41.5518 105.435 42.2664 105.178 42.7739 105.01C43.2809 104.841 43.9899 104.625 44.3483 104.53C44.7073 104.434 45.3198 104.29 45.7094 104.209C46.0996 104.128 46.7104 104.013 47.0676 103.953C47.4249 103.894 48.0884 103.804 48.5421 103.753C48.9958 103.703 49.7756 103.643 50.2747 103.621C50.7738 103.599 57.6007 103.592 65.4447 103.606L65.4451 103.606Z" fill="black"/>
</svg>
