<svg width="810" height="194" viewBox="0 0 810 194" fill="none" xmlns="http://www.w3.org/2000/svg">
<path d="M136.96 0C136.12 0.01 134.99 0.0299878 134.47 0.0499878C133.95 0.0799878 133.17 0.130013 132.75 0.170013C132.32 0.200013 131.62 0.270007 131.17 0.320007C130.73 0.370007 130.08 0.45 129.72 0.5C129.36 0.55 128.67 0.65999 128.18 0.73999C127.69 0.81999 126.84 0.979996 126.3 1.09C125.77 1.2 125.03 1.36001 124.67 1.45001C124.31 1.53001 123.62 1.71 123.13 1.84C122.64 1.97 121.81 2.21 121.29 2.37C120.76 2.53 119.91 2.82 119.39 3C118.86 3.18 117.92 3.54001 117.28 3.79001C116.64 4.04001 115.72 4.42999 115.23 4.64999C114.74 4.86999 113.78 5.32999 113.09 5.67999C112.41 6.01999 111.49 6.49999 111.06 6.73999C110.63 6.97999 109.93 7.38 109.52 7.63C109.1 7.88 108.14 8.48999 107.39 8.98999C106.64 9.47999 105.57 10.23 105.02 10.65C104.46 11.07 103.68 11.68 103.27 12.01C102.87 12.33 102.17 12.92 101.73 13.31C101.28 13.7 100.47 14.44 99.92 14.97C99.37 15.49 98.54 16.33 98.07 16.82C97.61 17.32 96.92 18.07 96.55 18.49C96.19 18.92 95.53 19.7 95.1 20.24C94.67 20.78 93.98 21.68 93.58 22.23C93.18 22.79 92.52 23.73 92.13 24.34C91.73 24.94 91.15 25.86 90.84 26.39C90.53 26.91 90.12 27.63 89.92 27.99C89.72 28.35 89.29 29.18 88.96 29.84C88.63 30.5 88.18 31.44 87.97 31.92C87.75 32.4 87.38 33.27 87.15 33.84C86.92 34.41 86.58 35.31 86.4 35.83C86.21 36.35 85.92 37.22 85.75 37.76C85.59 38.31 85.32 39.23 85.16 39.82C85 40.4 84.76 41.36 84.62 41.95C84.49 42.54 84.29 43.52 84.18 44.14C84.06 44.77 83.92 45.66 83.85 46.13C83.78 46.61 83.69 47.36 83.64 47.8C83.59 48.24 83.5 49.06 83.45 49.64L83.35 50.68L83.33 67L83.31 83.32L67.01 83.3C58.04 83.29 50.7 83.3 50.69 83.33C50.68 83.36 50.19 83.42 49.61 83.46C49.02 83.51 48.08 83.6 47.53 83.67C46.97 83.73 46.08 83.85 45.54 83.94C45 84.02 43.96 84.21 43.22 84.36C42.49 84.5 41.33 84.77 40.64 84.94C39.95 85.12 39.01 85.37 38.56 85.51C38.1 85.64 37.29 85.9 36.76 86.08C36.23 86.26 35.47 86.52 35.07 86.67C34.67 86.82 33.9 87.12 33.35 87.35C32.81 87.57 32.06 87.9 31.69 88.06C31.32 88.23 30.46 88.65 29.78 88.99C29.1 89.33 28.18 89.81 27.73 90.06C27.29 90.31 26.59 90.71 26.18 90.96C25.77 91.2 24.94 91.73 24.34 92.13C23.73 92.52 22.79 93.18 22.24 93.58C21.69 93.98 20.79 94.66 20.25 95.09C19.71 95.53 18.92 96.19 18.49 96.56C18.07 96.93 17.32 97.61 16.82 98.07C16.33 98.54 15.49 99.37 14.97 99.92C14.44 100.47 13.7 101.28 13.31 101.73C12.92 102.17 12.34 102.87 12.01 103.27C11.68 103.68 11.09 104.44 10.69 104.97C10.29 105.49 9.61 106.46 9.18 107.1C8.74 107.75 8.11 108.72 7.79 109.26C7.46 109.8 6.99 110.6 6.75 111.04C6.5 111.49 6.02 112.41 5.67 113.09C5.33 113.78 4.91999 114.62 4.76999 114.96C4.61999 115.31 4.35 115.92 4.18 116.33C4 116.74 3.73 117.42 3.56 117.84C3.4 118.27 3.12 119.04 2.94 119.56C2.76 120.09 2.49 120.9 2.35 121.38C2.2 121.85 1.96999 122.64 1.83999 123.13C1.70999 123.62 1.53 124.31 1.45 124.67C1.36 125.03 1.19999 125.77 1.08999 126.3C0.979995 126.84 0.819996 127.69 0.739996 128.18C0.659996 128.67 0.539999 129.47 0.469999 129.96C0.409999 130.45 0.31 131.26 0.26 131.77C0.21 132.28 0.139999 133.08 0.109999 133.55C0.0799988 134.02 0.0300003 135.21 0.0100003 136.19C-0.00999968 137.28 -9.05246e-07 138.53 0.0399991 139.4C0.0799991 140.18 0.149995 141.28 0.199995 141.83C0.249995 142.39 0.350002 143.29 0.410002 143.82C0.480002 144.36 0.609997 145.28 0.709997 145.86C0.799997 146.43 0.969995 147.38 1.08999 147.96C1.20999 148.54 1.45 149.58 1.62 150.27C1.8 150.95 2.04 151.85 2.16 152.26C2.28 152.67 2.56 153.56 2.79 154.25C3.02 154.93 3.41 156 3.65 156.62C3.89 157.24 4.25 158.12 4.45 158.58C4.65 159.04 5.12999 160.05 5.51999 160.84C5.89999 161.62 6.46 162.7 6.76 163.24C7.07 163.78 7.57 164.64 7.88 165.14C8.19 165.65 8.77 166.56 9.18 167.16C9.59 167.77 10.23 168.68 10.61 169.18C10.98 169.69 11.51 170.37 11.77 170.7C12.03 171.02 12.46 171.54 12.72 171.85C12.98 172.16 13.55 172.8 13.97 173.28C14.4 173.75 15.22 174.6 15.79 175.18C16.36 175.75 17.22 176.57 17.69 177C18.16 177.42 18.9 178.06 19.33 178.42C19.75 178.78 20.45 179.34 20.87 179.67C21.29 179.99 21.97 180.5 22.38 180.8C22.79 181.09 23.56 181.63 24.1 181.99C24.64 182.35 25.47 182.88 25.93 183.16C26.4 183.44 27.12 183.87 27.53 184.09C27.94 184.32 28.75 184.76 29.35 185.07C29.94 185.38 30.81 185.8 31.29 186.02C31.76 186.24 32.56 186.59 33.07 186.8C33.57 187.01 34.47 187.37 35.06 187.59C35.65 187.81 36.58 188.14 37.14 188.32C37.69 188.5 38.57 188.77 39.1 188.92C39.62 189.07 40.43 189.29 40.91 189.4C41.38 189.52 42.27 189.73 42.89 189.86C43.51 189.98 44.49 190.17 45.06 190.26C45.63 190.36 46.55 190.49 47.08 190.55C47.62 190.62 48.5 190.72 49.04 190.77C49.58 190.81 50.61 190.89 51.33 190.92C52.15 190.97 53.42 190.98 54.71 190.96C55.86 190.94 57.31 190.88 57.95 190.83C58.58 190.78 59.55 190.69 60.1 190.62C60.65 190.56 61.53 190.44 62.06 190.36C62.59 190.27 63.31 190.16 63.65 190.09C64 190.03 64.73 189.88 65.29 189.76C65.84 189.64 66.71 189.43 67.21 189.3C67.72 189.17 68.63 188.92 69.23 188.74C69.83 188.56 70.79 188.25 71.37 188.06C71.94 187.86 72.99 187.47 73.69 187.19C74.39 186.91 75.43 186.47 76 186.21C76.58 185.95 77.41 185.55 77.86 185.33C78.31 185.1 79.1 184.69 79.62 184.4C80.13 184.12 80.98 183.64 81.5 183.32C82.02 183.01 83.01 182.38 83.7 181.92C84.38 181.46 85.41 180.74 85.99 180.31C86.56 179.88 87.43 179.2 87.92 178.8C88.4 178.4 89.12 177.79 89.52 177.44C89.91 177.1 90.93 176.12 91.78 175.27C92.63 174.42 93.59 173.44 93.9 173.08C94.22 172.73 94.79 172.06 95.17 171.6C95.56 171.13 96.14 170.42 96.45 170.01C96.77 169.61 97.31 168.88 97.64 168.41C97.98 167.94 98.47 167.23 98.73 166.84C98.99 166.44 99.46 165.71 99.77 165.2C100.08 164.7 100.6 163.8 100.93 163.21C101.26 162.62 101.75 161.7 102.02 161.17C102.28 160.63 102.73 159.68 103.01 159.06C103.29 158.44 103.71 157.43 103.95 156.83C104.19 156.23 104.49 155.41 104.63 155.02C104.76 154.63 105 153.93 105.14 153.47C105.29 153.02 105.53 152.22 105.67 151.71C105.82 151.19 106.04 150.34 106.17 149.81C106.3 149.28 106.48 148.45 106.58 147.98C106.68 147.51 106.84 146.64 106.94 146.05C107.04 145.46 107.18 144.57 107.24 144.06C107.31 143.55 107.4 142.7 107.44 142.16C107.49 141.62 107.55 140.97 107.57 140.72C107.59 140.47 107.64 140.26 107.67 140.26C107.71 140.26 107.71 134.78 107.68 123.95L107.64 107.64L123.95 107.67C133.7 107.69 140.27 107.68 140.3 107.65C140.33 107.62 140.85 107.55 141.45 107.51C142.05 107.46 143.08 107.35 143.74 107.27C144.39 107.19 145.48 107.03 146.14 106.92C146.81 106.81 147.81 106.62 148.37 106.5C148.92 106.38 149.75 106.19 150.2 106.08C150.66 105.96 151.53 105.73 152.13 105.55C152.74 105.37 153.7 105.07 154.28 104.87C154.85 104.68 155.58 104.42 155.91 104.3C156.23 104.19 156.92 103.91 157.44 103.7C157.96 103.49 158.8 103.13 159.31 102.9C159.82 102.66 160.66 102.27 161.16 102.02C161.67 101.76 162.47 101.34 162.95 101.08C163.42 100.82 164.24 100.35 164.77 100.04C165.3 99.72 166.3 99.08 166.99 98.62C167.68 98.16 168.74 97.41 169.34 96.96C169.94 96.51 170.88 95.77 171.42 95.33C171.95 94.88 172.84 94.11 173.39 93.62C173.93 93.12 174.93 92.15 175.6 91.47C176.27 90.79 177.15 89.84 177.56 89.37C177.98 88.89 178.59 88.17 178.92 87.76C179.26 87.35 179.87 86.57 180.29 86.01C180.7 85.46 181.35 84.55 181.72 83.99C182.1 83.44 182.61 82.66 182.86 82.26C183.11 81.86 183.56 81.11 183.86 80.59C184.16 80.08 184.69 79.1 185.04 78.41C185.39 77.72 185.9 76.68 186.17 76.09C186.44 75.51 186.87 74.48 187.14 73.81C187.41 73.14 187.81 72.07 188.03 71.43C188.25 70.79 188.56 69.83 188.73 69.29C188.89 68.75 189.18 67.69 189.37 66.92C189.56 66.15 189.8 65.12 189.9 64.63C190 64.14 190.15 63.34 190.23 62.85C190.31 62.36 190.43 61.57 190.5 61.1C190.56 60.62 190.66 59.84 190.71 59.35C190.75 58.86 190.82 58.1 190.86 57.65C190.89 57.21 190.94 55.88 190.96 54.69C190.98 53.32 190.97 52.05 190.92 51.24C190.88 50.54 190.81 49.52 190.77 48.98C190.72 48.45 190.62 47.58 190.56 47.05C190.49 46.53 190.37 45.7 190.29 45.21C190.21 44.72 190.08 44.03 190.02 43.67C189.95 43.31 189.78 42.49 189.63 41.86C189.49 41.22 189.23 40.2 189.07 39.6C188.91 39 188.52 37.75 188.22 36.84C187.91 35.93 187.44 34.63 187.18 33.97C186.91 33.3 186.49 32.32 186.25 31.77C186 31.23 185.52 30.23 185.18 29.56C184.84 28.89 184.28 27.84 183.92 27.22C183.56 26.6 182.99 25.64 182.63 25.08C182.28 24.52 181.82 23.82 181.6 23.51C181.39 23.2 181 22.65 180.74 22.29C180.48 21.93 180 21.29 179.67 20.86C179.34 20.44 178.79 19.76 178.45 19.35C178.11 18.94 177.48 18.22 177.05 17.75C176.63 17.27 175.76 16.36 175.12 15.73C174.48 15.09 173.58 14.23 173.12 13.82C172.66 13.41 171.98 12.82 171.61 12.51C171.23 12.2 170.62 11.7 170.25 11.41C169.87 11.12 169.2 10.61 168.76 10.29C168.32 9.97001 167.5 9.39001 166.92 9.01001C166.35 8.63001 165.5 8.08999 165.02 7.79999C164.55 7.50999 163.76 7.05 163.27 6.78C162.78 6.5 161.78 5.97999 161.04 5.60999C160.31 5.23999 159.32 4.77001 158.85 4.57001C158.37 4.36001 157.57 4.02001 157.07 3.82001C156.56 3.62001 155.61 3.26 154.96 3.03C154.3 2.8 153.32 2.48 152.76 2.31C152.2 2.14 151.14 1.83999 150.38 1.64999C149.63 1.45999 148.42 1.18001 147.68 1.04001C146.95 0.890009 145.89 0.699995 145.34 0.619995C144.78 0.529995 143.87 0.410006 143.32 0.350006C142.76 0.290006 141.96 0.210013 141.54 0.170013C141.11 0.140013 140.26 0.0799878 139.64 0.0499878C139.02 0.0199878 137.81 0 136.96 0V0ZM137.68 6.38C138.69 6.39 139.91 6.42999 140.38 6.45999C140.85 6.49999 141.72 6.58001 142.31 6.64001C142.9 6.71001 143.82 6.83 144.36 6.91C144.9 7 145.82 7.15999 146.41 7.26999C147 7.38999 148.01 7.62 148.65 7.78C149.3 7.94 150.31 8.22001 150.89 8.39001C151.48 8.57001 152.37 8.86999 152.89 9.04999C153.4 9.22999 154.22 9.54001 154.7 9.73001C155.19 9.93001 155.97 10.26 156.44 10.47C156.91 10.68 157.78 11.1 158.38 11.4C158.98 11.7 159.71 12.08 160.01 12.24C160.3 12.4 160.93 12.77 161.4 13.05C161.88 13.33 162.79 13.91 163.43 14.33C164.07 14.76 165.05 15.46 165.62 15.89C166.19 16.32 167 16.95 167.41 17.29C167.82 17.64 168.57 18.29 169.07 18.75C169.57 19.2 170.48 20.08 171.08 20.7C171.69 21.31 172.58 22.28 173.07 22.86C173.56 23.43 174.23 24.24 174.56 24.67C174.89 25.09 175.38 25.73 175.64 26.09C175.9 26.45 176.32 27.07 176.59 27.46C176.85 27.85 177.26 28.49 177.51 28.88C177.75 29.27 178.18 30 178.47 30.5C178.76 31 179.27 31.97 179.61 32.65C179.95 33.33 180.39 34.25 180.58 34.69C180.78 35.13 181.11 35.93 181.32 36.47C181.53 37.01 181.87 37.92 182.07 38.51C182.27 39.09 182.6 40.16 182.81 40.88C183.02 41.6 183.31 42.73 183.46 43.4C183.61 44.07 183.8 45.01 183.88 45.48C183.96 45.95 184.09 46.8 184.17 47.38C184.25 47.95 184.36 48.87 184.41 49.43C184.46 49.98 184.53 50.95 184.56 51.57C184.59 52.19 184.62 53.22 184.62 53.85C184.62 54.49 184.6 55.52 184.56 56.14C184.53 56.76 184.48 57.59 184.44 57.98C184.41 58.37 184.33 59.14 184.26 59.67C184.19 60.21 184.09 60.99 184.02 61.39C183.96 61.8 183.81 62.6 183.7 63.16C183.59 63.72 183.4 64.57 183.28 65.06C183.17 65.54 182.92 66.43 182.75 67.04C182.58 67.64 182.27 68.62 182.07 69.21C181.87 69.79 181.53 70.7 181.32 71.22C181.12 71.75 180.78 72.56 180.57 73.04C180.36 73.51 179.94 74.39 179.63 74.99C179.33 75.6 178.88 76.45 178.64 76.89C178.39 77.34 177.94 78.11 177.63 78.62C177.32 79.12 176.81 79.91 176.5 80.37C176.19 80.83 175.6 81.66 175.18 82.21C174.77 82.77 174.15 83.55 173.81 83.96C173.48 84.37 172.89 85.05 172.51 85.48C172.14 85.9 171.35 86.73 170.76 87.32C170.17 87.91 169.37 88.68 168.99 89.03C168.61 89.37 167.95 89.94 167.54 90.29C167.12 90.64 166.26 91.31 165.62 91.79C164.98 92.27 164.14 92.88 163.75 93.14C163.36 93.41 162.68 93.85 162.23 94.13C161.79 94.4 161.02 94.87 160.51 95.16C160.01 95.45 159.04 95.96 158.37 96.29C157.7 96.62 156.78 97.06 156.32 97.27C155.87 97.47 155 97.83 154.39 98.07C153.79 98.31 152.81 98.66 152.21 98.86C151.61 99.06 150.67 99.36 150.1 99.52C149.54 99.68 148.56 99.93 147.92 100.08C147.29 100.23 146.39 100.42 145.93 100.5C145.47 100.59 144.67 100.72 144.15 100.8C143.63 100.88 142.67 101 142.03 101.06C141.38 101.13 140.74 101.18 140.59 101.18H140.32V89.56L140.81 89.52C141.08 89.5 141.76 89.41 142.32 89.33C142.88 89.25 143.69 89.12 144.1 89.04C144.52 88.95 145.29 88.78 145.81 88.65C146.34 88.52 147.16 88.29 147.65 88.14C148.14 87.99 148.95 87.72 149.44 87.54C149.93 87.36 150.68 87.06 151.1 86.89C151.52 86.71 152.33 86.34 152.88 86.07C153.44 85.79 154.3 85.33 154.81 85.04C155.32 84.76 156.03 84.33 156.4 84.1C156.76 83.86 157.43 83.42 157.87 83.1C158.31 82.79 159.01 82.26 159.41 81.94C159.82 81.61 160.48 81.06 160.88 80.71C161.28 80.36 162.01 79.67 162.5 79.18C162.99 78.69 163.66 77.98 163.99 77.61C164.32 77.23 164.89 76.56 165.25 76.11C165.61 75.66 166.17 74.91 166.49 74.45C166.81 73.98 167.24 73.35 167.44 73.04C167.64 72.72 168.01 72.11 168.26 71.67C168.52 71.23 168.96 70.4 169.25 69.82C169.54 69.24 169.94 68.39 170.14 67.92C170.34 67.45 170.62 66.76 170.76 66.38C170.9 66.01 171.15 65.27 171.32 64.75C171.49 64.23 171.74 63.35 171.88 62.79C172.02 62.24 172.22 61.38 172.32 60.89C172.42 60.4 172.55 59.63 172.62 59.17C172.69 58.71 172.78 57.94 172.83 57.46C172.88 56.98 172.95 55.98 172.98 55.24C173.02 54.38 173.02 53.39 172.98 52.51C172.95 51.75 172.88 50.73 172.83 50.25C172.78 49.77 172.69 49 172.62 48.56C172.56 48.11 172.42 47.34 172.32 46.84C172.22 46.34 172.03 45.47 171.88 44.91C171.74 44.36 171.45 43.37 171.24 42.71C171.02 42.05 170.68 41.09 170.47 40.57C170.26 40.06 169.91 39.24 169.69 38.77C169.47 38.3 169.08 37.51 168.81 37.02C168.55 36.53 168.13 35.79 167.89 35.38C167.64 34.98 167.2 34.28 166.9 33.84C166.6 33.4 166.16 32.77 165.91 32.44C165.67 32.12 165.21 31.53 164.89 31.14C164.57 30.75 164 30.1 163.63 29.69C163.26 29.28 162.62 28.61 162.2 28.2C161.78 27.79 161.11 27.17 160.72 26.83C160.33 26.49 159.65 25.92 159.21 25.58C158.76 25.23 158 24.67 157.5 24.33C157.01 23.98 156.26 23.49 155.84 23.24C155.42 22.98 154.74 22.59 154.34 22.37C153.93 22.14 153.26 21.79 152.85 21.6C152.44 21.4 151.87 21.13 151.57 21C151.28 20.87 150.71 20.63 150.3 20.47C149.89 20.3 149.17 20.04 148.7 19.88C148.24 19.72 147.43 19.47 146.92 19.32C146.41 19.18 145.56 18.96 145.04 18.84C144.52 18.72 143.64 18.55 143.08 18.46C142.53 18.37 141.7 18.25 141.24 18.2C140.78 18.14 140.05 18.08 139.61 18.04C139.17 18.01 138.06 17.98 137.14 17.98C136.23 17.98 135.11 18.01 134.65 18.04C134.19 18.08 133.46 18.14 133.02 18.2C132.57 18.25 131.8 18.35 131.29 18.44C130.79 18.52 129.9 18.69 129.32 18.82C128.74 18.95 127.89 19.16 127.42 19.29C126.95 19.43 126.17 19.67 125.68 19.83C125.19 20 124.39 20.29 123.91 20.49C123.42 20.68 122.6 21.04 122.07 21.28C121.55 21.52 120.72 21.94 120.23 22.2C119.74 22.47 119.07 22.84 118.74 23.04C118.41 23.24 117.74 23.67 117.25 24C116.76 24.32 116 24.87 115.56 25.2C115.12 25.54 114.41 26.1 113.98 26.46C113.56 26.81 112.73 27.57 112.15 28.14C111.56 28.71 110.8 29.5 110.45 29.89C110.1 30.28 109.63 30.83 109.4 31.11C109.17 31.38 108.74 31.94 108.44 32.34C108.14 32.74 107.64 33.44 107.32 33.91C107.01 34.38 106.54 35.12 106.28 35.56C106.01 36 105.5 36.95 105.13 37.67C104.77 38.39 104.3 39.38 104.1 39.86C103.89 40.35 103.6 41.1 103.44 41.53C103.28 41.96 103.03 42.7 102.88 43.19C102.73 43.67 102.52 44.42 102.4 44.86C102.29 45.3 102.1 46.11 101.99 46.67C101.87 47.23 101.71 48.14 101.63 48.7C101.55 49.26 101.47 49.93 101.45 50.19L101.41 50.65H89.77L89.81 50.1C89.83 49.8 89.9 49.07 89.97 48.48C90.03 47.89 90.18 46.83 90.29 46.13C90.41 45.43 90.59 44.43 90.71 43.92C90.82 43.4 90.99 42.65 91.09 42.25C91.19 41.86 91.42 41.03 91.6 40.41C91.78 39.79 92.1 38.8 92.3 38.21C92.51 37.62 92.86 36.7 93.07 36.17C93.29 35.64 93.65 34.79 93.88 34.28C94.11 33.77 94.45 33.06 94.63 32.7C94.81 32.33 95.15 31.68 95.38 31.26C95.61 30.83 96.04 30.08 96.33 29.59C96.62 29.1 97.19 28.21 97.59 27.6C97.99 27 98.61 26.12 98.96 25.64C99.31 25.17 99.88 24.44 100.23 24.01C100.57 23.59 101.12 22.93 101.45 22.56C101.78 22.18 102.43 21.47 102.91 20.98C103.38 20.49 104.08 19.8 104.45 19.44C104.83 19.08 105.44 18.52 105.82 18.19C106.19 17.86 106.81 17.33 107.2 17.02C107.58 16.7 108.3 16.14 108.8 15.77C109.3 15.4 110.04 14.87 110.45 14.59C110.86 14.31 111.5 13.89 111.88 13.65C112.25 13.41 113.06 12.92 113.69 12.57C114.31 12.21 115.4 11.63 116.12 11.28C116.84 10.92 117.75 10.49 118.14 10.32C118.53 10.15 119.25 9.86 119.73 9.66C120.21 9.47 121.15 9.12999 121.83 8.89999C122.5 8.66999 123.56 8.34 124.19 8.16C124.81 7.98 125.73 7.74 126.22 7.63C126.71 7.51 127.44 7.34999 127.85 7.26999C128.26 7.18999 128.91 7.07 129.3 7C129.7 6.94 130.42 6.82999 130.91 6.76999C131.4 6.69999 132.27 6.60999 132.84 6.54999C133.41 6.49999 134.32 6.42999 134.86 6.39999C135.4 6.37999 136.67 6.36 137.68 6.38V6.38ZM253.78 6.89001C241.31 6.89001 234.18 11.49 230.3 15.36C225.83 19.96 223.41 25.89 223.41 32.18C223.53 48.75 240.23 53.71 251.36 57.71C263.7 62.18 269.39 65.45 269.39 70.53C269.39 74.77 266.84 77.79 263.46 79.37C259.1 81.42 254.63 79.97 250.51 79.73C246.52 79.49 243.13 82.27 243.13 87.35C243.13 93.52 251.6 95.94 257.89 95.94C277.13 95.94 285.48 83.48 285.48 71.5C285.48 56.62 271.81 50.08 256.32 44.16C243.74 39.32 239.5 36.05 239.5 32.18C239.5 26.25 245.19 22.01 253.29 22.01C262.61 22.01 267.69 27.1 269.87 29.03C272.9 31.69 277.25 32.06 280.15 28.43C282.33 25.64 282.7 21.77 280.52 18.87C277.37 14.39 267.93 6.89001 253.78 6.89001V6.89001ZM692.71 6.89001C668.15 6.89001 648.19 26.73 648.19 51.42C648.19 75.98 668.15 95.94 692.71 95.94C703.24 95.94 715.34 92.19 723.33 86.5C724.9 85.41 726.11 84.32 726.84 82.87C727.68 81.06 727.68 79.37 727.68 77.19V58.19C727.68 53.84 724.17 50.21 719.7 50.21C715.22 50.21 711.71 53.84 711.71 58.19V74.89C706.39 77.91 699.01 79.85 692.71 79.85C676.99 79.85 664.28 67.15 664.28 51.42C664.28 35.69 676.99 22.98 692.71 22.98C700.34 22.98 706.27 25.52 711.35 28.06C715.22 30.12 720.06 30.6 722.48 27.22C725.02 23.59 724.78 18.75 721.39 15.96C712.2 8.45999 700.82 6.89001 692.71 6.89001V6.89001ZM393.07 9.06C391.72 9.04 390.45 9.40001 389.32 10.04C385.45 12.09 385.08 15.72 385.08 18.75V85.78C385.08 90.13 388.71 93.76 393.07 93.76C397.55 93.76 401.18 90.13 401.18 85.78V37.86L443.16 89.29C444.49 90.86 445.46 91.95 447.28 92.92C450.66 94.61 453.69 93.52 455.62 92.07C458.04 90.01 458.65 87.59 458.65 84.81V41.01C458.65 36.65 455.02 33.02 450.54 33.02C446.19 33.02 442.56 36.65 442.56 41.13V65.09L400.09 12.94C397.74 10.22 395.3 9.1 393.07 9.06V9.06ZM356.48 9.07001C352 9.07001 348.49 12.7 348.49 17.05C348.49 21.53 352 25.16 356.48 25.16C360.96 25.16 364.46 21.53 364.46 17.05C364.46 12.7 360.96 9.07001 356.48 9.07001ZM450.66 9.07001C446.19 9.07001 442.56 12.58 442.56 17.05C442.56 21.53 446.19 25.04 450.66 25.04C455.02 25.04 458.65 21.53 458.65 17.05C458.65 12.58 455.02 9.07001 450.66 9.07001ZM492.67 9.07001C488.31 9.07001 484.68 12.7 484.68 17.05V85.78C484.68 90.13 488.31 93.76 492.67 93.76H533.81C538.28 93.76 541.79 90.13 541.79 85.78C541.79 81.3 538.28 77.67 533.81 77.67H500.78V59.04H528.85C533.32 59.04 536.83 55.77 536.83 51.42C536.83 46.94 533.32 43.67 528.85 43.67H500.78V25.16H509.37C513.72 25.16 517.35 21.53 517.35 17.05C517.35 12.7 513.72 9.07001 509.37 9.07001H492.67ZM533.44 9.07001C528.97 9.07001 525.34 12.7 525.34 17.05C525.34 21.53 528.97 25.16 533.44 25.16C537.8 25.16 541.43 21.53 541.43 17.05C541.43 12.7 537.8 9.07001 533.44 9.07001ZM573.36 9.07001C569.01 9.07001 565.38 12.7 565.38 17.05V85.78C565.38 90.13 569.01 93.76 573.36 93.76C577.84 93.76 581.47 90.13 581.47 85.78V64H599.01L602.64 69.81C604.94 73.56 609.9 74.65 613.65 72.23C621.03 67.51 615.11 59.76 615.11 59.76C623.45 55.04 627.93 46.45 627.93 36.05C627.93 19.59 616.68 9.07001 599.38 9.07001H573.36V9.07001ZM802.01 9.07001C797.54 9.07001 794.03 12.7 794.03 17.05C794.03 21.53 797.54 25.16 802.01 25.16C806.49 25.16 810 21.53 810 17.05C810 12.7 806.49 9.07001 802.01 9.07001ZM305.23 9.07999C303.69 9.02999 302.11 9.42 300.7 10.28C296.95 12.7 295.86 17.66 298.16 21.41L322.84 60.13L322.72 85.78C322.72 90.13 326.35 93.76 330.83 93.76C335.19 93.76 338.81 90.13 338.81 85.78V59.88L350.31 41.86C352.73 38.11 351.64 33.14 347.89 30.72C344.14 28.43 339.18 29.51 336.76 33.27L330.71 42.82L311.71 12.82C310.28 10.47 307.8 9.16999 305.23 9.07999V9.07999ZM750.76 9.07999C749.22 9.02999 747.64 9.42 746.24 10.28C742.49 12.7 741.4 17.66 743.7 21.41L768.38 60.13L768.26 85.78C768.26 90.13 771.89 93.76 776.36 93.76C780.72 93.76 784.35 90.13 784.35 85.78V59.88L795.84 41.86C798.26 38.11 797.17 33.14 793.42 30.72C789.67 28.43 784.71 29.51 782.29 33.27L776.24 42.82L757.25 12.82C755.81 10.47 753.33 9.16999 750.76 9.07999V9.07999ZM137.44 24.37C138.59 24.38 139.55 24.42 140.14 24.48C140.65 24.54 141.53 24.66 142.1 24.76C142.67 24.86 143.63 25.06 144.23 25.2C144.83 25.35 145.75 25.61 146.28 25.79C146.81 25.96 147.57 26.24 147.98 26.4C148.39 26.57 149.1 26.88 149.57 27.09C150.03 27.3 150.8 27.69 151.28 27.96C151.76 28.22 152.47 28.64 152.86 28.89C153.26 29.14 153.87 29.56 154.24 29.82C154.6 30.08 155.15 30.49 155.46 30.74C155.77 30.99 156.31 31.44 156.65 31.74C157 32.04 157.7 32.72 158.23 33.25C158.75 33.79 159.43 34.53 159.74 34.91C160.06 35.29 160.51 35.86 160.76 36.19C161 36.51 161.42 37.1 161.68 37.49C161.94 37.88 162.33 38.5 162.54 38.86C162.75 39.22 163.09 39.82 163.29 40.2C163.49 40.57 163.8 41.21 163.99 41.62C164.17 42.03 164.43 42.63 164.56 42.96C164.69 43.28 164.91 43.88 165.05 44.29C165.19 44.71 165.41 45.38 165.52 45.79C165.64 46.2 165.81 46.88 165.91 47.3C166.01 47.72 166.15 48.46 166.23 48.95C166.32 49.44 166.43 50.25 166.49 50.74C166.57 51.44 166.6 52.09 166.6 53.85C166.6 55.62 166.57 56.26 166.49 56.97C166.43 57.46 166.31 58.26 166.23 58.75C166.15 59.24 166.01 59.99 165.91 60.41C165.81 60.83 165.64 61.51 165.52 61.92C165.4 62.33 165.18 63.06 165.01 63.52C164.85 63.99 164.57 64.73 164.39 65.16C164.21 65.59 163.87 66.34 163.63 66.83C163.39 67.32 163 68.05 162.76 68.46C162.53 68.87 162.09 69.58 161.79 70.04C161.49 70.49 161.02 71.16 160.75 71.52C160.48 71.88 160 72.48 159.69 72.86C159.37 73.23 158.61 74.05 157.99 74.67C157.37 75.29 156.53 76.08 156.12 76.42C155.71 76.75 155.09 77.25 154.72 77.52C154.36 77.79 153.72 78.24 153.3 78.51C152.87 78.79 152.17 79.23 151.73 79.47C151.3 79.72 150.68 80.06 150.37 80.21C150.05 80.37 149.44 80.66 149.02 80.85C148.59 81.03 147.87 81.33 147.41 81.5C146.95 81.67 146.22 81.92 145.78 82.05C145.34 82.19 144.54 82.4 144 82.53C143.46 82.66 142.64 82.84 142.16 82.92C141.69 83 140.94 83.11 140.5 83.16C140.06 83.21 139.18 83.28 138.54 83.31C137.7 83.36 133.3 83.37 122.54 83.34C114.37 83.32 107.69 83.3 107.68 83.29C107.67 83.28 107.66 76.31 107.66 67.81C107.65 57.02 107.67 52.1 107.71 51.57C107.75 51.14 107.81 50.57 107.84 50.29C107.88 50.01 107.98 49.33 108.08 48.76C108.17 48.2 108.38 47.25 108.53 46.65C108.68 46.06 108.95 45.1 109.14 44.53C109.33 43.96 109.66 43.07 109.88 42.56C110.09 42.05 110.47 41.22 110.72 40.72C110.97 40.22 111.34 39.53 111.53 39.19C111.73 38.84 112.14 38.18 112.44 37.72C112.75 37.25 113.19 36.61 113.43 36.3C113.66 35.98 114.05 35.48 114.29 35.18C114.54 34.89 115.05 34.29 115.44 33.86C115.83 33.43 116.45 32.8 116.82 32.46C117.19 32.12 117.73 31.64 118.02 31.38C118.31 31.13 118.92 30.64 119.37 30.3C119.81 29.97 120.52 29.47 120.94 29.19C121.36 28.91 122.06 28.48 122.5 28.22C122.94 27.97 123.76 27.54 124.31 27.27C124.87 27.01 125.72 26.63 126.21 26.43C126.7 26.23 127.48 25.95 127.94 25.8C128.39 25.66 129.01 25.47 129.3 25.39C129.6 25.31 130.2 25.16 130.64 25.06C131.09 24.96 131.83 24.81 132.3 24.73C132.78 24.65 133.59 24.54 134.11 24.49C134.64 24.44 135.2 24.39 135.36 24.37C135.52 24.36 136.46 24.36 137.44 24.37V24.37ZM581.47 24.68H599.38C607.73 24.68 611.84 29.64 611.84 37.02C611.84 43.79 608.57 50.08 599.01 50.08H581.47V24.68ZM695.74 50.21C691.26 50.21 687.63 53.84 687.63 58.19C687.63 62.67 691.26 66.3 695.74 66.3C700.1 66.3 703.72 62.67 703.72 58.19C703.72 53.84 700.1 50.21 695.74 50.21ZM229.94 68.72C225.59 68.72 221.96 72.23 221.96 76.7C221.96 81.18 225.59 84.69 229.94 84.69C234.42 84.69 238.05 81.18 238.05 76.7C238.05 72.23 234.42 68.72 229.94 68.72ZM622.49 77.55C618.13 77.55 614.5 81.18 614.5 85.66C614.5 90.01 618.13 93.64 622.49 93.64C626.96 93.64 630.47 90.01 630.47 85.66C630.47 81.18 626.96 77.55 622.49 77.55ZM50.65 89.78V101.4L50.19 101.45C49.93 101.47 49.27 101.55 48.72 101.63C48.16 101.71 47.29 101.86 46.79 101.96C46.28 102.06 45.47 102.25 44.97 102.37C44.48 102.5 43.68 102.73 43.19 102.88C42.7 103.03 41.85 103.32 41.29 103.53C40.73 103.74 39.85 104.1 39.33 104.33C38.81 104.56 37.92 104.99 37.36 105.28C36.79 105.58 35.92 106.06 35.43 106.36C34.93 106.66 34.19 107.13 33.78 107.4C33.37 107.68 32.73 108.14 32.36 108.42C31.98 108.7 31.27 109.26 30.78 109.67C30.29 110.08 29.28 111.03 28.52 111.78C27.77 112.53 26.85 113.51 26.48 113.95C26.11 114.39 25.49 115.18 25.1 115.69C24.71 116.21 24.17 116.97 23.9 117.38C23.63 117.8 23.24 118.41 23.04 118.74C22.85 119.07 22.47 119.74 22.2 120.23C21.94 120.72 21.53 121.55 21.29 122.06C21.05 122.58 20.67 123.45 20.46 123.99C20.24 124.53 19.94 125.38 19.77 125.87C19.61 126.37 19.37 127.17 19.23 127.65C19.1 128.14 18.9 128.96 18.79 129.48C18.67 130.01 18.52 130.85 18.43 131.35C18.35 131.86 18.25 132.62 18.2 133.04C18.15 133.47 18.08 134.27 18.04 134.83C18 135.47 17.98 136.55 18 137.79C18.02 138.93 18.07 140.12 18.13 140.62C18.18 141.09 18.28 141.85 18.35 142.31C18.41 142.77 18.55 143.55 18.65 144.06C18.74 144.57 18.9 145.3 19 145.69C19.1 146.09 19.3 146.82 19.45 147.33C19.6 147.83 19.89 148.72 20.1 149.3C20.31 149.88 20.66 150.76 20.87 151.26C21.09 151.76 21.53 152.69 21.85 153.32C22.17 153.96 22.67 154.87 22.95 155.34C23.23 155.82 23.7 156.56 24 157.01C24.29 157.45 24.79 158.16 25.11 158.58C25.43 159 25.97 159.69 26.31 160.1C26.65 160.5 27.27 161.21 27.7 161.66C28.12 162.11 28.85 162.84 29.32 163.28C29.79 163.72 30.47 164.33 30.84 164.64C31.21 164.95 31.9 165.49 32.37 165.84C32.84 166.2 33.61 166.74 34.08 167.05C34.55 167.37 35.31 167.84 35.77 168.11C36.23 168.38 37.23 168.91 38 169.29C38.77 169.67 39.88 170.18 40.46 170.41C41.05 170.65 41.85 170.95 42.24 171.08C42.64 171.22 43.37 171.44 43.87 171.59C44.37 171.73 45.24 171.96 45.81 172.09C46.38 172.23 47.31 172.41 47.87 172.51C48.44 172.6 49.27 172.72 49.73 172.77C50.18 172.82 50.92 172.89 51.36 172.92C51.8 172.96 52.94 172.99 53.88 172.99C54.91 172.99 56.06 172.95 56.73 172.89C57.35 172.84 58.33 172.73 58.9 172.65C59.47 172.57 60.46 172.4 61.1 172.27C61.74 172.14 62.65 171.93 63.13 171.79C63.61 171.66 64.43 171.42 64.94 171.25C65.46 171.09 66.31 170.78 66.83 170.58C67.35 170.37 68.03 170.09 68.34 169.96C68.65 169.82 69.38 169.47 69.95 169.19C70.52 168.9 71.39 168.43 71.88 168.14C72.37 167.86 73.17 167.35 73.66 167.03C74.15 166.7 74.9 166.17 75.32 165.86C75.75 165.54 76.39 165.03 76.75 164.73C77.11 164.43 77.8 163.82 78.28 163.38C78.76 162.94 79.54 162.16 80.01 161.65C80.48 161.14 81.11 160.42 81.41 160.06C81.71 159.71 82.22 159.07 82.54 158.64C82.86 158.22 83.35 157.53 83.62 157.11C83.9 156.7 84.35 156 84.61 155.57C84.86 155.13 85.26 154.45 85.48 154.04C85.7 153.63 86.03 152.99 86.21 152.61C86.38 152.24 86.68 151.57 86.87 151.12C87.06 150.68 87.4 149.83 87.61 149.24C87.83 148.65 88.15 147.66 88.32 147.05C88.5 146.43 88.74 145.5 88.85 144.98C88.97 144.46 89.13 143.62 89.22 143.11C89.3 142.6 89.42 141.78 89.48 141.27L89.58 140.35L95.4 140.33L101.22 140.32L101.2 140.57C101.19 140.71 101.14 141.25 101.09 141.77C101.04 142.3 100.93 143.21 100.85 143.79C100.77 144.38 100.61 145.36 100.5 145.96C100.38 146.56 100.16 147.6 100 148.25C99.84 148.91 99.6 149.83 99.46 150.3C99.33 150.77 99.06 151.63 98.87 152.21C98.67 152.78 98.32 153.76 98.08 154.37C97.83 154.99 97.47 155.86 97.28 156.3C97.08 156.74 96.64 157.67 96.29 158.36C95.95 159.05 95.41 160.06 95.1 160.61C94.78 161.16 94.23 162.06 93.88 162.62C93.53 163.17 92.96 164.02 92.62 164.49C92.29 164.97 91.74 165.7 91.42 166.12C91.09 166.55 90.51 167.27 90.12 167.72C89.73 168.18 88.98 169.02 88.45 169.6C87.92 170.17 87.1 171 86.63 171.44C86.16 171.88 85.51 172.49 85.18 172.78C84.85 173.07 84.18 173.63 83.69 174.03C83.2 174.42 82.45 175.01 82 175.34C81.56 175.66 80.87 176.16 80.46 176.44C80.05 176.71 79.33 177.18 78.86 177.48C78.38 177.77 77.55 178.26 77.02 178.57C76.48 178.87 75.42 179.42 74.67 179.79C73.92 180.16 72.92 180.62 72.44 180.82C71.97 181.03 71.1 181.37 70.51 181.59C69.92 181.81 69.07 182.12 68.61 182.27C68.15 182.42 67.4 182.65 66.94 182.78C66.48 182.91 65.68 183.12 65.16 183.25C64.64 183.38 63.82 183.56 63.33 183.66C62.84 183.76 62.02 183.91 61.52 183.99C61.01 184.07 60.27 184.18 59.88 184.23C59.49 184.28 58.75 184.36 58.25 184.41C57.74 184.46 56.55 184.53 55.59 184.57C54.24 184.63 53.48 184.63 52.15 184.57C51.21 184.54 50.01 184.46 49.49 184.41C48.97 184.36 48.13 184.27 47.62 184.2C47.11 184.13 46.32 184.02 45.87 183.94C45.41 183.86 44.58 183.7 44.03 183.58C43.47 183.47 42.55 183.25 41.98 183.1C41.41 182.95 40.54 182.71 40.05 182.56C39.56 182.41 38.71 182.14 38.16 181.94C37.61 181.75 36.68 181.39 36.08 181.15C35.49 180.91 34.61 180.54 34.14 180.32C33.67 180.1 32.77 179.66 32.15 179.34C31.53 179.02 30.66 178.55 30.22 178.3C29.78 178.04 29.06 177.61 28.62 177.33C28.17 177.05 27.43 176.56 26.95 176.23C26.48 175.9 25.77 175.39 25.38 175.1C24.99 174.81 24.35 174.3 23.95 173.98C23.56 173.67 22.96 173.16 22.62 172.86C22.27 172.56 21.56 171.9 21.03 171.39C20.49 170.89 19.7 170.09 19.25 169.61C18.81 169.14 18.13 168.37 17.73 167.91C17.33 167.44 16.74 166.72 16.41 166.29C16.08 165.87 15.49 165.08 15.11 164.55C14.73 164.01 14.12 163.11 13.77 162.56C13.42 162 12.89 161.12 12.59 160.6C12.29 160.08 11.73 159.02 11.34 158.25C10.96 157.49 10.44 156.38 10.19 155.79C9.94 155.2 9.6 154.37 9.44 153.94C9.27 153.51 8.99 152.72 8.81 152.19C8.63 151.65 8.34 150.71 8.17 150.09C7.99 149.47 7.73 148.48 7.6 147.89C7.46 147.31 7.26 146.33 7.14 145.71C7.03 145.1 6.87 144.09 6.79 143.48C6.71 142.87 6.6 141.94 6.55 141.42C6.51 140.9 6.43 139.71 6.39 138.79C6.34 137.51 6.34 136.72 6.39 135.46C6.43 134.56 6.5 133.37 6.55 132.84C6.6 132.3 6.7 131.44 6.76 130.94C6.83 130.43 6.96 129.55 7.06 128.98C7.16 128.4 7.35 127.46 7.48 126.87C7.61 126.28 7.85 125.32 8.01 124.72C8.17 124.13 8.4 123.35 8.51 122.98C8.63 122.61 8.86 121.92 9.03 121.44C9.19 120.96 9.52 120.09 9.76 119.5C10 118.92 10.35 118.09 10.54 117.66C10.73 117.24 11.15 116.36 11.48 115.7C11.81 115.05 12.31 114.13 12.58 113.65C12.85 113.18 13.28 112.47 13.52 112.08C13.76 111.69 14.22 110.99 14.53 110.54C14.84 110.08 15.36 109.35 15.69 108.9C16.01 108.46 16.5 107.83 16.76 107.51C17.02 107.18 17.54 106.57 17.9 106.14C18.27 105.72 18.95 104.96 19.42 104.46C19.89 103.97 20.65 103.21 21.1 102.78C21.56 102.35 22.23 101.74 22.59 101.42C22.95 101.11 23.59 100.57 24.01 100.22C24.44 99.88 25.17 99.31 25.65 98.96C26.12 98.61 26.93 98.04 27.46 97.68C27.98 97.33 28.88 96.76 29.45 96.42C30.02 96.08 30.83 95.61 31.26 95.38C31.68 95.15 32.33 94.81 32.7 94.63C33.06 94.45 33.81 94.09 34.36 93.84C34.91 93.59 35.74 93.24 36.22 93.05C36.69 92.86 37.53 92.54 38.09 92.35C38.64 92.15 39.5 91.87 39.99 91.72C40.48 91.57 41.34 91.33 41.9 91.18C42.46 91.03 43.35 90.82 43.89 90.71C44.42 90.59 45.34 90.42 45.93 90.32C46.51 90.22 47.32 90.1 47.71 90.05C48.1 90 48.78 89.92 49.22 89.87C49.66 89.83 50.16 89.79 50.34 89.79L50.65 89.78V89.78ZM68.35 107.65C76.56 107.66 83.29 107.68 83.3 107.69C83.31 107.7 83.34 114.37 83.36 122.52C83.38 133.32 83.37 137.65 83.32 138.55C83.28 139.23 83.2 140.21 83.13 140.72C83.07 141.23 82.96 141.96 82.89 142.34C82.82 142.71 82.7 143.31 82.62 143.67C82.54 144.03 82.35 144.74 82.21 145.25C82.07 145.76 81.8 146.58 81.62 147.08C81.44 147.58 81.13 148.37 80.93 148.83C80.73 149.29 80.42 149.96 80.25 150.3C80.07 150.65 79.73 151.29 79.48 151.73C79.23 152.17 78.79 152.87 78.52 153.29C78.24 153.72 77.79 154.36 77.52 154.72C77.25 155.08 76.76 155.71 76.42 156.11C76.09 156.51 75.43 157.23 74.97 157.71C74.51 158.18 73.8 158.86 73.39 159.22C72.98 159.58 72.37 160.09 72.03 160.36C71.68 160.63 71.06 161.09 70.63 161.39C70.21 161.69 69.46 162.17 68.97 162.46C68.48 162.76 67.66 163.21 67.16 163.46C66.65 163.72 65.81 164.11 65.29 164.33C64.78 164.55 63.84 164.9 63.22 165.11C62.59 165.32 61.65 165.6 61.13 165.73C60.61 165.86 59.83 166.04 59.41 166.12C58.98 166.2 58.23 166.32 57.74 166.38C57.25 166.45 56.42 166.53 55.88 166.57C55.27 166.62 54.29 166.63 53.24 166.61C52.12 166.59 51.23 166.54 50.56 166.46C50 166.39 49.23 166.28 48.84 166.21C48.44 166.14 47.71 165.99 47.2 165.87C46.7 165.76 45.9 165.55 45.42 165.41C44.95 165.26 44.2 165.02 43.76 164.86C43.32 164.69 42.66 164.44 42.3 164.28C41.95 164.13 41.33 163.85 40.94 163.65C40.55 163.46 39.91 163.13 39.52 162.91C39.13 162.7 38.48 162.3 38.07 162.04C37.65 161.78 37.03 161.36 36.69 161.12C36.35 160.87 35.82 160.46 35.51 160.22C35.2 159.98 34.64 159.51 34.26 159.17C33.88 158.84 33.21 158.19 32.77 157.74C32.33 157.29 31.74 156.65 31.46 156.32C31.18 156 30.76 155.49 30.54 155.2C30.31 154.9 29.9 154.35 29.63 153.96C29.36 153.58 28.89 152.85 28.58 152.34C28.28 151.84 27.8 150.97 27.53 150.43C27.25 149.88 26.86 149.05 26.66 148.57C26.45 148.1 26.1 147.17 25.88 146.5C25.66 145.83 25.39 144.96 25.29 144.58C25.19 144.19 25.03 143.49 24.94 143.02C24.84 142.54 24.69 141.66 24.61 141.04C24.53 140.43 24.43 139.52 24.4 139.02C24.37 138.52 24.34 137.66 24.34 137.11C24.34 136.56 24.37 135.7 24.4 135.2C24.43 134.7 24.52 133.88 24.58 133.38C24.64 132.88 24.77 132.11 24.85 131.66C24.93 131.21 25.1 130.43 25.23 129.93C25.36 129.42 25.59 128.62 25.74 128.14C25.89 127.67 26.19 126.84 26.4 126.3C26.61 125.77 27.05 124.79 27.37 124.14C27.69 123.48 28.18 122.56 28.47 122.09C28.75 121.61 29.14 121 29.33 120.72C29.52 120.44 29.91 119.9 30.2 119.5C30.49 119.11 30.94 118.54 31.2 118.23C31.46 117.92 31.98 117.33 32.36 116.92C32.74 116.51 33.41 115.85 33.85 115.46C34.29 115.06 34.89 114.54 35.18 114.29C35.48 114.05 35.98 113.66 36.3 113.43C36.62 113.19 37.25 112.75 37.72 112.44C38.18 112.14 38.86 111.72 39.21 111.51C39.57 111.31 40.4 110.88 41.05 110.56C41.71 110.25 42.56 109.86 42.94 109.71C43.32 109.56 44.07 109.29 44.61 109.12C45.14 108.94 45.88 108.71 46.25 108.61C46.63 108.51 47.27 108.36 47.68 108.28C48.09 108.19 48.73 108.07 49.1 108.01C49.48 107.95 50.17 107.85 50.64 107.8C51.12 107.75 51.94 107.69 52.46 107.66C52.98 107.64 60.13 107.63 68.35 107.65V107.65ZM344.65 108.8C340.29 108.8 336.66 112.44 336.66 116.79V185.52C336.66 189.87 340.29 193.5 344.65 193.5C349.13 193.5 352.76 189.87 352.76 185.52V159.74H387.6V185.52C387.6 189.87 391.23 193.5 395.71 193.5C400.06 193.5 403.69 189.87 403.69 185.52V140.87C403.69 136.51 400.06 132.88 395.71 132.88C391.23 132.88 387.6 136.51 387.6 140.87V144.62H352.76V116.79C352.76 112.44 349.13 108.8 344.65 108.8ZM395.71 108.8C391.23 108.8 387.6 112.44 387.6 116.79C387.6 121.27 391.23 124.9 395.71 124.9C400.06 124.9 403.69 121.27 403.69 116.79C403.69 112.44 400.06 108.8 395.71 108.8ZM437.87 108.8C433.51 108.8 429.88 112.44 429.88 116.79V185.52C429.88 189.87 433.51 193.5 437.87 193.5H479.01C483.48 193.5 486.99 189.87 486.99 185.52C486.99 181.04 483.48 177.41 479.01 177.41H445.97V158.78H474.04C478.52 158.78 482.03 155.51 482.03 151.15C482.03 146.68 478.52 143.41 474.04 143.41H445.97V124.9H454.56C458.92 124.9 462.55 121.27 462.55 116.79C462.55 112.44 458.92 108.8 454.56 108.8H437.87ZM478.64 108.8C474.17 108.8 470.54 112.44 470.54 116.79C470.54 121.27 474.17 124.9 478.64 124.9C483 124.9 486.63 121.27 486.63 116.79C486.63 112.44 483 108.8 478.64 108.8ZM543.54 108.8C540.4 108.8 537.61 110.62 536.28 113.4L503.62 182.01C501.8 186 503.49 190.84 507.49 192.78C511.48 194.59 516.2 192.9 518.13 188.9L525.76 172.93H566.41C569.19 172.93 571.61 171.48 573.07 169.3C575.85 165.19 573.67 161.68 572.34 158.9L550.8 113.4C549.47 110.62 546.57 108.8 543.54 108.8ZM611.54 108.8C607.19 108.8 603.56 112.44 603.56 116.79V185.52C603.56 189.87 607.19 193.5 611.54 193.5H628.6C633.08 193.5 636.59 189.87 636.59 185.52C636.59 181.04 633.08 177.41 628.6 177.41H619.65V116.79C619.65 112.44 616.02 108.8 611.54 108.8V108.8ZM666.28 108.8C661.93 108.8 658.29 112.44 658.29 116.79C658.29 121.27 661.93 124.9 666.28 124.9H683.83V185.52C683.83 189.87 687.33 193.5 691.81 193.5C696.29 193.5 699.8 189.87 699.8 185.52V116.79C699.8 112.44 696.65 108.8 691.81 108.8H666.28ZM717.34 108.8C712.86 108.8 709.23 112.44 709.23 116.79C709.23 121.27 712.86 124.9 717.34 124.9C721.7 124.9 725.33 121.27 725.33 116.79C725.33 112.44 721.7 108.8 717.34 108.8ZM750.96 108.8C746.6 108.8 742.97 112.44 742.97 116.79V185.52C742.97 189.87 746.6 193.5 750.96 193.5C755.43 193.5 759.06 189.87 759.06 185.52V159.74H793.91V185.52C793.91 189.87 797.54 193.5 802.01 193.5C806.37 193.5 810 189.87 810 185.52V140.87C810 136.51 806.37 132.88 802.01 132.88C797.54 132.88 793.91 136.51 793.91 140.87V144.62H759.06V116.79C759.06 112.44 755.43 108.8 750.96 108.8ZM802.01 108.8C797.54 108.8 793.91 112.44 793.91 116.79C793.91 121.27 797.54 124.9 802.01 124.9C806.37 124.9 810 121.27 810 116.79C810 112.44 806.37 108.8 802.01 108.8ZM543.54 135.42L554.92 159.14H532.29L543.54 135.42V135.42ZM576.09 177.41C571.73 177.41 568.11 181.04 568.11 185.52C568.11 189.87 571.73 193.5 576.09 193.5C580.57 193.5 584.2 189.87 584.2 185.52C584.2 181.04 580.57 177.41 576.09 177.41ZM652.68 177.41C648.2 177.41 644.7 181.04 644.7 185.52C644.7 189.87 648.2 193.5 652.68 193.5C657.16 193.5 660.67 189.87 660.67 185.52C660.67 181.04 657.16 177.41 652.68 177.41Z" fill="white"/>
</svg>
