<?xml version="1.0" encoding="UTF-8" standalone="no"?>
<svg
   xmlns:dc="http://purl.org/dc/elements/1.1/"
   xmlns:cc="http://creativecommons.org/ns#"
   xmlns:rdf="http://www.w3.org/1999/02/22-rdf-syntax-ns#"
   xmlns:svg="http://www.w3.org/2000/svg"
   xmlns="http://www.w3.org/2000/svg"
   id="svg14"
   version="1.1"
   height="250"
   width="250">
  <metadata
     id="metadata20">
    <rdf:RDF>
      <cc:Work
         rdf:about="">
        <dc:format>image/svg+xml</dc:format>
        <dc:type
           rdf:resource="http://purl.org/dc/dcmitype/StillImage" />
      </cc:Work>
    </rdf:RDF>
  </metadata>
  <defs
     id="defs18" />
  <g
     id="g5">
    <title
       id="title2">background</title>
    <path
       id="canvas_background"
       d="M -1,-1 H 251 V 251 H -1 Z"
       style="fill:none" />
  </g>
  <g
     id="g12">
    <title
       id="title7">Layer 1</title>
    <g
       id="svg_2"
       transform="translate(9.000144,-1.000016)">
      <g
         id="logo-group"
         transform="translate(-19.329,4.3039999)">
        <path
           style="fill:#000000;stroke-width:1.01999998"
           id="icon"
           d="m 381.30763,426.50999 c -0.81098,0.004 -1.8828,0.0278 -2.3819,0.0516 -0.49907,0.0244 -1.2392,0.0726 -1.6446,0.10775 -0.40549,0.0352 -1.0815,0.10095 -1.5029,0.14688 -0.42137,0.046 -1.0463,0.12307 -1.3894,0.17071 -0.34311,0.0482 -1.0066,0.15142 -1.4745,0.22969 -0.46787,0.0783 -1.272,0.22798 -1.7864,0.33346 -0.51438,0.10492 -1.2165,0.25804 -1.5596,0.3397 -0.34311,0.0811 -1.0066,0.25124 -1.4745,0.37771 -0.46787,0.1259 -1.259,0.35502 -1.7581,0.50871 -0.49906,0.15369 -1.3157,0.4225 -1.8148,0.59717 -0.49907,0.17524 -1.4048,0.51608 -2.0133,0.75768 -0.60795,0.2416 -1.4887,0.61079 -1.9566,0.82062 -0.46788,0.20984 -1.3866,0.64993 -2.0416,0.97828 -0.65503,0.3278 -1.5284,0.78547 -1.9413,1.0163 -0.41229,0.23026 -1.0758,0.61362 -1.4745,0.85068 -0.39812,0.23706 -1.3112,0.82062 -2.0286,1.2959 -0.7174,0.47581 -1.7382,1.191 -2.2685,1.5897 -0.53025,0.39869 -1.2794,0.98055 -1.665,1.2936 -0.38565,0.31305 -1.0492,0.8728 -1.4745,1.2443 -0.42534,0.3709 -1.2023,1.0844 -1.7264,1.5846 -0.52401,0.5002 -1.3168,1.297 -1.762,1.7711 -0.44519,0.47355 -1.0979,1.191 -1.4512,1.5948 -0.35275,0.40323 -0.97942,1.1541 -1.3917,1.669 -0.41287,0.51437 -1.0651,1.369 -1.4495,1.8992 -0.38451,0.52968 -1.0095,1.4353 -1.3883,2.0133 -0.37884,0.57733 -0.93121,1.4581 -1.2273,1.9572 -0.2966,0.49906 -0.69302,1.1881 -0.88187,1.5312 -0.18885,0.34311 -0.60058,1.1387 -0.91533,1.7683 -0.31475,0.6295 -0.74122,1.5215 -0.94766,1.9832 -0.207,0.46163 -0.55578,1.2862 -0.77525,1.8329 -0.21947,0.5467 -0.54444,1.4025 -0.72251,1.9016 -0.17807,0.49906 -0.4554,1.3305 -0.61532,1.8476 -0.1605,0.51722 -0.41741,1.3991 -0.57053,1.9599 -0.15312,0.56088 -0.38223,1.4774 -0.5087,2.0372 -0.12647,0.55974 -0.31872,1.5022 -0.42648,2.095 -0.10832,0.59264 -0.2484,1.4473 -0.31191,1.8998 -0.0635,0.45199 -0.15539,1.1666 -0.20359,1.5879 -0.0482,0.42138 -0.13044,1.212 -0.18261,1.7581 l -0.0947,0.99246 -0.0181,15.587 -0.0181,15.586 -15.567,-0.0181 c -8.5624,-0.0102 -15.574,0.002 -15.584,0.0278 -0.008,0.0261 -0.47412,0.0839 -1.0344,0.12873 -0.56088,0.0454 -1.4535,0.1327 -1.9838,0.19509 -0.53026,0.0624 -1.385,0.17807 -1.8998,0.2569 -0.51438,0.0788 -1.5097,0.25861 -2.2118,0.39925 -0.70153,0.14121 -1.813,0.39302 -2.4692,0.56032 -0.65615,0.16673 -1.5494,0.40946 -1.9849,0.53933 -0.43555,0.12931 -1.2085,0.37543 -1.7178,0.54614 -0.50871,0.17071 -1.2363,0.42591 -1.6163,0.56655 -0.3794,0.14121 -1.1161,0.43271 -1.6367,0.64765 -0.52062,0.21493 -1.2352,0.52232 -1.5879,0.68338 -0.35275,0.16106 -1.1745,0.55918 -1.8261,0.88471 -0.65161,0.32552 -1.5318,0.78603 -1.9566,1.0226 -0.42421,0.23648 -1.0906,0.62212 -1.4807,0.85635 -0.38961,0.23478 -1.1813,0.73612 -1.7587,1.115 -0.57789,0.37884 -1.4807,1.0015 -2.007,1.3837 -0.52629,0.38224 -1.381,1.035 -1.8992,1.4501 -0.51779,0.41514 -1.272,1.0435 -1.6752,1.3963 -0.40379,0.35275 -1.1212,1.0049 -1.5948,1.4501 -0.47412,0.44519 -1.2709,1.2381 -1.7711,1.762 -0.5002,0.52401 -1.2136,1.301 -1.5846,1.7264 -0.37146,0.42534 -0.93121,1.0888 -1.2437,1.4745 -0.31305,0.38564 -0.87847,1.1132 -1.2574,1.618 -0.37884,0.50417 -1.0305,1.4229 -1.4473,2.0416 -0.4174,0.61816 -1.0134,1.5454 -1.3243,2.0604 -0.31079,0.51437 -0.75881,1.2811 -0.99473,1.7036 -0.23592,0.42251 -0.69755,1.3033 -1.0248,1.9566 -0.3278,0.65389 -0.71628,1.4564 -0.86373,1.7842 -0.14688,0.32723 -0.40208,0.91419 -0.56655,1.3044 -0.16446,0.3896 -0.42647,1.0407 -0.583,1.4462 -0.15596,0.40549 -0.42534,1.1456 -0.59774,1.6446 -0.17297,0.49906 -0.42817,1.2771 -0.56769,1.7297 -0.13951,0.45199 -0.35671,1.2051 -0.48262,1.673 -0.1259,0.46787 -0.29604,1.1314 -0.37714,1.4745 -0.0817,0.34311 -0.23478,1.0447 -0.3397,1.5596 -0.10549,0.51438 -0.25577,1.3186 -0.33403,1.7864 -0.0783,0.46787 -0.19395,1.2335 -0.25633,1.7014 -0.0624,0.46787 -0.15255,1.2459 -0.2002,1.7297 -0.0476,0.48375 -0.11285,1.2494 -0.14519,1.7014 -0.0323,0.45199 -0.0743,1.5879 -0.0936,2.5237 -0.0215,1.0339 -0.01,2.2356 0.0312,3.0624 0.0363,0.7486 0.10435,1.7949 0.15142,2.3252 0.0465,0.53026 0.13724,1.385 0.20076,1.8998 0.0641,0.51438 0.19055,1.3877 0.28129,1.9395 0.0907,0.55237 0.25634,1.4581 0.36806,2.0133 0.11229,0.5552 0.34027,1.5454 0.50757,2.2004 0.16673,0.65503 0.39585,1.5097 0.50928,1.8999 0.11285,0.3896 0.38564,1.2448 0.60568,1.8998 0.22005,0.65502 0.58924,1.6741 0.8212,2.2651 0.23138,0.59038 0.57619,1.4326 0.76561,1.8715 0.18941,0.43838 0.64594,1.4098 1.014,2.1584 0.36863,0.7486 0.90513,1.7819 1.1927,2.2968 0.28809,0.51494 0.76561,1.331 1.0622,1.8148 0.29661,0.48318 0.85749,1.3515 1.2471,1.9282 0.38904,0.57676 1.0021,1.4444 1.3617,1.9282 0.36012,0.48318 0.85918,1.1342 1.1099,1.4462 0.2501,0.31192 0.66012,0.80928 0.91023,1.1059 0.2501,0.29603 0.78772,0.90682 1.1943,1.3571 0.40663,0.45028 1.1876,1.2669 1.7354,1.8148 0.54784,0.54783 1.3645,1.3299 1.8148,1.7377 0.45028,0.40777 1.1524,1.0202 1.5602,1.3611 0.40832,0.34084 1.0718,0.8762 1.4745,1.1892 0.40323,0.31306 1.052,0.80021 1.4417,1.082 0.39018,0.28186 1.1298,0.79341 1.6446,1.1365 0.51494,0.3431 1.3021,0.8467 1.7496,1.1189 0.44746,0.27165 1.1325,0.67318 1.5228,0.89152 0.38961,0.21834 1.1717,0.63687 1.7382,0.9295 0.56599,0.2932 1.3996,0.70266 1.8516,0.9108 0.45256,0.20756 1.2182,0.5433 1.7014,0.74577 0.48375,0.20246 1.3384,0.54045 1.8998,0.75199 0.56145,0.21097 1.4546,0.52572 1.9849,0.69983 0.53026,0.17354 1.3724,0.43101 1.8715,0.57109 0.49906,0.14065 1.2778,0.34821 1.7297,0.46163 0.45257,0.11343 1.3055,0.30738 1.8959,0.43045 0.59037,0.12363 1.5215,0.2983 2.07,0.38791 0.54785,0.0902 1.4178,0.21664 1.9322,0.28129 0.51495,0.0641 1.3571,0.15482 1.8715,0.20076 0.51494,0.0465 1.4972,0.114 2.1834,0.15029 0.77922,0.0414 1.9929,0.0539 3.2326,0.0323 1.0917,-0.0187 2.4818,-0.0731 3.0886,-0.12136 0.60682,-0.0482 1.5318,-0.13781 2.0547,-0.19962 0.52288,-0.0618 1.3662,-0.17581 1.8737,-0.25351 0.50757,-0.0777 1.1903,-0.19055 1.5182,-0.2518 0.32779,-0.0607 1.0293,-0.20359 1.5596,-0.31816 0.53025,-0.11398 1.3594,-0.30908 1.8431,-0.43327 0.48375,-0.1242 1.3486,-0.36637 1.9231,-0.53877 0.57392,-0.1724 1.4927,-0.46674 2.0416,-0.65389 0.5484,-0.18715 1.5465,-0.55804 2.2169,-0.82516 0.6709,-0.26655 1.6662,-0.68848 2.2118,-0.93745 0.54614,-0.24896 1.3447,-0.62893 1.7751,-0.84444 0.43101,-0.21608 1.1836,-0.61192 1.673,-0.88017 0.48999,-0.26825 1.2987,-0.73271 1.7978,-1.031 0.49907,-0.29887 1.4433,-0.90172 2.0984,-1.3396 0.65502,-0.43781 1.6396,-1.1314 2.1885,-1.542 0.5484,-0.41002 1.3775,-1.0588 1.8431,-1.4417 0.46504,-0.38281 1.1518,-0.96467 1.5261,-1.2931 0.3743,-0.32836 1.3469,-1.2618 2.1608,-2.0745 0.81439,-0.81212 1.7264,-1.7524 2.0268,-2.0899 0.30058,-0.33687 0.84785,-0.97488 1.2171,-1.4178 0.36863,-0.44235 0.91873,-1.124 1.2216,-1.5137 0.30341,-0.39018 0.81439,-1.0793 1.136,-1.5312 0.32156,-0.45257 0.7883,-1.1285 1.0378,-1.5029 0.24954,-0.3743 0.69643,-1.0764 0.99303,-1.5596 0.29717,-0.48376 0.79624,-1.3384 1.1087,-1.8998 0.31248,-0.56145 0.77866,-1.4411 1.0355,-1.9548 0.25691,-0.51382 0.68452,-1.4195 0.94992,-2.0133 0.26542,-0.59377 0.66865,-1.5516 0.89605,-2.1284 0.22742,-0.57734 0.51949,-1.3554 0.6488,-1.7297 0.12986,-0.3743 0.35048,-1.0378 0.49112,-1.4745 0.14064,-0.43669 0.36919,-1.1961 0.50814,-1.6878 0.13894,-0.49169 0.35275,-1.3084 0.47525,-1.8148 0.12193,-0.50643 0.2983,-1.2913 0.39131,-1.7433 0.0935,-0.45257 0.24783,-1.2817 0.34311,-1.8431 0.0953,-0.56145 0.22344,-1.4172 0.28526,-1.9021 0.0618,-0.48433 0.14972,-1.301 0.19566,-1.8148 0.0465,-0.51325 0.10037,-1.1314 0.12023,-1.373 0.0199,-0.2416 0.0618,-0.43952 0.093,-0.43952 0.0374,0 0.0425,-5.2379 0.0148,-15.576 l -0.0414,-15.576 15.571,0.0301 c 9.3144,0.0175 15.593,0.009 15.623,-0.0221 0.0283,-0.0284 0.52175,-0.089 1.0957,-0.13496 0.5745,-0.0465 1.5573,-0.14689 2.1834,-0.22402 0.6261,-0.0771 1.66,-0.22799 2.2968,-0.33517 0.63688,-0.10718 1.5919,-0.2881 2.1222,-0.40208 0.53026,-0.11343 1.3192,-0.29548 1.753,-0.40436 0.43385,-0.10889 1.2636,-0.33517 1.8431,-0.50361 0.5796,-0.16787 1.5011,-0.4571 2.0467,-0.64311 0.54613,-0.18545 1.2465,-0.43101 1.5567,-0.545 0.31078,-0.114 0.96977,-0.3726 1.4649,-0.5745 0.49453,-0.20188 1.2999,-0.54783 1.7887,-0.76958 0.48885,-0.22117 1.2851,-0.60001 1.7683,-0.84217 0.48375,-0.24216 1.2494,-0.64368 1.7014,-0.89208 0.45256,-0.2484 1.2357,-0.69812 1.741,-0.99926 0.50473,-0.30115 1.4592,-0.9091 2.1205,-1.3498 0.66127,-0.44122 1.6724,-1.1558 2.247,-1.5868 0.57506,-0.43158 1.466,-1.1325 1.9809,-1.5578 0.51439,-0.42534 1.3611,-1.1615 1.8817,-1.6367 0.52005,-0.47525 1.4694,-1.3974 2.1085,-2.0496 0.63972,-0.65162 1.4858,-1.5556 1.8806,-2.0076 0.39528,-0.45257 0.97941,-1.1416 1.2987,-1.5312 0.31928,-0.39018 0.90512,-1.1427 1.3015,-1.673 0.39641,-0.53026 1.0146,-1.3979 1.3735,-1.9282 0.35899,-0.53026 0.84672,-1.276 1.0849,-1.6577 0.23761,-0.38168 0.66522,-1.0962 0.95048,-1.5879 0.28469,-0.49169 0.79341,-1.4302 1.1314,-2.0853 0.33743,-0.65502 0.82232,-1.6504 1.0769,-2.2118 0.25521,-0.56144 0.6743,-1.5443 0.93177,-2.1834 0.25748,-0.63971 0.63915,-1.6606 0.84729,-2.2685 0.2087,-0.60852 0.507,-1.5272 0.66353,-2.0416 0.15652,-0.51438 0.43384,-1.5352 0.61702,-2.2685 0.18262,-0.73329 0.40946,-1.7155 0.50417,-2.1834 0.0947,-0.46788 0.23593,-1.2335 0.31418,-1.7014 0.0788,-0.46788 0.19396,-1.221 0.25635,-1.673 0.0624,-0.45256 0.15142,-1.2051 0.19849,-1.673 0.047,-0.46787 0.11228,-1.1949 0.14575,-1.6163 0.0329,-0.42137 0.0754,-1.6974 0.0935,-2.8356 0.0215,-1.3061 0.009,-2.5203 -0.033,-3.2893 -0.0368,-0.67033 -0.10434,-1.6407 -0.14971,-2.155 -0.0459,-0.51438 -0.13611,-1.3441 -0.2002,-1.8431 -0.0641,-0.49907 -0.17977,-1.2902 -0.2569,-1.7581 -0.0777,-0.46787 -0.1934,-1.1314 -0.25747,-1.4745 -0.0641,-0.34311 -0.22969,-1.1218 -0.3675,-1.7297 -0.13838,-0.60853 -0.37941,-1.5782 -0.5365,-2.1551 -0.15709,-0.57733 -0.52401,-1.7638 -0.81608,-2.6371 -0.2915,-0.87336 -0.73839,-2.1063 -0.9919,-2.7403 -0.25406,-0.63404 -0.65445,-1.5782 -0.88981,-2.0983 -0.23535,-0.52005 -0.69245,-1.4694 -1.0163,-2.1086 -0.32326,-0.63971 -0.86543,-1.6475 -1.2046,-2.2401 -0.33913,-0.59264 -0.89264,-1.5113 -1.2295,-2.0416 -0.33688,-0.53026 -0.78036,-1.2069 -0.9851,-1.5029 -0.20416,-0.29661 -0.57505,-0.81949 -0.82345,-1.1626 -0.2484,-0.34311 -0.70833,-0.9556 -1.0219,-1.3611 -0.31362,-0.40549 -0.8365,-1.0565 -1.1632,-1.4462 -0.32609,-0.39018 -0.9261,-1.0793 -1.3327,-1.5312 -0.40718,-0.45256 -1.2386,-1.3203 -1.8476,-1.9282 -0.60965,-0.60853 -1.4694,-1.4275 -1.91,-1.8199 -0.44122,-0.39301 -1.0917,-0.95673 -1.4455,-1.2528 -0.35388,-0.29604 -0.93745,-0.76845 -1.297,-1.0498 -0.35955,-0.28129 -0.99756,-0.76277 -1.4178,-1.0702 -0.42023,-0.30738 -1.2102,-0.85578 -1.7563,-1.2187 -0.54557,-0.36295 -1.3622,-0.8847 -1.8148,-1.1597 -0.45199,-0.27448 -1.2051,-0.714 -1.673,-0.97657 -0.46788,-0.26258 -1.4246,-0.76391 -2.1267,-1.1144 -0.70153,-0.34992 -1.6458,-0.79907 -2.0984,-0.997 -0.45199,-0.1985 -1.2176,-0.51949 -1.7014,-0.71287 -0.48318,-0.19395 -1.3894,-0.53196 -2.0133,-0.75201 -0.62383,-0.21947 -1.568,-0.53083 -2.0984,-0.69188 -0.53025,-0.16106 -1.5511,-0.44293 -2.2685,-0.62724 -0.7174,-0.18374 -1.8783,-0.44803 -2.5804,-0.58754 -0.70153,-0.13952 -1.7098,-0.31929 -2.2401,-0.39869 -0.53025,-0.08 -1.3979,-0.19509 -1.9282,-0.25577 -0.53026,-0.0607 -1.2959,-0.13782 -1.7014,-0.17071 -0.40549,-0.0335 -1.2222,-0.0856 -1.8148,-0.11626 -0.59264,-0.0312 -1.741,-0.0522 -2.552,-0.0476 z m 0.68054,6.0908 c 0.96694,0.013 2.1284,0.0505 2.5804,0.0839 0.45256,0.0335 1.2811,0.11059 1.842,0.17127 0.56031,0.0612 1.441,0.17581 1.9566,0.25578 0.51495,0.0794 1.3963,0.23478 1.9577,0.34424 0.56145,0.11001 1.5267,0.32666 2.1448,0.48148 0.61816,0.15482 1.58,0.42024 2.138,0.5898 0.55748,0.16957 1.4161,0.45143 1.9072,0.6261 0.49113,0.17467 1.2709,0.46844 1.7331,0.65276 0.46221,0.18488 1.2074,0.5002 1.656,0.70096 0.44859,0.20133 1.284,0.60002 1.8562,0.88641 0.57166,0.2864 1.2698,0.64878 1.5511,0.80588 0.28073,0.15653 0.88131,0.50361 1.3334,0.77129 0.45256,0.26712 1.3225,0.82006 1.9333,1.2284 0.61135,0.40833 1.5556,1.0769 2.0983,1.4853 0.5433,0.40832 1.3101,1.0123 1.7053,1.3418 0.39471,0.3295 1.1092,0.95333 1.5879,1.3861 0.47808,0.43271 1.3423,1.2703 1.9198,1.8607 0.57732,0.59038 1.4325,1.5193 1.901,2.0643 0.46843,0.54443 1.1092,1.3219 1.424,1.7275 0.31475,0.40549 0.77526,1.018 1.0237,1.3611 0.2484,0.3431 0.65617,0.93007 0.90626,1.3044 0.25011,0.3743 0.64596,0.98679 0.87904,1.3611 0.23365,0.3743 0.64765,1.0713 0.92101,1.5483 0.27278,0.47751 0.76163,1.4008 1.086,2.0518 0.32439,0.65048 0.74236,1.5279 0.92838,1.9492 0.18657,0.42137 0.50529,1.1852 0.7089,1.6974 0.20303,0.51211 0.52458,1.3877 0.71513,1.9464 0.18998,0.55804 0.50701,1.5766 0.70437,2.2628 0.19735,0.68622 0.47524,1.7705 0.61872,2.4103 0.14291,0.63915 0.32383,1.5312 0.40266,1.9816 0.0782,0.45029 0.20529,1.2669 0.28242,1.8148 0.0766,0.54784 0.17865,1.4297 0.22685,1.9599 0.0482,0.53026 0.11343,1.449 0.14462,2.0416 0.0306,0.59264 0.0561,1.5749 0.0561,2.1834 0,0.60795 -0.0255,1.5908 -0.0567,2.1834 -0.0312,0.59264 -0.0828,1.3837 -0.11512,1.7581 -0.0317,0.3743 -0.10946,1.1019 -0.17297,1.6163 -0.0635,0.51438 -0.16674,1.2545 -0.22913,1.6446 -0.0624,0.38961 -0.20019,1.1473 -0.30624,1.6838 -0.10662,0.53592 -0.28582,1.3526 -0.39869,1.8148 -0.11285,0.46163 -0.3414,1.3117 -0.50813,1.889 -0.16674,0.57733 -0.4605,1.5086 -0.65332,2.07 -0.19226,0.56145 -0.51098,1.4291 -0.70834,1.9282 -0.19679,0.49906 -0.52288,1.2771 -0.72364,1.7297 -0.20133,0.45199 -0.60172,1.2942 -0.89038,1.8715 -0.28923,0.57733 -0.7174,1.3934 -0.9522,1.8148 -0.23478,0.42137 -0.6692,1.1609 -0.96523,1.6446 -0.29604,0.48318 -0.78093,1.2363 -1.0769,1.673 -0.29605,0.43669 -0.86146,1.2278 -1.2567,1.7581 -0.39528,0.53025 -0.98338,1.2828 -1.3066,1.673 -0.32326,0.38961 -0.88187,1.0407 -1.242,1.4462 -0.35956,0.40549 -1.1144,1.1983 -1.677,1.762 -0.56258,0.56371 -1.3225,1.2959 -1.6883,1.6265 -0.36579,0.33119 -0.99133,0.87393 -1.3894,1.2074 -0.39812,0.3329 -1.2216,0.97942 -1.8301,1.436 -0.60795,0.45653 -1.4121,1.0372 -1.7864,1.2902 -0.3743,0.2535 -1.0248,0.676 -1.4462,0.93971 -0.4208,0.26314 -1.1609,0.70549 -1.6446,0.98282 -0.48318,0.27675 -1.4019,0.76447 -2.0416,1.0832 -0.63914,0.31815 -1.5199,0.73726 -1.9566,0.93121 -0.43668,0.19338 -1.2658,0.53819 -1.8431,0.76561 -0.57676,0.22798 -1.5153,0.56939 -2.0848,0.75937 -0.56996,0.18999 -1.4756,0.47015 -2.0133,0.62213 -0.53762,0.15256 -1.4751,0.39415 -2.0836,0.53707 -0.60796,0.14292 -1.4632,0.32553 -1.8999,0.40549 -0.43668,0.08 -1.2023,0.20756 -1.702,0.28356 -0.49906,0.076 -1.411,0.18999 -2.0257,0.25293 -0.61532,0.0635 -1.234,0.11513 -1.3753,0.11513 h -0.25634 v -11.1 l 0.46787,-0.038 c 0.25747,-0.021 0.9074,-0.10152 1.4444,-0.17865 0.53649,-0.0777 1.3021,-0.20586 1.7014,-0.28582 0.39868,-0.08 1.1331,-0.2467 1.6322,-0.37033 0.49907,-0.12364 1.2902,-0.34254 1.7581,-0.48546 0.46788,-0.14349 1.2335,-0.40152 1.7014,-0.57336 0.46788,-0.17184 1.1825,-0.45144 1.5879,-0.62157 0.40549,-0.17014 1.1711,-0.52288 1.7014,-0.78376 0.53025,-0.26088 1.36,-0.69982 1.8431,-0.97545 0.48375,-0.27505 1.1654,-0.6828 1.5159,-0.90568 0.34991,-0.22288 0.98168,-0.65049 1.4036,-0.94993 0.42138,-0.29944 1.086,-0.79907 1.4762,-1.1099 0.39017,-0.31135 1.0214,-0.83991 1.4036,-1.175 0.38166,-0.3346 1.0769,-0.99189 1.5448,-1.4597 0.46788,-0.46788 1.1087,-1.1444 1.4246,-1.5029 0.31532,-0.35899 0.85464,-1.0032 1.1978,-1.432 0.34311,-0.42875 0.87677,-1.1433 1.1865,-1.5879 0.30964,-0.44461 0.71853,-1.0509 0.90795,-1.3469 0.18998,-0.2966 0.5433,-0.883 0.78546,-1.3044 0.2416,-0.42137 0.66523,-1.2164 0.94086,-1.7678 0.27561,-0.55124 0.65786,-1.3679 0.84897,-1.8148 0.19112,-0.44689 0.4571,-1.1065 0.59037,-1.4648 0.13327,-0.35842 0.37487,-1.0605 0.5365,-1.5596 0.16163,-0.49907 0.40492,-1.3412 0.54047,-1.8715 0.13553,-0.53025 0.32326,-1.3469 0.41739,-1.8148 0.0935,-0.46787 0.22288,-1.208 0.2864,-1.6446 0.0641,-0.43668 0.15482,-1.1699 0.20303,-1.6287 0.0476,-0.45937 0.11116,-1.415 0.14122,-2.1233 0.0352,-0.82119 0.0352,-1.7665 5.6e-4,-2.6059 -0.0295,-0.72479 -0.093,-1.6963 -0.14121,-2.1584 -0.0482,-0.46277 -0.13781,-1.1898 -0.19962,-1.6163 -0.0618,-0.42647 -0.19056,-1.1666 -0.2864,-1.6446 -0.0953,-0.47808 -0.2847,-1.3038 -0.42024,-1.8347 -0.13554,-0.53026 -0.41457,-1.4774 -0.61929,-2.1034 -0.2053,-0.62667 -0.53593,-1.5448 -0.735,-2.041 -0.19962,-0.49566 -0.53309,-1.272 -0.74122,-1.724 -0.20813,-0.45256 -0.58526,-1.2051 -0.83707,-1.673 -0.25237,-0.46788 -0.64992,-1.1699 -0.88301,-1.5596 -0.23365,-0.39018 -0.65899,-1.0543 -0.94481,-1.4762 -0.2864,-0.4225 -0.71061,-1.0219 -0.94256,-1.3321 -0.23195,-0.31078 -0.67204,-0.87053 -0.97771,-1.2443 -0.30625,-0.37316 -0.84558,-0.9987 -1.1989,-1.39 -0.35332,-0.39074 -0.97092,-1.0299 -1.3719,-1.42 -0.40153,-0.39074 -1.0361,-0.97771 -1.4105,-1.305 -0.3743,-0.3278 -1.0248,-0.86599 -1.4462,-1.1967 -0.42081,-0.33063 -1.1524,-0.86882 -1.6254,-1.196 -0.47241,-0.32723 -1.187,-0.7951 -1.5879,-1.0395 -0.40038,-0.24444 -1.0469,-0.6193 -1.4371,-0.8331 -0.38961,-0.2138 -1.0276,-0.54386 -1.4178,-0.73385 -0.38961,-0.18998 -0.93858,-0.44632 -1.2193,-0.57052 -0.28072,-0.12364 -0.82912,-0.35275 -1.2193,-0.50815 -0.38961,-0.15596 -1.0747,-0.40832 -1.5222,-0.56088 -0.44689,-0.15255 -1.2125,-0.39131 -1.7014,-0.53082 -0.48829,-0.13952 -1.2964,-0.34595 -1.7955,-0.4588 -0.49906,-0.11342 -1.3412,-0.27846 -1.8715,-0.3675 -0.53026,-0.089 -1.3214,-0.20189 -1.7581,-0.25066 -0.43669,-0.0488 -1.1382,-0.114 -1.5596,-0.14519 -0.42138,-0.0318 -1.4802,-0.0567 -2.3536,-0.0567 -0.87337,0 -1.9452,0.0255 -2.3819,0.0567 -0.43668,0.0318 -1.1382,0.097 -1.5596,0.14519 -0.42137,0.0482 -1.1609,0.15255 -1.6446,0.23139 -0.48319,0.0788 -1.331,0.24386 -1.8839,0.36692 -0.55239,0.12306 -1.369,0.3261 -1.8148,0.45199 -0.44519,0.1259 -1.1927,0.35729 -1.6606,0.51495 -0.46787,0.15766 -1.2301,0.43782 -1.694,0.6227 -0.46391,0.18545 -1.2522,0.52572 -1.7512,0.75653 -0.49907,0.23139 -1.2902,0.62724 -1.7581,0.87961 -0.46788,0.25294 -1.1087,0.61476 -1.4246,0.80474 -0.31588,0.18942 -0.95673,0.59944 -1.4235,0.9108 -0.46674,0.31192 -1.1943,0.82913 -1.6163,1.1495 -0.42195,0.32099 -1.099,0.85976 -1.504,1.1983 -0.40549,0.33856 -1.1932,1.0616 -1.7512,1.6078 -0.55805,0.54557 -1.2868,1.2987 -1.6197,1.673 -0.3329,0.3743 -0.78433,0.89718 -1.0032,1.1626 -0.21891,0.26484 -0.63291,0.7934 -0.91987,1.1745 -0.28696,0.38054 -0.76675,1.0565 -1.0656,1.5018 -0.29887,0.44519 -0.74916,1.1546 -1.001,1.576 -0.25123,0.42193 -0.74235,1.3282 -1.0906,2.0144 -0.34821,0.68621 -0.79283,1.6287 -0.98848,2.0944 -0.1951,0.46617 -0.47866,1.1819 -0.62894,1.5913 -0.15085,0.40945 -0.39075,1.1212 -0.53366,1.5811 -0.14292,0.4605 -0.34878,1.1796 -0.45653,1.5976 -0.10832,0.41854 -0.2864,1.1961 -0.39585,1.728 -0.11003,0.53252 -0.26258,1.407 -0.33971,1.9441 -0.0766,0.5365 -0.15709,1.1739 -0.17807,1.4156 l -0.0386,0.43952 h -11.11 l 0.0386,-0.52459 c 0.021,-0.28866 0.089,-0.98395 0.15085,-1.5454 0.0618,-0.56145 0.20246,-1.5698 0.31305,-2.2401 0.11002,-0.67034 0.2881,-1.6231 0.39528,-2.1159 0.10718,-0.49339 0.27279,-1.208 0.36806,-1.5879 0.0953,-0.38054 0.31305,-1.1734 0.48489,-1.762 0.17126,-0.58867 0.47411,-1.533 0.67261,-2.0983 0.19849,-0.56542 0.52912,-1.4439 0.73442,-1.9526 0.20529,-0.5087 0.55237,-1.3197 0.77071,-1.8028 0.21891,-0.48262 0.54103,-1.1643 0.71627,-1.5137 0.17524,-0.34991 0.4985,-0.96751 0.71798,-1.373 0.22004,-0.40549 0.6278,-1.1201 0.90626,-1.5879 0.27902,-0.46788 0.82005,-1.323 1.2023,-1.8999 0.38281,-0.57733 0.97091,-1.4195 1.3066,-1.8715 0.33631,-0.45257 0.88074,-1.1541 1.2097,-1.5596 0.32893,-0.40549 0.85465,-1.0305 1.1683,-1.3888 0.31362,-0.35842 0.94029,-1.0339 1.3923,-1.5011 0.45257,-0.46787 1.1161,-1.1314 1.4745,-1.4751 0.35899,-0.34424 0.94596,-0.88301 1.3044,-1.1978 0.35899,-0.31475 0.95106,-0.81722 1.3157,-1.1161 0.36522,-0.29944 1.0543,-0.8348 1.5312,-1.1898 0.47751,-0.35558 1.187,-0.86429 1.5766,-1.1314 0.39018,-0.26711 1.0027,-0.6709 1.3611,-0.89718 0.35842,-0.22685 1.1371,-0.69075 1.7297,-1.0316 0.59264,-0.3414 1.6389,-0.89662 2.3252,-1.2341 0.68622,-0.33801 1.5539,-0.7469 1.9282,-0.9091 0.3743,-0.1622 1.056,-0.44462 1.5148,-0.62837 0.4588,-0.18318 1.3611,-0.51267 2.0053,-0.73159 0.64482,-0.21891 1.66,-0.53763 2.2572,-0.70776 0.59661,-0.17014 1.4677,-0.39869 1.9356,-0.50815 0.46788,-0.10888 1.1699,-0.26144 1.5596,-0.33857 0.39018,-0.0771 1.0152,-0.19224 1.3894,-0.25577 0.3743,-0.0635 1.0634,-0.1656 1.5312,-0.22685 0.46787,-0.0618 1.2975,-0.15312 1.8431,-0.20359 0.54614,-0.0499 1.4138,-0.11342 1.9282,-0.14121 0.51437,-0.0272 1.7269,-0.0391 2.6938,-0.0261 z m -0.22684,17.181 c 1.0979,0.0102 2.0133,0.0493 2.5804,0.11059 0.48376,0.0522 1.3259,0.1707 1.8715,0.26258 0.54614,0.0919 1.4603,0.28298 2.0326,0.42363 0.57223,0.14121 1.4524,0.39302 1.9566,0.56032 0.50417,0.1673 1.2357,0.43158 1.6254,0.58754 0.39018,0.15596 1.0713,0.44973 1.5137,0.65332 0.44292,0.20359 1.179,0.57733 1.6367,0.83026 0.4571,0.25294 1.1376,0.65389 1.5119,0.89095 0.3743,0.23762 0.96524,0.6346 1.3128,0.883 0.34707,0.2484 0.87449,0.64539 1.1706,0.88187 0.2966,0.23649 0.80701,0.66467 1.1342,0.95163 0.3278,0.28697 1.0044,0.93972 1.5035,1.4501 0.49962,0.5104 1.1518,1.221 1.4495,1.58 0.29774,0.35841 0.73329,0.90739 0.96807,1.2193 0.23422,0.31192 0.63065,0.87337 0.88018,1.2477 0.24953,0.3743 0.61985,0.96127 0.82289,1.3044 0.20246,0.34311 0.52458,0.91704 0.71457,1.276 0.19055,0.35842 0.49056,0.97091 0.66693,1.3611 0.17637,0.38961 0.42251,0.96354 0.54727,1.2749 0.1242,0.31135 0.33631,0.88754 0.47071,1.2805 0.13498,0.39301 0.33631,1.0344 0.44859,1.4251 0.11229,0.39132 0.27846,1.0401 0.36977,1.4422 0.0908,0.40152 0.22968,1.1132 0.30851,1.5811 0.0788,0.46788 0.18885,1.2335 0.24499,1.7014 0.0806,0.67545 0.10149,1.2891 0.10149,2.9774 0,1.6883 -0.021,2.3019 -0.10149,2.9774 -0.0561,0.46788 -0.16616,1.2335 -0.24499,1.7014 -0.0788,0.46788 -0.21777,1.1796 -0.30851,1.5811 -0.0913,0.40209 -0.25804,1.0532 -0.3709,1.4462 -0.11229,0.39358 -0.33064,1.0815 -0.48489,1.5284 -0.15425,0.44689 -0.42193,1.1484 -0.59434,1.5596 -0.1724,0.41059 -0.50133,1.1298 -0.73102,1.5976 -0.22968,0.46788 -0.60001,1.1694 -0.82289,1.5596 -0.22287,0.38961 -0.64198,1.0662 -0.93121,1.5029 -0.28866,0.43669 -0.73613,1.0747 -0.99359,1.4178 -0.25804,0.34311 -0.71344,0.9176 -1.0129,1.276 -0.29887,0.35842 -1.0293,1.1382 -1.6225,1.732 -0.59377,0.59378 -1.3968,1.3447 -1.7853,1.6679 -0.38848,0.32326 -0.9885,0.79737 -1.3327,1.0532 -0.34481,0.25577 -0.95843,0.68338 -1.3639,0.94935 -0.40549,0.26655 -1.0775,0.67884 -1.4933,0.91703 -0.4157,0.23819 -1.0027,0.55635 -1.3044,0.70777 -0.3017,0.15086 -0.88016,0.42137 -1.2856,0.60115 -0.40549,0.17977 -1.0968,0.46107 -1.5363,0.62496 -0.43896,0.1639 -1.1411,0.40209 -1.5596,0.52969 -0.41797,0.12703 -1.1819,0.3329 -1.6963,0.4571 -0.51437,0.12477 -1.3055,0.2898 -1.7581,0.36693 -0.45199,0.0771 -1.1666,0.17977 -1.5879,0.22798 -0.42137,0.0482 -1.263,0.11683 -1.8715,0.15199 -0.80134,0.0465 -5.0071,0.0533 -15.283,0.0255 -7.7979,-0.0216 -14.182,-0.0442 -14.189,-0.0505 -0.007,-0.006 -0.0153,-6.6592 -0.0199,-14.784 -0.005,-10.301 0.0113,-14.995 0.055,-15.509 0.0341,-0.40549 0.0884,-0.9539 0.12136,-1.2193 0.0323,-0.26542 0.13384,-0.921 0.22571,-1.4581 0.0919,-0.5365 0.28413,-1.4422 0.42704,-2.0133 0.14292,-0.57052 0.40833,-1.4842 0.59038,-2.0297 0.18204,-0.54613 0.49736,-1.3917 0.70095,-1.88 0.20304,-0.48772 0.56542,-1.2789 0.80532,-1.7581 0.23932,-0.47864 0.58924,-1.1387 0.77695,-1.466 0.18772,-0.32779 0.57846,-0.95786 0.86826,-1.4008 0.2898,-0.44293 0.7123,-1.0532 0.93915,-1.3566 0.22685,-0.30284 0.60059,-0.78263 0.83027,-1.0662 0.23024,-0.28299 0.72364,-0.85125 1.0968,-1.2618 0.37317,-0.41059 0.96468,-1.0117 1.314,-1.3356 0.34992,-0.32439 0.86543,-0.78887 1.1462,-1.0328 0.28073,-0.24386 0.85862,-0.70549 1.284,-1.0259 0.42534,-0.32043 1.1019,-0.79907 1.5029,-1.0634 0.40096,-0.26429 1.0736,-0.67998 1.4938,-0.92328 0.4208,-0.24386 1.1989,-0.65276 1.7297,-0.90852 0.53082,-0.25634 1.348,-0.61873 1.8159,-0.80588 0.46787,-0.18715 1.208,-0.45596 1.6446,-0.59774 0.43668,-0.14121 1.0237,-0.32043 1.3044,-0.39812 0.28073,-0.0777 0.85635,-0.21947 1.2789,-0.31475 0.4225,-0.0958 1.1371,-0.23649 1.5879,-0.31249 0.45087,-0.0766 1.2278,-0.17864 1.7269,-0.22798 0.49907,-0.0493 1.035,-0.0992 1.191,-0.11116 0.15595,-0.0119 1.0492,-0.0147 1.9849,-0.006 z m -83.182,62.474 0.29773,-0.006 v 11.1 l -0.43951,0.0385 c -0.2416,0.021 -0.87337,0.10037 -1.4036,0.17638 -0.53025,0.076 -1.3594,0.21777 -1.8431,0.31475 -0.48318,0.0964 -1.2618,0.27391 -1.7303,0.39415 -0.46788,0.12023 -1.2335,0.33687 -1.7014,0.48148 -0.46731,0.14519 -1.2868,0.42647 -1.8199,0.6261 -0.53366,0.19963 -1.3759,0.5433 -1.8715,0.76392 -0.49623,0.22117 -1.3424,0.6295 -1.8817,0.90852 -0.53876,0.27902 -1.3684,0.74065 -1.8431,1.0253 -0.47468,0.28526 -1.1819,0.73556 -1.572,1.0004 -0.38961,0.26484 -1.0021,0.70153 -1.3611,0.97035 -0.35842,0.26824 -1.035,0.80587 -1.5029,1.1949 -0.46787,0.38903 -1.4399,1.2953 -2.1595,2.0144 -0.72025,0.71911 -1.5988,1.6515 -1.9532,2.0728 -0.35388,0.4208 -0.94539,1.1694 -1.3146,1.6628 -0.3692,0.4934 -0.88357,1.2204 -1.1433,1.6163 -0.25974,0.39529 -0.62837,0.97773 -0.81835,1.2936 -0.19056,0.31588 -0.55294,0.95673 -0.80588,1.4246 -0.25237,0.46788 -0.64652,1.2556 -0.87563,1.7507 -0.22912,0.4951 -0.58357,1.3231 -0.7883,1.8392 -0.20473,0.51608 -0.5002,1.3254 -0.65673,1.7978 -0.15595,0.47242 -0.38734,1.2363 -0.51381,1.698 -0.12647,0.46107 -0.31816,1.2477 -0.42591,1.7479 -0.10776,0.50076 -0.25975,1.305 -0.33801,1.7876 -0.0783,0.48261 -0.18035,1.2091 -0.22628,1.6146 -0.0459,0.40549 -0.11342,1.1711 -0.15028,1.7014 -0.042,0.61192 -0.055,1.6475 -0.0346,2.8356 0.0181,1.086 0.0686,2.2162 0.1208,2.6938 0.0493,0.45199 0.14178,1.1796 0.20642,1.6163 0.0641,0.43668 0.1934,1.1892 0.28697,1.673 0.0936,0.48319 0.2467,1.1852 0.3397,1.5596 0.093,0.3743 0.28526,1.0758 0.42647,1.5596 0.14178,0.48319 0.42138,1.3316 0.62157,1.8851 0.2002,0.55295 0.53252,1.3952 0.73839,1.8715 0.20529,0.47582 0.62553,1.3628 0.93291,1.9714 0.30795,0.60796 0.78092,1.4756 1.0509,1.9282 0.27051,0.452 0.72081,1.1666 1.001,1.5879 0.28016,0.4208 0.75881,1.0974 1.064,1.5029 0.30454,0.40549 0.82006,1.056 1.145,1.4462 0.32439,0.38961 0.9193,1.0627 1.3214,1.4955 0.40152,0.43214 1.0985,1.128 1.5483,1.546 0.44972,0.41797 1.1065,1.0015 1.4592,1.297 0.35275,0.29548 1.0083,0.81382 1.4575,1.1513 0.44915,0.33743 1.1847,0.85748 1.635,1.1558 0.45029,0.29774 1.1762,0.75199 1.6129,1.0083 0.43668,0.25634 1.3939,0.76447 2.1267,1.1291 0.73329,0.36466 1.7921,0.84558 2.3536,1.0691 0.56145,0.22345 1.327,0.51098 1.7014,0.63972 0.3743,0.12817 1.0718,0.34707 1.5494,0.48602 0.47808,0.13838 1.3152,0.35502 1.8596,0.48092 0.54444,0.12589 1.4291,0.30283 1.9662,0.39301 0.53707,0.0897 1.3339,0.20303 1.7705,0.2518 0.43668,0.0488 1.1387,0.1157 1.5596,0.14858 0.42137,0.0329 1.5057,0.0596 2.4103,0.059 0.97602,-5.7e-4 2.0824,-0.0368 2.7222,-0.0891 0.59264,-0.0482 1.5244,-0.15199 2.07,-0.23025 0.54614,-0.0782 1.4904,-0.24273 2.0984,-0.3658 0.60795,-0.12306 1.4818,-0.32722 1.9413,-0.45312 0.45994,-0.12591 1.238,-0.35899 1.7297,-0.51778 0.49226,-0.1588 1.3026,-0.44916 1.8017,-0.64482 0.49906,-0.19622 1.1502,-0.46334 1.4462,-0.59434 0.29661,-0.13101 0.98566,-0.46164 1.5312,-0.73555 0.54614,-0.27336 1.3753,-0.72139 1.8431,-0.9953 0.46787,-0.27392 1.2335,-0.75314 1.7014,-1.0645 0.46787,-0.31134 1.1825,-0.81551 1.5879,-1.1201 0.40549,-0.3051 1.018,-0.7883 1.3611,-1.0742 0.34311,-0.28583 0.99984,-0.86599 1.4597,-1.2891 0.45994,-0.4225 1.2051,-1.1677 1.656,-1.6555 0.45086,-0.48716 1.0537,-1.1671 1.3396,-1.5102 0.28582,-0.34311 0.76902,-0.9556 1.0736,-1.3611 0.30511,-0.40549 0.77241,-1.0616 1.039,-1.4586 0.26598,-0.39698 0.68679,-1.0605 0.93518,-1.4745 0.24783,-0.414 0.6244,-1.0724 0.83593,-1.4621 0.2121,-0.39018 0.52401,-1.0027 0.69302,-1.3611 0.16956,-0.35899 0.45653,-0.9987 0.63801,-1.4218 0.18205,-0.42363 0.49849,-1.233 0.7038,-1.7984 0.20529,-0.56599 0.51098,-1.5086 0.67884,-2.0944 0.1673,-0.5864 0.39585,-1.4739 0.507,-1.973 0.11116,-0.49907 0.26881,-1.3032 0.35048,-1.7864 0.0817,-0.48375 0.19282,-1.2749 0.24727,-1.7581 l 0.0981,-0.87904 5.5567,-0.0142 5.556,-0.0148 -0.0176,0.24159 c -0.009,0.13271 -0.0561,0.64936 -0.10377,1.1484 -0.0476,0.49907 -0.15029,1.3668 -0.22855,1.9282 -0.0777,0.56145 -0.23082,1.4927 -0.33971,2.07 -0.10889,0.57676 -0.32212,1.5613 -0.47411,2.1868 -0.15199,0.62552 -0.3828,1.5062 -0.51268,1.9566 -0.12987,0.45029 -0.3862,1.2692 -0.56939,1.8193 -0.18374,0.54955 -0.52288,1.4814 -0.75427,2.07 -0.23138,0.58811 -0.57449,1.4167 -0.76277,1.8403 -0.18828,0.42421 -0.61136,1.3084 -0.93972,1.965 -0.32893,0.65673 -0.84387,1.6236 -1.1444,2.1482 -0.30114,0.52458 -0.82289,1.3883 -1.1604,1.9197 -0.33744,0.53139 -0.8779,1.3367 -1.2012,1.7904 -0.32269,0.4537 -0.84104,1.1553 -1.1513,1.5585 -0.31021,0.40323 -0.86712,1.0912 -1.2375,1.5284 -0.37033,0.43781 -1.0877,1.242 -1.5948,1.7882 -0.50644,0.54557 -1.2891,1.3384 -1.7388,1.7614 -0.44916,0.42306 -1.0736,0.99756 -1.3866,1.276 -0.31362,0.27902 -0.95163,0.81551 -1.4178,1.1927 -0.46674,0.37713 -1.1927,0.93972 -1.614,1.251 -0.4208,0.31078 -1.0844,0.78319 -1.4745,1.0498 -0.38961,0.26597 -1.0786,0.71457 -1.5312,0.99643 -0.45199,0.28185 -1.2432,0.74916 -1.7581,1.039 -0.51437,0.2898 -1.5228,0.81439 -2.2401,1.1654 -0.71741,0.35162 -1.6741,0.7968 -2.1267,0.98963 -0.45199,0.19282 -1.2817,0.52288 -1.8431,0.73328 -0.56145,0.21097 -1.381,0.50077 -1.821,0.64425 -0.43952,0.14348 -1.1558,0.36295 -1.5913,0.48772 -0.43555,0.12477 -1.1989,0.32666 -1.6963,0.44973 -0.49736,0.1225 -1.2873,0.30001 -1.7547,0.39472 -0.4673,0.0941 -1.2448,0.23591 -1.7286,0.31531 -0.48375,0.0788 -1.1852,0.18262 -1.5596,0.23025 -0.3743,0.0476 -1.0758,0.12477 -1.5596,0.17127 -0.48375,0.047 -1.6254,0.11626 -2.5379,0.15426 -1.2913,0.0533 -2.0201,0.0538 -3.2893,0.001 -0.89662,-0.0368 -2.0388,-0.10606 -2.5379,-0.1537 -0.49906,-0.0476 -1.3026,-0.13894 -1.7864,-0.20246 -0.48318,-0.0635 -1.2363,-0.17694 -1.673,-0.2518 -0.43668,-0.0743 -1.2278,-0.22685 -1.7581,-0.338 -0.53026,-0.11172 -1.4105,-0.31872 -1.9566,-0.45994 -0.54556,-0.14178 -1.3753,-0.37317 -1.8431,-0.51495 -0.46787,-0.14178 -1.2789,-0.40888 -1.8023,-0.59377 -0.52345,-0.18487 -1.4167,-0.52401 -1.9849,-0.75314 -0.56825,-0.22968 -1.403,-0.58753 -1.8556,-0.79566 -0.45199,-0.20814 -1.3072,-0.62837 -1.8998,-0.93405 -0.59264,-0.30511 -1.4218,-0.75427 -1.8431,-0.99756 -0.4208,-0.24386 -1.1099,-0.65843 -1.5312,-0.92214 -0.4208,-0.26371 -1.1354,-0.73612 -1.5879,-1.0498 -0.452,-0.31305 -1.1285,-0.79964 -1.5029,-1.0809 -0.3743,-0.28129 -0.98679,-0.7605 -1.3611,-1.0645 -0.3743,-0.30398 -0.94822,-0.7866 -1.276,-1.0724 -0.32723,-0.28583 -1.0117,-0.9159 -1.5199,-1.4008 -0.50871,-0.48489 -1.2698,-1.251 -1.6917,-1.7025 -0.42137,-0.45142 -1.0775,-1.1841 -1.457,-1.6282 -0.37997,-0.44405 -0.94822,-1.1376 -1.263,-1.5414 -0.31533,-0.40379 -0.87224,-1.1546 -1.2386,-1.6679 -0.36636,-0.51381 -0.94142,-1.3679 -1.2778,-1.8981 -0.33631,-0.53026 -0.84614,-1.3724 -1.1325,-1.8715 -0.28639,-0.49906 -0.82006,-1.5074 -1.1865,-2.2401 -0.36637,-0.73329 -0.86145,-1.7921 -1.1002,-2.3536 -0.23876,-0.56145 -0.56202,-1.3577 -0.71911,-1.7689 -0.15709,-0.41117 -0.42534,-1.1643 -0.5966,-1.673 -0.17071,-0.50871 -0.44916,-1.4098 -0.61816,-2.0025 -0.16901,-0.59264 -0.41343,-1.5352 -0.54331,-2.095 -0.12986,-0.55918 -0.32383,-1.4978 -0.43158,-2.0848 -0.10775,-0.58754 -0.25917,-1.546 -0.33744,-2.1307 -0.0777,-0.58413 -0.17977,-1.4705 -0.22684,-1.9696 -0.0465,-0.49906 -0.11513,-1.6287 -0.15199,-2.5101 -0.051,-1.225 -0.051,-1.9725 -5.7e-4,-3.1759 0.0369,-0.86541 0.10492,-1.9945 0.15199,-2.5089 0.0471,-0.51495 0.13724,-1.331 0.20019,-1.8148 0.063,-0.48376 0.19169,-1.3259 0.2864,-1.8715 0.0942,-0.54614 0.27335,-1.4519 0.39698,-2.0133 0.1242,-0.56144 0.35219,-1.4825 0.50644,-2.0473 0.15426,-0.56428 0.3709,-1.314 0.48148,-1.6662 0.11002,-0.35218 0.33064,-1.0134 0.48943,-1.4694 0.15937,-0.4554 0.47412,-1.288 0.70039,-1.8494 0.22572,-0.56145 0.55919,-1.3526 0.74067,-1.7581 0.18148,-0.40549 0.58867,-1.2477 0.90512,-1.8715 0.31646,-0.62383 0.78773,-1.5046 1.048,-1.9566 0.26031,-0.45256 0.66354,-1.1285 0.89663,-1.5029 0.23309,-0.3743 0.66693,-1.0378 0.96353,-1.4745 0.2966,-0.43668 0.7951,-1.1387 1.1076,-1.5596 0.31248,-0.42137 0.77354,-1.0208 1.0242,-1.3327 0.25066,-0.31191 0.74179,-0.89888 1.0911,-1.3044 0.34935,-0.40549 1.001,-1.1258 1.4484,-1.601 0.44746,-0.47524 1.1711,-1.2 1.6078,-1.6106 0.43668,-0.41116 1.0747,-0.99359 1.4178,-1.2953 0.34311,-0.30171 0.9556,-0.81723 1.3611,-1.1456 0.40549,-0.32836 1.1076,-0.87166 1.5596,-1.2069 0.45256,-0.33517 1.2306,-0.88357 1.7297,-1.2193 0.49907,-0.33517 1.3543,-0.87733 1.8998,-1.204 0.54614,-0.32722 1.3243,-0.77411 1.7297,-0.99359 0.40549,-0.22004 1.0226,-0.54273 1.3719,-0.7174 0.34878,-0.17468 1.0634,-0.51212 1.5879,-0.75031 0.52401,-0.23762 1.3236,-0.58016 1.7756,-0.76051 0.45257,-0.18091 1.2561,-0.48205 1.7864,-0.6692 0.53026,-0.18715 1.3469,-0.45653 1.8148,-0.59944 0.46788,-0.14236 1.2885,-0.37317 1.8239,-0.51325 0.53479,-0.14007 1.39,-0.34368 1.8998,-0.45312 0.50927,-0.10946 1.3861,-0.27563 1.9475,-0.3692 0.56145,-0.0936 1.327,-0.21097 1.7014,-0.26088 0.3743,-0.0499 1.0253,-0.12419 1.4462,-0.16617 0.42137,-0.0414 0.89946,-0.0783 1.0634,-0.0822 z m 17.198,17.053 c 7.8449,0.0142 14.272,0.0335 14.284,0.0437 0.0113,0.009 0.0334,6.3795 0.0499,14.156 0.021,10.317 0.0113,14.456 -0.0369,15.316 -0.0357,0.64765 -0.11513,1.5789 -0.17638,2.07 -0.0607,0.49056 -0.16333,1.1852 -0.22798,1.5443 -0.0646,0.35842 -0.18148,0.93291 -0.25974,1.276 -0.0783,0.34311 -0.25407,1.0214 -0.39074,1.5068 -0.13724,0.48546 -0.39018,1.2726 -0.56315,1.7485 -0.17298,0.47581 -0.47071,1.2273 -0.6624,1.669 -0.19112,0.44178 -0.48376,1.0758 -0.65049,1.4082 -0.16673,0.33233 -0.49793,0.94482 -0.73612,1.3611 -0.23876,0.41626 -0.65106,1.0883 -0.9176,1.4938 -0.26598,0.40549 -0.69359,1.0191 -0.94936,1.3639 -0.25577,0.34424 -0.72875,0.94029 -1.0503,1.3243 -0.32156,0.38394 -0.94483,1.0696 -1.3844,1.5228 -0.43951,0.45369 -1.1178,1.1053 -1.508,1.4479 -0.38961,0.34253 -0.97658,0.83253 -1.3044,1.0883 -0.32723,0.25633 -0.92724,0.69812 -1.3327,0.98225 -0.40492,0.28356 -1.1194,0.74576 -1.5879,1.027 -0.46787,0.28073 -1.2465,0.71117 -1.7303,0.95617 -0.48375,0.24442 -1.284,0.61646 -1.778,0.82629 -0.49396,0.20984 -1.3872,0.54557 -1.9843,0.74633 -0.59717,0.20076 -1.4944,0.46618 -1.9934,0.59094 -0.49907,0.1242 -1.2392,0.2898 -1.6446,0.36806 -0.40549,0.0777 -1.1201,0.19225 -1.5879,0.25407 -0.46787,0.0624 -1.2687,0.14349 -1.7791,0.18091 -0.58356,0.0425 -1.5222,0.0562 -2.5237,0.0368 -1.0651,-0.021 -1.9158,-0.0692 -2.56,-0.14632 -0.53083,-0.0635 -1.2709,-0.16843 -1.6446,-0.23365 -0.3743,-0.0652 -1.0753,-0.20983 -1.559,-0.32155 -0.48318,-0.11116 -1.2488,-0.31305 -1.7014,-0.44746 -0.45199,-0.13497 -1.1666,-0.37203 -1.5879,-0.52686 -0.4208,-0.15482 -1.0463,-0.40152 -1.3894,-0.5484 -0.3431,-0.14632 -0.93007,-0.4157 -1.3044,-0.59831 -0.3743,-0.18205 -0.98282,-0.50077 -1.3526,-0.70777 -0.36976,-0.20643 -0.9953,-0.58073 -1.3894,-0.83083 -0.39472,-0.25009 -0.98508,-0.64878 -1.3128,-0.88584 -0.32723,-0.23706 -0.8365,-0.62157 -1.1303,-0.85465 -0.29433,-0.23252 -0.83026,-0.68395 -1.191,-1.0027 -0.36126,-0.31929 -1.0015,-0.93404 -1.424,-1.3662 -0.4225,-0.43215 -0.98565,-1.0412 -1.2522,-1.3531 -0.26654,-0.31191 -0.66296,-0.7968 -0.88187,-1.0775 -0.21834,-0.28072 -0.60795,-0.81098 -0.86543,-1.1785 -0.25804,-0.3675 -0.70719,-1.0639 -0.99926,-1.5471 -0.29207,-0.48318 -0.74634,-1.3055 -1.01,-1.8272 -0.26314,-0.52175 -0.63687,-1.3179 -0.83026,-1.77 -0.19339,-0.45257 -0.52629,-1.3458 -0.74009,-1.9849 -0.21437,-0.63972 -0.46674,-1.4649 -0.56145,-1.8336 -0.0941,-0.36862 -0.2484,-1.039 -0.34197,-1.4898 -0.0942,-0.4503 -0.23365,-1.297 -0.31135,-1.8817 -0.0771,-0.58414 -0.16673,-1.4535 -0.19849,-1.9316 -0.0323,-0.47808 -0.0584,-1.2993 -0.0584,-1.8244 0,-0.52516 0.0261,-1.3463 0.0584,-1.8244 0.0323,-0.47809 0.10946,-1.2596 0.17127,-1.7366 0.0618,-0.47638 0.17751,-1.2164 0.25634,-1.6446 0.0788,-0.42761 0.24329,-1.1728 0.36466,-1.6566 0.12136,-0.48376 0.3397,-1.2494 0.48431,-1.7014 0.14519,-0.45199 0.42875,-1.2437 0.63121,-1.7581 0.2019,-0.51495 0.61759,-1.4462 0.92383,-2.07 0.30625,-0.62383 0.78036,-1.5046 1.0532,-1.9566 0.27335,-0.45256 0.64255,-1.0396 0.82062,-1.3044 0.17865,-0.26542 0.55295,-0.7883 0.83197,-1.1626 0.27959,-0.3743 0.7106,-0.92214 0.95786,-1.2171 0.24783,-0.29546 0.74633,-0.85691 1.1081,-1.2477 0.36182,-0.39131 0.99983,-1.0219 1.4178,-1.4014 0.41796,-0.37997 0.99189,-0.87848 1.2749,-1.1087 0.28356,-0.22969 0.76335,-0.60343 1.0662,-0.83027 0.30341,-0.22685 0.91364,-0.64992 1.3566,-0.94028 0.44293,-0.2898 1.0849,-0.68792 1.4263,-0.88471 0.34197,-0.19622 1.1331,-0.60455 1.7581,-0.90796 0.62553,-0.30341 1.4365,-0.6692 1.8028,-0.81382 0.36579,-0.14404 1.0804,-0.40039 1.5879,-0.56882 0.50701,-0.16843 1.216,-0.38451 1.5744,-0.47978 0.35899,-0.0959 0.97148,-0.23989 1.3611,-0.32099 0.39018,-0.0811 1.001,-0.19623 1.3582,-0.25578 0.35729,-0.0596 1.0208,-0.14971 1.4745,-0.20018 0.45369,-0.0505 1.2335,-0.11003 1.7326,-0.13214 0.49906,-0.0221 7.326,-0.029 15.17,-0.0148 z"
           transform="translate(-211.00338,-391.00626)" />
      </g>
    </g>
  </g>
</svg>
