<svg width="810" height="194" viewBox="0 0 810 194" fill="none" xmlns="http://www.w3.org/2000/svg">
<path d="M136.96 0.25C136.12 0.26 134.99 0.279988 134.47 0.299988C133.95 0.329988 133.17 0.380013 132.75 0.420013C132.32 0.450013 131.62 0.520007 131.17 0.570007C130.73 0.620007 130.08 0.7 129.72 0.75C129.36 0.8 128.67 0.90999 128.18 0.98999C127.69 1.06999 126.84 1.23 126.3 1.34C125.77 1.45 125.03 1.61001 124.67 1.70001C124.31 1.78001 123.62 1.96 123.13 2.09C122.64 2.22 121.81 2.46 121.29 2.62C120.76 2.78 119.91 3.07 119.39 3.25C118.86 3.43 117.92 3.79001 117.28 4.04001C116.64 4.29001 115.72 4.67999 115.23 4.89999C114.74 5.11999 113.78 5.57999 113.09 5.92999C112.41 6.26999 111.49 6.74999 111.06 6.98999C110.63 7.22999 109.93 7.63 109.52 7.88C109.1 8.13 108.14 8.73999 107.39 9.23999C106.64 9.72999 105.57 10.48 105.02 10.9C104.46 11.32 103.68 11.93 103.27 12.26C102.87 12.58 102.17 13.17 101.73 13.56C101.28 13.95 100.47 14.69 99.92 15.22C99.37 15.74 98.54 16.58 98.07 17.07C97.61 17.57 96.92 18.32 96.55 18.74C96.19 19.17 95.53 19.95 95.1 20.49C94.67 21.03 93.98 21.93 93.58 22.48C93.18 23.04 92.52 23.98 92.13 24.59C91.73 25.19 91.15 26.11 90.84 26.64C90.53 27.16 90.12 27.88 89.92 28.24C89.72 28.6 89.29 29.43 88.96 30.09C88.63 30.75 88.18 31.69 87.97 32.17C87.75 32.65 87.38 33.52 87.15 34.09C86.92 34.66 86.58 35.56 86.4 36.08C86.21 36.6 85.92 37.47 85.75 38.01C85.59 38.56 85.32 39.48 85.16 40.07C85 40.65 84.76 41.61 84.62 42.2C84.49 42.79 84.29 43.77 84.18 44.39C84.06 45.02 83.92 45.91 83.85 46.38C83.78 46.86 83.69 47.61 83.64 48.05C83.59 48.49 83.5 49.31 83.45 49.89L83.35 50.93L83.33 67.25L83.31 83.57L67.01 83.55C58.04 83.54 50.7 83.55 50.69 83.58C50.68 83.61 50.19 83.67 49.61 83.71C49.02 83.76 48.08 83.85 47.53 83.92C46.97 83.98 46.08 84.1 45.54 84.19C45 84.27 43.96 84.46 43.22 84.61C42.49 84.75 41.33 85.02 40.64 85.19C39.95 85.37 39.01 85.62 38.56 85.76C38.1 85.89 37.29 86.15 36.76 86.33C36.23 86.51 35.47 86.77 35.07 86.92C34.67 87.07 33.9 87.37 33.35 87.6C32.81 87.82 32.06 88.15 31.69 88.31C31.32 88.48 30.46 88.9 29.78 89.24C29.1 89.58 28.18 90.06 27.73 90.31C27.29 90.56 26.59 90.96 26.18 91.21C25.77 91.45 24.94 91.98 24.34 92.38C23.73 92.77 22.79 93.43 22.24 93.83C21.69 94.23 20.79 94.91 20.25 95.34C19.71 95.78 18.92 96.44 18.49 96.81C18.07 97.18 17.32 97.86 16.82 98.32C16.33 98.79 15.49 99.62 14.97 100.17C14.44 100.72 13.7 101.53 13.31 101.98C12.92 102.42 12.34 103.12 12.01 103.52C11.68 103.93 11.09 104.69 10.69 105.22C10.29 105.74 9.61 106.71 9.18 107.35C8.74 108 8.11 108.97 7.79 109.51C7.46 110.05 6.99 110.85 6.75 111.29C6.5 111.74 6.02 112.66 5.67 113.34C5.33 114.03 4.91999 114.87 4.76999 115.21C4.61999 115.56 4.35 116.17 4.18 116.58C4 116.99 3.73 117.67 3.56 118.09C3.4 118.52 3.12 119.29 2.94 119.81C2.76 120.34 2.49 121.15 2.35 121.63C2.2 122.1 1.96999 122.89 1.83999 123.38C1.70999 123.87 1.53 124.56 1.45 124.92C1.36 125.28 1.19999 126.02 1.08999 126.55C0.979995 127.09 0.819996 127.94 0.739996 128.43C0.659996 128.92 0.539999 129.72 0.469999 130.21C0.409999 130.7 0.31 131.51 0.26 132.02C0.21 132.53 0.139999 133.33 0.109999 133.8C0.0799988 134.27 0.0300003 135.46 0.0100003 136.44C-0.00999968 137.53 -9.05246e-07 138.78 0.0399991 139.65C0.0799991 140.43 0.149995 141.53 0.199995 142.08C0.249995 142.64 0.350002 143.54 0.410002 144.07C0.480002 144.61 0.609997 145.53 0.709997 146.11C0.799997 146.68 0.969995 147.63 1.08999 148.21C1.20999 148.79 1.45 149.83 1.62 150.52C1.8 151.2 2.04 152.1 2.16 152.51C2.28 152.92 2.56 153.81 2.79 154.5C3.02 155.18 3.41 156.25 3.65 156.87C3.89 157.49 4.25 158.37 4.45 158.83C4.65 159.29 5.12999 160.3 5.51999 161.09C5.89999 161.87 6.46 162.95 6.76 163.49C7.07 164.03 7.57 164.89 7.88 165.39C8.19 165.9 8.77 166.81 9.18 167.41C9.59 168.02 10.23 168.93 10.61 169.43C10.98 169.94 11.51 170.62 11.77 170.95C12.03 171.27 12.46 171.79 12.72 172.1C12.98 172.41 13.55 173.05 13.97 173.53C14.4 174 15.22 174.85 15.79 175.43C16.36 176 17.22 176.82 17.69 177.25C18.16 177.67 18.9 178.31 19.33 178.67C19.75 179.03 20.45 179.59 20.87 179.92C21.29 180.24 21.97 180.75 22.38 181.05C22.79 181.34 23.56 181.88 24.1 182.24C24.64 182.6 25.47 183.13 25.93 183.41C26.4 183.69 27.12 184.12 27.53 184.34C27.94 184.57 28.75 185.01 29.35 185.32C29.94 185.63 30.81 186.05 31.29 186.27C31.76 186.49 32.56 186.84 33.07 187.05C33.57 187.26 34.47 187.62 35.06 187.84C35.65 188.06 36.58 188.39 37.14 188.57C37.69 188.75 38.57 189.02 39.1 189.17C39.62 189.32 40.43 189.54 40.91 189.65C41.38 189.77 42.27 189.98 42.89 190.11C43.51 190.23 44.49 190.42 45.06 190.51C45.63 190.61 46.55 190.74 47.08 190.8C47.62 190.87 48.5 190.97 49.04 191.02C49.58 191.06 50.61 191.14 51.33 191.17C52.15 191.22 53.42 191.23 54.71 191.21C55.86 191.19 57.31 191.13 57.95 191.08C58.58 191.03 59.55 190.94 60.1 190.87C60.65 190.81 61.53 190.69 62.06 190.61C62.59 190.52 63.31 190.41 63.65 190.34C64 190.28 64.73 190.13 65.29 190.01C65.84 189.89 66.71 189.68 67.21 189.55C67.72 189.42 68.63 189.17 69.23 188.99C69.83 188.81 70.79 188.5 71.37 188.31C71.94 188.11 72.99 187.72 73.69 187.44C74.39 187.16 75.43 186.72 76 186.46C76.58 186.2 77.41 185.8 77.86 185.58C78.31 185.35 79.1 184.94 79.62 184.65C80.13 184.37 80.98 183.89 81.5 183.57C82.02 183.26 83.01 182.63 83.7 182.17C84.38 181.71 85.41 180.99 85.99 180.56C86.56 180.13 87.43 179.45 87.92 179.05C88.4 178.65 89.12 178.04 89.52 177.69C89.91 177.35 90.93 176.37 91.78 175.52C92.63 174.67 93.59 173.69 93.9 173.33C94.22 172.98 94.79 172.31 95.17 171.85C95.56 171.38 96.14 170.67 96.45 170.26C96.77 169.86 97.31 169.13 97.64 168.66C97.98 168.19 98.47 167.48 98.73 167.09C98.99 166.69 99.46 165.96 99.77 165.45C100.08 164.95 100.6 164.05 100.93 163.46C101.26 162.87 101.75 161.95 102.02 161.42C102.28 160.88 102.73 159.93 103.01 159.31C103.29 158.69 103.71 157.68 103.95 157.08C104.19 156.48 104.49 155.66 104.63 155.27C104.76 154.88 105 154.18 105.14 153.72C105.29 153.27 105.53 152.47 105.67 151.96C105.82 151.44 106.04 150.59 106.17 150.06C106.3 149.53 106.48 148.7 106.58 148.23C106.68 147.76 106.84 146.89 106.94 146.3C107.04 145.71 107.18 144.82 107.24 144.31C107.31 143.8 107.4 142.95 107.44 142.41C107.49 141.87 107.55 141.22 107.57 140.97C107.59 140.72 107.64 140.51 107.67 140.51C107.71 140.51 107.71 135.03 107.68 124.2L107.64 107.89L123.95 107.92C133.7 107.94 140.27 107.93 140.3 107.9C140.33 107.87 140.85 107.8 141.45 107.76C142.05 107.71 143.08 107.6 143.74 107.52C144.39 107.44 145.48 107.28 146.14 107.17C146.81 107.06 147.81 106.87 148.37 106.75C148.92 106.63 149.75 106.44 150.2 106.33C150.66 106.21 151.53 105.98 152.13 105.8C152.74 105.62 153.7 105.32 154.28 105.12C154.85 104.93 155.58 104.67 155.91 104.55C156.23 104.44 156.92 104.16 157.44 103.95C157.96 103.74 158.8 103.38 159.31 103.15C159.82 102.91 160.66 102.52 161.16 102.27C161.67 102.01 162.47 101.59 162.95 101.33C163.42 101.07 164.24 100.6 164.77 100.29C165.3 99.97 166.3 99.33 166.99 98.87C167.68 98.41 168.74 97.66 169.34 97.21C169.94 96.76 170.88 96.02 171.42 95.58C171.95 95.13 172.84 94.36 173.39 93.87C173.93 93.37 174.93 92.4 175.6 91.72C176.27 91.04 177.15 90.09 177.56 89.62C177.98 89.14 178.59 88.42 178.92 88.01C179.26 87.6 179.87 86.82 180.29 86.26C180.7 85.71 181.35 84.8 181.72 84.24C182.1 83.69 182.61 82.91 182.86 82.51C183.11 82.11 183.56 81.36 183.86 80.84C184.16 80.33 184.69 79.35 185.04 78.66C185.39 77.97 185.9 76.93 186.17 76.34C186.44 75.76 186.87 74.73 187.14 74.06C187.41 73.39 187.81 72.32 188.03 71.68C188.25 71.04 188.56 70.08 188.73 69.54C188.89 69 189.18 67.94 189.37 67.17C189.56 66.4 189.8 65.37 189.9 64.88C190 64.39 190.15 63.59 190.23 63.1C190.31 62.61 190.43 61.82 190.5 61.35C190.56 60.87 190.66 60.09 190.71 59.6C190.75 59.11 190.82 58.35 190.86 57.9C190.89 57.46 190.94 56.13 190.96 54.94C190.98 53.57 190.97 52.3 190.92 51.49C190.88 50.79 190.81 49.77 190.77 49.23C190.72 48.7 190.62 47.83 190.56 47.3C190.49 46.78 190.37 45.95 190.29 45.46C190.21 44.97 190.08 44.28 190.02 43.92C189.95 43.56 189.78 42.74 189.63 42.11C189.49 41.47 189.23 40.45 189.07 39.85C188.91 39.25 188.52 38 188.22 37.09C187.91 36.18 187.44 34.88 187.18 34.22C186.91 33.55 186.49 32.57 186.25 32.02C186 31.48 185.52 30.48 185.18 29.81C184.84 29.14 184.28 28.09 183.92 27.47C183.56 26.85 182.99 25.89 182.63 25.33C182.28 24.77 181.82 24.07 181.6 23.76C181.39 23.45 181 22.9 180.74 22.54C180.48 22.18 180 21.54 179.67 21.11C179.34 20.69 178.79 20.01 178.45 19.6C178.11 19.19 177.48 18.47 177.05 18C176.63 17.52 175.76 16.61 175.12 15.98C174.48 15.34 173.58 14.48 173.12 14.07C172.66 13.66 171.98 13.07 171.61 12.76C171.23 12.45 170.62 11.95 170.25 11.66C169.87 11.37 169.2 10.86 168.76 10.54C168.32 10.22 167.5 9.64001 166.92 9.26001C166.35 8.88001 165.5 8.33999 165.02 8.04999C164.55 7.75999 163.76 7.3 163.27 7.03C162.78 6.75 161.78 6.22999 161.04 5.85999C160.31 5.48999 159.32 5.02001 158.85 4.82001C158.37 4.61001 157.57 4.27001 157.07 4.07001C156.56 3.87001 155.61 3.51 154.96 3.28C154.3 3.05 153.32 2.73 152.76 2.56C152.2 2.39 151.14 2.08999 150.38 1.89999C149.63 1.70999 148.42 1.43001 147.68 1.29001C146.95 1.14001 145.89 0.949995 145.34 0.869995C144.78 0.779995 143.87 0.660006 143.32 0.600006C142.76 0.540006 141.96 0.460013 141.54 0.420013C141.11 0.390013 140.26 0.329988 139.64 0.299988C139.02 0.269988 137.81 0.25 136.96 0.25V0.25ZM137.68 6.63C138.69 6.64 139.91 6.67999 140.38 6.70999C140.85 6.74999 141.72 6.83001 142.31 6.89001C142.9 6.96001 143.82 7.08 144.36 7.16C144.9 7.25 145.82 7.40999 146.41 7.51999C147 7.63999 148.01 7.87 148.65 8.03C149.3 8.19 150.31 8.47001 150.89 8.64001C151.48 8.82001 152.37 9.11999 152.89 9.29999C153.4 9.47999 154.22 9.79001 154.7 9.98001C155.19 10.18 155.97 10.51 156.44 10.72C156.91 10.93 157.78 11.35 158.38 11.65C158.98 11.95 159.71 12.33 160.01 12.49C160.3 12.65 160.93 13.02 161.4 13.3C161.88 13.58 162.79 14.16 163.43 14.58C164.07 15.01 165.05 15.71 165.62 16.14C166.19 16.57 167 17.2 167.41 17.54C167.82 17.89 168.57 18.54 169.07 19C169.57 19.45 170.48 20.33 171.08 20.95C171.69 21.56 172.58 22.53 173.07 23.11C173.56 23.68 174.23 24.49 174.56 24.92C174.89 25.34 175.38 25.98 175.64 26.34C175.9 26.7 176.32 27.32 176.59 27.71C176.85 28.1 177.26 28.74 177.51 29.13C177.75 29.52 178.18 30.25 178.47 30.75C178.76 31.25 179.27 32.22 179.61 32.9C179.95 33.58 180.39 34.5 180.58 34.94C180.78 35.38 181.11 36.18 181.32 36.72C181.53 37.26 181.87 38.17 182.07 38.76C182.27 39.34 182.6 40.41 182.81 41.13C183.02 41.85 183.31 42.98 183.46 43.65C183.61 44.32 183.8 45.26 183.88 45.73C183.96 46.2 184.09 47.05 184.17 47.63C184.25 48.2 184.36 49.12 184.41 49.68C184.46 50.23 184.53 51.2 184.56 51.82C184.59 52.44 184.62 53.47 184.62 54.1C184.62 54.74 184.6 55.77 184.56 56.39C184.53 57.01 184.48 57.84 184.44 58.23C184.41 58.62 184.33 59.39 184.26 59.92C184.19 60.46 184.09 61.24 184.02 61.64C183.96 62.05 183.81 62.85 183.7 63.41C183.59 63.97 183.4 64.82 183.28 65.31C183.17 65.79 182.92 66.68 182.75 67.29C182.58 67.89 182.27 68.87 182.07 69.46C181.87 70.04 181.53 70.95 181.32 71.47C181.12 72 180.78 72.81 180.57 73.29C180.36 73.76 179.94 74.64 179.63 75.24C179.33 75.85 178.88 76.7 178.64 77.14C178.39 77.59 177.94 78.36 177.63 78.87C177.32 79.37 176.81 80.16 176.5 80.62C176.19 81.08 175.6 81.91 175.18 82.46C174.77 83.02 174.15 83.8 173.81 84.21C173.48 84.62 172.89 85.3 172.51 85.73C172.14 86.15 171.35 86.98 170.76 87.57C170.17 88.16 169.37 88.93 168.99 89.28C168.61 89.62 167.95 90.19 167.54 90.54C167.12 90.89 166.26 91.56 165.62 92.04C164.98 92.52 164.14 93.13 163.75 93.39C163.36 93.66 162.68 94.1 162.23 94.38C161.79 94.65 161.02 95.12 160.51 95.41C160.01 95.7 159.04 96.21 158.37 96.54C157.7 96.87 156.78 97.31 156.32 97.52C155.87 97.72 155 98.08 154.39 98.32C153.79 98.56 152.81 98.91 152.21 99.11C151.61 99.31 150.67 99.61 150.1 99.77C149.54 99.93 148.56 100.18 147.92 100.33C147.29 100.48 146.39 100.67 145.93 100.75C145.47 100.84 144.67 100.97 144.15 101.05C143.63 101.13 142.67 101.25 142.03 101.31C141.38 101.38 140.74 101.43 140.59 101.43H140.32V89.81L140.81 89.77C141.08 89.75 141.76 89.66 142.32 89.58C142.88 89.5 143.69 89.37 144.1 89.29C144.52 89.2 145.29 89.03 145.81 88.9C146.34 88.77 147.16 88.54 147.65 88.39C148.14 88.24 148.95 87.97 149.44 87.79C149.93 87.61 150.68 87.31 151.1 87.14C151.52 86.96 152.33 86.59 152.88 86.32C153.44 86.04 154.3 85.58 154.81 85.29C155.32 85.01 156.03 84.58 156.4 84.35C156.76 84.11 157.43 83.67 157.87 83.35C158.31 83.04 159.01 82.51 159.41 82.19C159.82 81.86 160.48 81.31 160.88 80.96C161.28 80.61 162.01 79.92 162.5 79.43C162.99 78.94 163.66 78.23 163.99 77.86C164.32 77.48 164.89 76.81 165.25 76.36C165.61 75.91 166.17 75.16 166.49 74.7C166.81 74.23 167.24 73.6 167.44 73.29C167.64 72.97 168.01 72.36 168.26 71.92C168.52 71.48 168.96 70.65 169.25 70.07C169.54 69.49 169.94 68.64 170.14 68.17C170.34 67.7 170.62 67.01 170.76 66.63C170.9 66.26 171.15 65.52 171.32 65C171.49 64.48 171.74 63.6 171.88 63.04C172.02 62.49 172.22 61.63 172.32 61.14C172.42 60.65 172.55 59.88 172.62 59.42C172.69 58.96 172.78 58.19 172.83 57.71C172.88 57.23 172.95 56.23 172.98 55.49C173.02 54.63 173.02 53.64 172.98 52.76C172.95 52 172.88 50.98 172.83 50.5C172.78 50.02 172.69 49.25 172.62 48.81C172.56 48.36 172.42 47.59 172.32 47.09C172.22 46.59 172.03 45.72 171.88 45.16C171.74 44.61 171.45 43.62 171.24 42.96C171.02 42.3 170.68 41.34 170.47 40.82C170.26 40.31 169.91 39.49 169.69 39.02C169.47 38.55 169.08 37.76 168.81 37.27C168.55 36.78 168.13 36.04 167.89 35.63C167.64 35.23 167.2 34.53 166.9 34.09C166.6 33.65 166.16 33.02 165.91 32.69C165.67 32.37 165.21 31.78 164.89 31.39C164.57 31 164 30.35 163.63 29.94C163.26 29.53 162.62 28.86 162.2 28.45C161.78 28.04 161.11 27.42 160.72 27.08C160.33 26.74 159.65 26.17 159.21 25.83C158.76 25.48 158 24.92 157.5 24.58C157.01 24.23 156.26 23.74 155.84 23.49C155.42 23.23 154.74 22.84 154.34 22.62C153.93 22.39 153.26 22.04 152.85 21.85C152.44 21.65 151.87 21.38 151.57 21.25C151.28 21.12 150.71 20.88 150.3 20.72C149.89 20.55 149.17 20.29 148.7 20.13C148.24 19.97 147.43 19.72 146.92 19.57C146.41 19.43 145.56 19.21 145.04 19.09C144.52 18.97 143.64 18.8 143.08 18.71C142.53 18.62 141.7 18.5 141.24 18.45C140.78 18.39 140.05 18.33 139.61 18.29C139.17 18.26 138.06 18.23 137.14 18.23C136.23 18.23 135.11 18.26 134.65 18.29C134.19 18.33 133.46 18.39 133.02 18.45C132.57 18.5 131.8 18.6 131.29 18.69C130.79 18.77 129.9 18.94 129.32 19.07C128.74 19.2 127.89 19.41 127.42 19.54C126.95 19.68 126.17 19.92 125.68 20.08C125.19 20.25 124.39 20.54 123.91 20.74C123.42 20.93 122.6 21.29 122.07 21.53C121.55 21.77 120.72 22.19 120.23 22.45C119.74 22.72 119.07 23.09 118.74 23.29C118.41 23.49 117.74 23.92 117.25 24.25C116.76 24.57 116 25.12 115.56 25.45C115.12 25.79 114.41 26.35 113.98 26.71C113.56 27.06 112.73 27.82 112.15 28.39C111.56 28.96 110.8 29.75 110.45 30.14C110.1 30.53 109.63 31.08 109.4 31.36C109.17 31.63 108.74 32.19 108.44 32.59C108.14 32.99 107.64 33.69 107.32 34.16C107.01 34.63 106.54 35.37 106.28 35.81C106.01 36.25 105.5 37.2 105.13 37.92C104.77 38.64 104.3 39.63 104.1 40.11C103.89 40.6 103.6 41.35 103.44 41.78C103.28 42.21 103.03 42.95 102.88 43.44C102.73 43.92 102.52 44.67 102.4 45.11C102.29 45.55 102.1 46.36 101.99 46.92C101.87 47.48 101.71 48.39 101.63 48.95C101.55 49.51 101.47 50.18 101.45 50.44L101.41 50.9H89.77L89.81 50.35C89.83 50.05 89.9 49.32 89.97 48.73C90.03 48.14 90.18 47.08 90.29 46.38C90.41 45.68 90.59 44.68 90.71 44.17C90.82 43.65 90.99 42.9 91.09 42.5C91.19 42.11 91.42 41.28 91.6 40.66C91.78 40.04 92.1 39.05 92.3 38.46C92.51 37.87 92.86 36.95 93.07 36.42C93.29 35.89 93.65 35.04 93.88 34.53C94.11 34.02 94.45 33.31 94.63 32.95C94.81 32.58 95.15 31.93 95.38 31.51C95.61 31.08 96.04 30.33 96.33 29.84C96.62 29.35 97.19 28.46 97.59 27.85C97.99 27.25 98.61 26.37 98.96 25.89C99.31 25.42 99.88 24.69 100.23 24.26C100.57 23.84 101.12 23.18 101.45 22.81C101.78 22.43 102.43 21.72 102.91 21.23C103.38 20.74 104.08 20.05 104.45 19.69C104.83 19.33 105.44 18.77 105.82 18.44C106.19 18.11 106.81 17.58 107.2 17.27C107.58 16.95 108.3 16.39 108.8 16.02C109.3 15.65 110.04 15.12 110.45 14.84C110.86 14.56 111.5 14.14 111.88 13.9C112.25 13.66 113.06 13.17 113.69 12.82C114.31 12.46 115.4 11.88 116.12 11.53C116.84 11.17 117.75 10.74 118.14 10.57C118.53 10.4 119.25 10.11 119.73 9.91C120.21 9.72 121.15 9.37999 121.83 9.14999C122.5 8.91999 123.56 8.59 124.19 8.41C124.81 8.23 125.73 7.99 126.22 7.88C126.71 7.76 127.44 7.59999 127.85 7.51999C128.26 7.43999 128.91 7.32 129.3 7.25C129.7 7.19 130.42 7.07999 130.91 7.01999C131.4 6.94999 132.27 6.85999 132.84 6.79999C133.41 6.74999 134.32 6.67999 134.86 6.64999C135.4 6.62999 136.67 6.61 137.68 6.63V6.63ZM253.78 7.14001C241.31 7.14001 234.18 11.74 230.3 15.61C225.83 20.21 223.41 26.14 223.41 32.43C223.53 49 240.23 53.96 251.36 57.96C263.7 62.43 269.39 65.7 269.39 70.78C269.39 75.02 266.84 78.04 263.46 79.62C259.1 81.67 254.63 80.22 250.51 79.98C246.52 79.74 243.13 82.52 243.13 87.6C243.13 93.77 251.6 96.19 257.89 96.19C277.13 96.19 285.48 83.73 285.48 71.75C285.48 56.87 271.81 50.33 256.32 44.41C243.74 39.57 239.5 36.3 239.5 32.43C239.5 26.5 245.19 22.26 253.29 22.26C262.61 22.26 267.69 27.35 269.87 29.28C272.9 31.94 277.25 32.31 280.15 28.68C282.33 25.89 282.7 22.02 280.52 19.12C277.37 14.64 267.93 7.14001 253.78 7.14001V7.14001ZM692.71 7.14001C668.15 7.14001 648.19 26.98 648.19 51.67C648.19 76.23 668.15 96.19 692.71 96.19C703.24 96.19 715.34 92.44 723.33 86.75C724.9 85.66 726.11 84.57 726.84 83.12C727.68 81.31 727.68 79.62 727.68 77.44V58.44C727.68 54.09 724.17 50.46 719.7 50.46C715.22 50.46 711.71 54.09 711.71 58.44V75.14C706.39 78.16 699.01 80.1 692.71 80.1C676.99 80.1 664.28 67.4 664.28 51.67C664.28 35.94 676.99 23.23 692.71 23.23C700.34 23.23 706.27 25.77 711.35 28.31C715.22 30.37 720.06 30.85 722.48 27.47C725.02 23.84 724.78 19 721.39 16.21C712.2 8.70999 700.82 7.14001 692.71 7.14001V7.14001ZM393.07 9.31C391.72 9.29 390.45 9.65001 389.32 10.29C385.45 12.34 385.08 15.97 385.08 19V86.03C385.08 90.38 388.71 94.01 393.07 94.01C397.55 94.01 401.18 90.38 401.18 86.03V38.11L443.16 89.54C444.49 91.11 445.46 92.2 447.28 93.17C450.66 94.86 453.69 93.77 455.62 92.32C458.04 90.26 458.65 87.84 458.65 85.06V41.26C458.65 36.9 455.02 33.27 450.54 33.27C446.19 33.27 442.56 36.9 442.56 41.38V65.34L400.09 13.19C397.74 10.47 395.3 9.35 393.07 9.31V9.31ZM356.48 9.32001C352 9.32001 348.49 12.95 348.49 17.3C348.49 21.78 352 25.41 356.48 25.41C360.96 25.41 364.46 21.78 364.46 17.3C364.46 12.95 360.96 9.32001 356.48 9.32001ZM450.66 9.32001C446.19 9.32001 442.56 12.83 442.56 17.3C442.56 21.78 446.19 25.29 450.66 25.29C455.02 25.29 458.65 21.78 458.65 17.3C458.65 12.83 455.02 9.32001 450.66 9.32001ZM492.67 9.32001C488.31 9.32001 484.68 12.95 484.68 17.3V86.03C484.68 90.38 488.31 94.01 492.67 94.01H533.81C538.28 94.01 541.79 90.38 541.79 86.03C541.79 81.55 538.28 77.92 533.81 77.92H500.78V59.29H528.85C533.32 59.29 536.83 56.02 536.83 51.67C536.83 47.19 533.32 43.92 528.85 43.92H500.78V25.41H509.37C513.72 25.41 517.35 21.78 517.35 17.3C517.35 12.95 513.72 9.32001 509.37 9.32001H492.67ZM533.44 9.32001C528.97 9.32001 525.34 12.95 525.34 17.3C525.34 21.78 528.97 25.41 533.44 25.41C537.8 25.41 541.43 21.78 541.43 17.3C541.43 12.95 537.8 9.32001 533.44 9.32001ZM573.36 9.32001C569.01 9.32001 565.38 12.95 565.38 17.3V86.03C565.38 90.38 569.01 94.01 573.36 94.01C577.84 94.01 581.47 90.38 581.47 86.03V64.25H599.01L602.64 70.06C604.94 73.81 609.9 74.9 613.65 72.48C621.03 67.76 615.11 60.01 615.11 60.01C623.45 55.29 627.93 46.7 627.93 36.3C627.93 19.84 616.68 9.32001 599.38 9.32001H573.36V9.32001ZM802.01 9.32001C797.54 9.32001 794.03 12.95 794.03 17.3C794.03 21.78 797.54 25.41 802.01 25.41C806.49 25.41 810 21.78 810 17.3C810 12.95 806.49 9.32001 802.01 9.32001ZM305.23 9.32999C303.69 9.27999 302.11 9.67 300.7 10.53C296.95 12.95 295.86 17.91 298.16 21.66L322.84 60.38L322.72 86.03C322.72 90.38 326.35 94.01 330.83 94.01C335.19 94.01 338.81 90.38 338.81 86.03V60.13L350.31 42.11C352.73 38.36 351.64 33.39 347.89 30.97C344.14 28.68 339.18 29.76 336.76 33.52L330.71 43.07L311.71 13.07C310.28 10.72 307.8 9.41999 305.23 9.32999V9.32999ZM750.76 9.32999C749.22 9.27999 747.64 9.67 746.24 10.53C742.49 12.95 741.4 17.91 743.7 21.66L768.38 60.38L768.26 86.03C768.26 90.38 771.89 94.01 776.36 94.01C780.72 94.01 784.35 90.38 784.35 86.03V60.13L795.84 42.11C798.26 38.36 797.17 33.39 793.42 30.97C789.67 28.68 784.71 29.76 782.29 33.52L776.24 43.07L757.25 13.07C755.81 10.72 753.33 9.41999 750.76 9.32999V9.32999ZM137.44 24.62C138.59 24.63 139.55 24.67 140.14 24.73C140.65 24.79 141.53 24.91 142.1 25.01C142.67 25.11 143.63 25.31 144.23 25.45C144.83 25.6 145.75 25.86 146.28 26.04C146.81 26.21 147.57 26.49 147.98 26.65C148.39 26.82 149.1 27.13 149.57 27.34C150.03 27.55 150.8 27.94 151.28 28.21C151.76 28.47 152.47 28.89 152.86 29.14C153.26 29.39 153.87 29.81 154.24 30.07C154.6 30.33 155.15 30.74 155.46 30.99C155.77 31.24 156.31 31.69 156.65 31.99C157 32.29 157.7 32.97 158.23 33.5C158.75 34.04 159.43 34.78 159.74 35.16C160.06 35.54 160.51 36.11 160.76 36.44C161 36.76 161.42 37.35 161.68 37.74C161.94 38.13 162.33 38.75 162.54 39.11C162.75 39.47 163.09 40.07 163.29 40.45C163.49 40.82 163.8 41.46 163.99 41.87C164.17 42.28 164.43 42.88 164.56 43.21C164.69 43.53 164.91 44.13 165.05 44.54C165.19 44.96 165.41 45.63 165.52 46.04C165.64 46.45 165.81 47.13 165.91 47.55C166.01 47.97 166.15 48.71 166.23 49.2C166.32 49.69 166.43 50.5 166.49 50.99C166.57 51.69 166.6 52.34 166.6 54.1C166.6 55.87 166.57 56.51 166.49 57.22C166.43 57.71 166.31 58.51 166.23 59C166.15 59.49 166.01 60.24 165.91 60.66C165.81 61.08 165.64 61.76 165.52 62.17C165.4 62.58 165.18 63.31 165.01 63.77C164.85 64.24 164.57 64.98 164.39 65.41C164.21 65.84 163.87 66.59 163.63 67.08C163.39 67.57 163 68.3 162.76 68.71C162.53 69.12 162.09 69.83 161.79 70.29C161.49 70.74 161.02 71.41 160.75 71.77C160.48 72.13 160 72.73 159.69 73.11C159.37 73.48 158.61 74.3 157.99 74.92C157.37 75.54 156.53 76.33 156.12 76.67C155.71 77 155.09 77.5 154.72 77.77C154.36 78.04 153.72 78.49 153.3 78.76C152.87 79.04 152.17 79.48 151.73 79.72C151.3 79.97 150.68 80.31 150.37 80.46C150.05 80.62 149.44 80.91 149.02 81.1C148.59 81.28 147.87 81.58 147.41 81.75C146.95 81.92 146.22 82.17 145.78 82.3C145.34 82.44 144.54 82.65 144 82.78C143.46 82.91 142.64 83.09 142.16 83.17C141.69 83.25 140.94 83.36 140.5 83.41C140.06 83.46 139.18 83.53 138.54 83.56C137.7 83.61 133.3 83.62 122.54 83.59C114.37 83.57 107.69 83.55 107.68 83.54C107.67 83.53 107.66 76.56 107.66 68.06C107.65 57.27 107.67 52.35 107.71 51.82C107.75 51.39 107.81 50.82 107.84 50.54C107.88 50.26 107.98 49.58 108.08 49.01C108.17 48.45 108.38 47.5 108.53 46.9C108.68 46.31 108.95 45.35 109.14 44.78C109.33 44.21 109.66 43.32 109.88 42.81C110.09 42.3 110.47 41.47 110.72 40.97C110.97 40.47 111.34 39.78 111.53 39.44C111.73 39.09 112.14 38.43 112.44 37.97C112.75 37.5 113.19 36.86 113.43 36.55C113.66 36.23 114.05 35.73 114.29 35.43C114.54 35.14 115.05 34.54 115.44 34.11C115.83 33.68 116.45 33.05 116.82 32.71C117.19 32.37 117.73 31.89 118.02 31.63C118.31 31.38 118.92 30.89 119.37 30.55C119.81 30.22 120.52 29.72 120.94 29.44C121.36 29.16 122.06 28.73 122.5 28.47C122.94 28.22 123.76 27.79 124.31 27.52C124.87 27.26 125.72 26.88 126.21 26.68C126.7 26.48 127.48 26.2 127.94 26.05C128.39 25.91 129.01 25.72 129.3 25.64C129.6 25.56 130.2 25.41 130.64 25.31C131.09 25.21 131.83 25.06 132.3 24.98C132.78 24.9 133.59 24.79 134.11 24.74C134.64 24.69 135.2 24.64 135.36 24.62C135.52 24.61 136.46 24.61 137.44 24.62V24.62ZM581.47 24.93H599.38C607.73 24.93 611.84 29.89 611.84 37.27C611.84 44.04 608.57 50.33 599.01 50.33H581.47V24.93ZM695.74 50.46C691.26 50.46 687.63 54.09 687.63 58.44C687.63 62.92 691.26 66.55 695.74 66.55C700.1 66.55 703.72 62.92 703.72 58.44C703.72 54.09 700.1 50.46 695.74 50.46ZM229.94 68.97C225.59 68.97 221.96 72.48 221.96 76.95C221.96 81.43 225.59 84.94 229.94 84.94C234.42 84.94 238.05 81.43 238.05 76.95C238.05 72.48 234.42 68.97 229.94 68.97ZM622.49 77.8C618.13 77.8 614.5 81.43 614.5 85.91C614.5 90.26 618.13 93.89 622.49 93.89C626.96 93.89 630.47 90.26 630.47 85.91C630.47 81.43 626.96 77.8 622.49 77.8ZM50.65 90.03V101.65L50.19 101.7C49.93 101.72 49.27 101.8 48.72 101.88C48.16 101.96 47.29 102.11 46.79 102.21C46.28 102.31 45.47 102.5 44.97 102.62C44.48 102.75 43.68 102.98 43.19 103.13C42.7 103.28 41.85 103.57 41.29 103.78C40.73 103.99 39.85 104.35 39.33 104.58C38.81 104.81 37.92 105.24 37.36 105.53C36.79 105.83 35.92 106.31 35.43 106.61C34.93 106.91 34.19 107.38 33.78 107.65C33.37 107.93 32.73 108.39 32.36 108.67C31.98 108.95 31.27 109.51 30.78 109.92C30.29 110.33 29.28 111.28 28.52 112.03C27.77 112.78 26.85 113.76 26.48 114.2C26.11 114.64 25.49 115.43 25.1 115.94C24.71 116.46 24.17 117.22 23.9 117.63C23.63 118.05 23.24 118.66 23.04 118.99C22.85 119.32 22.47 119.99 22.2 120.48C21.94 120.97 21.53 121.8 21.29 122.31C21.05 122.83 20.67 123.7 20.46 124.24C20.24 124.78 19.94 125.63 19.77 126.12C19.61 126.62 19.37 127.42 19.23 127.9C19.1 128.39 18.9 129.21 18.79 129.73C18.67 130.26 18.52 131.1 18.43 131.6C18.35 132.11 18.25 132.87 18.2 133.29C18.15 133.72 18.08 134.52 18.04 135.08C18 135.72 17.98 136.8 18 138.04C18.02 139.18 18.07 140.37 18.13 140.87C18.18 141.34 18.28 142.1 18.35 142.56C18.41 143.02 18.55 143.8 18.65 144.31C18.74 144.82 18.9 145.55 19 145.94C19.1 146.34 19.3 147.07 19.45 147.58C19.6 148.08 19.89 148.97 20.1 149.55C20.31 150.13 20.66 151.01 20.87 151.51C21.09 152.01 21.53 152.94 21.85 153.57C22.17 154.21 22.67 155.12 22.95 155.59C23.23 156.07 23.7 156.81 24 157.26C24.29 157.7 24.79 158.41 25.11 158.83C25.43 159.25 25.97 159.94 26.31 160.35C26.65 160.75 27.27 161.46 27.7 161.91C28.12 162.36 28.85 163.09 29.32 163.53C29.79 163.97 30.47 164.58 30.84 164.89C31.21 165.2 31.9 165.74 32.37 166.09C32.84 166.45 33.61 166.99 34.08 167.3C34.55 167.62 35.31 168.09 35.77 168.36C36.23 168.63 37.23 169.16 38 169.54C38.77 169.92 39.88 170.43 40.46 170.66C41.05 170.9 41.85 171.2 42.24 171.33C42.64 171.47 43.37 171.69 43.87 171.84C44.37 171.98 45.24 172.21 45.81 172.34C46.38 172.48 47.31 172.66 47.87 172.76C48.44 172.85 49.27 172.97 49.73 173.02C50.18 173.07 50.92 173.14 51.36 173.17C51.8 173.21 52.94 173.24 53.88 173.24C54.91 173.24 56.06 173.2 56.73 173.14C57.35 173.09 58.33 172.98 58.9 172.9C59.47 172.82 60.46 172.65 61.1 172.52C61.74 172.39 62.65 172.18 63.13 172.04C63.61 171.91 64.43 171.67 64.94 171.5C65.46 171.34 66.31 171.03 66.83 170.83C67.35 170.62 68.03 170.34 68.34 170.21C68.65 170.07 69.38 169.72 69.95 169.44C70.52 169.15 71.39 168.68 71.88 168.39C72.37 168.11 73.17 167.6 73.66 167.28C74.15 166.95 74.9 166.42 75.32 166.11C75.75 165.79 76.39 165.28 76.75 164.98C77.11 164.68 77.8 164.07 78.28 163.63C78.76 163.19 79.54 162.41 80.01 161.9C80.48 161.39 81.11 160.67 81.41 160.31C81.71 159.96 82.22 159.32 82.54 158.89C82.86 158.47 83.35 157.78 83.62 157.36C83.9 156.95 84.35 156.25 84.61 155.82C84.86 155.38 85.26 154.7 85.48 154.29C85.7 153.88 86.03 153.24 86.21 152.86C86.38 152.49 86.68 151.82 86.87 151.37C87.06 150.93 87.4 150.08 87.61 149.49C87.83 148.9 88.15 147.91 88.32 147.3C88.5 146.68 88.74 145.75 88.85 145.23C88.97 144.71 89.13 143.87 89.22 143.36C89.3 142.85 89.42 142.03 89.48 141.52L89.58 140.6L95.4 140.58L101.22 140.57L101.2 140.82C101.19 140.96 101.14 141.5 101.09 142.02C101.04 142.55 100.93 143.46 100.85 144.04C100.77 144.63 100.61 145.61 100.5 146.21C100.38 146.81 100.16 147.85 100 148.5C99.84 149.16 99.6 150.08 99.46 150.55C99.33 151.02 99.06 151.88 98.87 152.46C98.67 153.03 98.32 154.01 98.08 154.62C97.83 155.24 97.47 156.11 97.28 156.55C97.08 156.99 96.64 157.92 96.29 158.61C95.95 159.3 95.41 160.31 95.1 160.86C94.78 161.41 94.23 162.31 93.88 162.87C93.53 163.42 92.96 164.27 92.62 164.74C92.29 165.22 91.74 165.95 91.42 166.37C91.09 166.8 90.51 167.52 90.12 167.97C89.73 168.43 88.98 169.27 88.45 169.85C87.92 170.42 87.1 171.25 86.63 171.69C86.16 172.13 85.51 172.74 85.18 173.03C84.85 173.32 84.18 173.88 83.69 174.28C83.2 174.67 82.45 175.26 82 175.59C81.56 175.91 80.87 176.41 80.46 176.69C80.05 176.96 79.33 177.43 78.86 177.73C78.38 178.02 77.55 178.51 77.02 178.82C76.48 179.12 75.42 179.67 74.67 180.04C73.92 180.41 72.92 180.87 72.44 181.07C71.97 181.28 71.1 181.62 70.51 181.84C69.92 182.06 69.07 182.37 68.61 182.52C68.15 182.67 67.4 182.9 66.94 183.03C66.48 183.16 65.68 183.37 65.16 183.5C64.64 183.63 63.82 183.81 63.33 183.91C62.84 184.01 62.02 184.16 61.52 184.24C61.01 184.32 60.27 184.43 59.88 184.48C59.49 184.53 58.75 184.61 58.25 184.66C57.74 184.71 56.55 184.78 55.59 184.82C54.24 184.88 53.48 184.88 52.15 184.82C51.21 184.79 50.01 184.71 49.49 184.66C48.97 184.61 48.13 184.52 47.62 184.45C47.11 184.38 46.32 184.27 45.87 184.19C45.41 184.11 44.58 183.95 44.03 183.83C43.47 183.72 42.55 183.5 41.98 183.35C41.41 183.2 40.54 182.96 40.05 182.81C39.56 182.66 38.71 182.39 38.16 182.19C37.61 182 36.68 181.64 36.08 181.4C35.49 181.16 34.61 180.79 34.14 180.57C33.67 180.35 32.77 179.91 32.15 179.59C31.53 179.27 30.66 178.8 30.22 178.55C29.78 178.29 29.06 177.86 28.62 177.58C28.17 177.3 27.43 176.81 26.95 176.48C26.48 176.15 25.77 175.64 25.38 175.35C24.99 175.06 24.35 174.55 23.95 174.23C23.56 173.92 22.96 173.41 22.62 173.11C22.27 172.81 21.56 172.15 21.03 171.64C20.49 171.14 19.7 170.34 19.25 169.86C18.81 169.39 18.13 168.62 17.73 168.16C17.33 167.69 16.74 166.97 16.41 166.54C16.08 166.12 15.49 165.33 15.11 164.8C14.73 164.26 14.12 163.36 13.77 162.81C13.42 162.25 12.89 161.37 12.59 160.85C12.29 160.33 11.73 159.27 11.34 158.5C10.96 157.74 10.44 156.63 10.19 156.04C9.94 155.45 9.6 154.62 9.44 154.19C9.27 153.76 8.99 152.97 8.81 152.44C8.63 151.9 8.34 150.96 8.17 150.34C7.99 149.72 7.73 148.73 7.6 148.14C7.46 147.56 7.26 146.58 7.14 145.96C7.03 145.35 6.87 144.34 6.79 143.73C6.71 143.12 6.6 142.19 6.55 141.67C6.51 141.15 6.43 139.96 6.39 139.04C6.34 137.76 6.34 136.97 6.39 135.71C6.43 134.81 6.5 133.62 6.55 133.09C6.6 132.55 6.7 131.69 6.76 131.19C6.83 130.68 6.96 129.8 7.06 129.23C7.16 128.65 7.35 127.71 7.48 127.12C7.61 126.53 7.85 125.57 8.01 124.97C8.17 124.38 8.4 123.6 8.51 123.23C8.63 122.86 8.86 122.17 9.03 121.69C9.19 121.21 9.52 120.34 9.76 119.75C10 119.17 10.35 118.34 10.54 117.91C10.73 117.49 11.15 116.61 11.48 115.95C11.81 115.3 12.31 114.38 12.58 113.9C12.85 113.43 13.28 112.72 13.52 112.33C13.76 111.94 14.22 111.24 14.53 110.79C14.84 110.33 15.36 109.6 15.69 109.15C16.01 108.71 16.5 108.08 16.76 107.76C17.02 107.43 17.54 106.82 17.9 106.39C18.27 105.97 18.95 105.21 19.42 104.71C19.89 104.22 20.65 103.46 21.1 103.03C21.56 102.6 22.23 101.99 22.59 101.67C22.95 101.36 23.59 100.82 24.01 100.47C24.44 100.13 25.17 99.56 25.65 99.21C26.12 98.86 26.93 98.29 27.46 97.93C27.98 97.58 28.88 97.01 29.45 96.67C30.02 96.33 30.83 95.86 31.26 95.63C31.68 95.4 32.33 95.06 32.7 94.88C33.06 94.7 33.81 94.34 34.36 94.09C34.91 93.84 35.74 93.49 36.22 93.3C36.69 93.11 37.53 92.79 38.09 92.6C38.64 92.4 39.5 92.12 39.99 91.97C40.48 91.82 41.34 91.58 41.9 91.43C42.46 91.28 43.35 91.07 43.89 90.96C44.42 90.84 45.34 90.67 45.93 90.57C46.51 90.47 47.32 90.35 47.71 90.3C48.1 90.25 48.78 90.17 49.22 90.12C49.66 90.08 50.16 90.04 50.34 90.04L50.65 90.03V90.03ZM68.35 107.9C76.56 107.91 83.29 107.93 83.3 107.94C83.31 107.95 83.34 114.62 83.36 122.77C83.38 133.57 83.37 137.9 83.32 138.8C83.28 139.48 83.2 140.46 83.13 140.97C83.07 141.48 82.96 142.21 82.89 142.59C82.82 142.96 82.7 143.56 82.62 143.92C82.54 144.28 82.35 144.99 82.21 145.5C82.07 146.01 81.8 146.83 81.62 147.33C81.44 147.83 81.13 148.62 80.93 149.08C80.73 149.54 80.42 150.21 80.25 150.55C80.07 150.9 79.73 151.54 79.48 151.98C79.23 152.42 78.79 153.12 78.52 153.54C78.24 153.97 77.79 154.61 77.52 154.97C77.25 155.33 76.76 155.96 76.42 156.36C76.09 156.76 75.43 157.48 74.97 157.96C74.51 158.43 73.8 159.11 73.39 159.47C72.98 159.83 72.37 160.34 72.03 160.61C71.68 160.88 71.06 161.34 70.63 161.64C70.21 161.94 69.46 162.42 68.97 162.71C68.48 163.01 67.66 163.46 67.16 163.71C66.65 163.97 65.81 164.36 65.29 164.58C64.78 164.8 63.84 165.15 63.22 165.36C62.59 165.57 61.65 165.85 61.13 165.98C60.61 166.11 59.83 166.29 59.41 166.37C58.98 166.45 58.23 166.57 57.74 166.63C57.25 166.7 56.42 166.78 55.88 166.82C55.27 166.87 54.29 166.88 53.24 166.86C52.12 166.84 51.23 166.79 50.56 166.71C50 166.64 49.23 166.53 48.84 166.46C48.44 166.39 47.71 166.24 47.2 166.12C46.7 166.01 45.9 165.8 45.42 165.66C44.95 165.51 44.2 165.27 43.76 165.11C43.32 164.94 42.66 164.69 42.3 164.53C41.95 164.38 41.33 164.1 40.94 163.9C40.55 163.71 39.91 163.38 39.52 163.16C39.13 162.95 38.48 162.55 38.07 162.29C37.65 162.03 37.03 161.61 36.69 161.37C36.35 161.12 35.82 160.71 35.51 160.47C35.2 160.23 34.64 159.76 34.26 159.42C33.88 159.09 33.21 158.44 32.77 157.99C32.33 157.54 31.74 156.9 31.46 156.57C31.18 156.25 30.76 155.74 30.54 155.45C30.31 155.15 29.9 154.6 29.63 154.21C29.36 153.83 28.89 153.1 28.58 152.59C28.28 152.09 27.8 151.22 27.53 150.68C27.25 150.13 26.86 149.3 26.66 148.82C26.45 148.35 26.1 147.42 25.88 146.75C25.66 146.08 25.39 145.21 25.29 144.83C25.19 144.44 25.03 143.74 24.94 143.27C24.84 142.79 24.69 141.91 24.61 141.29C24.53 140.68 24.43 139.77 24.4 139.27C24.37 138.77 24.34 137.91 24.34 137.36C24.34 136.81 24.37 135.95 24.4 135.45C24.43 134.95 24.52 134.13 24.58 133.63C24.64 133.13 24.77 132.36 24.85 131.91C24.93 131.46 25.1 130.68 25.23 130.18C25.36 129.67 25.59 128.87 25.74 128.39C25.89 127.92 26.19 127.09 26.4 126.55C26.61 126.02 27.05 125.04 27.37 124.39C27.69 123.73 28.18 122.81 28.47 122.34C28.75 121.86 29.14 121.25 29.33 120.97C29.52 120.69 29.91 120.15 30.2 119.75C30.49 119.36 30.94 118.79 31.2 118.48C31.46 118.17 31.98 117.58 32.36 117.17C32.74 116.76 33.41 116.1 33.85 115.71C34.29 115.31 34.89 114.79 35.18 114.54C35.48 114.3 35.98 113.91 36.3 113.68C36.62 113.44 37.25 113 37.72 112.69C38.18 112.39 38.86 111.97 39.21 111.76C39.57 111.56 40.4 111.13 41.05 110.81C41.71 110.5 42.56 110.11 42.94 109.96C43.32 109.81 44.07 109.54 44.61 109.37C45.14 109.19 45.88 108.96 46.25 108.86C46.63 108.76 47.27 108.61 47.68 108.53C48.09 108.44 48.73 108.32 49.1 108.26C49.48 108.2 50.17 108.1 50.64 108.05C51.12 108 51.94 107.94 52.46 107.91C52.98 107.89 60.13 107.88 68.35 107.9V107.9ZM344.65 109.05C340.29 109.05 336.66 112.69 336.66 117.04V185.77C336.66 190.12 340.29 193.75 344.65 193.75C349.13 193.75 352.76 190.12 352.76 185.77V159.99H387.6V185.77C387.6 190.12 391.23 193.75 395.71 193.75C400.06 193.75 403.69 190.12 403.69 185.77V141.12C403.69 136.76 400.06 133.13 395.71 133.13C391.23 133.13 387.6 136.76 387.6 141.12V144.87H352.76V117.04C352.76 112.69 349.13 109.05 344.65 109.05ZM395.71 109.05C391.23 109.05 387.6 112.69 387.6 117.04C387.6 121.52 391.23 125.15 395.71 125.15C400.06 125.15 403.69 121.52 403.69 117.04C403.69 112.69 400.06 109.05 395.71 109.05ZM437.87 109.05C433.51 109.05 429.88 112.69 429.88 117.04V185.77C429.88 190.12 433.51 193.75 437.87 193.75H479.01C483.48 193.75 486.99 190.12 486.99 185.77C486.99 181.29 483.48 177.66 479.01 177.66H445.97V159.03H474.04C478.52 159.03 482.03 155.76 482.03 151.4C482.03 146.93 478.52 143.66 474.04 143.66H445.97V125.15H454.56C458.92 125.15 462.55 121.52 462.55 117.04C462.55 112.69 458.92 109.05 454.56 109.05H437.87ZM478.64 109.05C474.17 109.05 470.54 112.69 470.54 117.04C470.54 121.52 474.17 125.15 478.64 125.15C483 125.15 486.63 121.52 486.63 117.04C486.63 112.69 483 109.05 478.64 109.05ZM543.54 109.05C540.4 109.05 537.61 110.87 536.28 113.65L503.62 182.26C501.8 186.25 503.49 191.09 507.49 193.03C511.48 194.84 516.2 193.15 518.13 189.15L525.76 173.18H566.41C569.19 173.18 571.61 171.73 573.07 169.55C575.85 165.44 573.67 161.93 572.34 159.15L550.8 113.65C549.47 110.87 546.57 109.05 543.54 109.05ZM611.54 109.05C607.19 109.05 603.56 112.69 603.56 117.04V185.77C603.56 190.12 607.19 193.75 611.54 193.75H628.6C633.08 193.75 636.59 190.12 636.59 185.77C636.59 181.29 633.08 177.66 628.6 177.66H619.65V117.04C619.65 112.69 616.02 109.05 611.54 109.05V109.05ZM666.28 109.05C661.93 109.05 658.29 112.69 658.29 117.04C658.29 121.52 661.93 125.15 666.28 125.15H683.83V185.77C683.83 190.12 687.33 193.75 691.81 193.75C696.29 193.75 699.8 190.12 699.8 185.77V117.04C699.8 112.69 696.65 109.05 691.81 109.05H666.28ZM717.34 109.05C712.86 109.05 709.23 112.69 709.23 117.04C709.23 121.52 712.86 125.15 717.34 125.15C721.7 125.15 725.33 121.52 725.33 117.04C725.33 112.69 721.7 109.05 717.34 109.05ZM750.96 109.05C746.6 109.05 742.97 112.69 742.97 117.04V185.77C742.97 190.12 746.6 193.75 750.96 193.75C755.43 193.75 759.06 190.12 759.06 185.77V159.99H793.91V185.77C793.91 190.12 797.54 193.75 802.01 193.75C806.37 193.75 810 190.12 810 185.77V141.12C810 136.76 806.37 133.13 802.01 133.13C797.54 133.13 793.91 136.76 793.91 141.12V144.87H759.06V117.04C759.06 112.69 755.43 109.05 750.96 109.05ZM802.01 109.05C797.54 109.05 793.91 112.69 793.91 117.04C793.91 121.52 797.54 125.15 802.01 125.15C806.37 125.15 810 121.52 810 117.04C810 112.69 806.37 109.05 802.01 109.05ZM543.54 135.67L554.92 159.39H532.29L543.54 135.67V135.67ZM576.09 177.66C571.73 177.66 568.11 181.29 568.11 185.77C568.11 190.12 571.73 193.75 576.09 193.75C580.57 193.75 584.2 190.12 584.2 185.77C584.2 181.29 580.57 177.66 576.09 177.66ZM652.68 177.66C648.2 177.66 644.7 181.29 644.7 185.77C644.7 190.12 648.2 193.75 652.68 193.75C657.16 193.75 660.67 190.12 660.67 185.77C660.67 181.29 657.16 177.66 652.68 177.66Z" fill="black"/>
</svg>
